#N canvas 139 382 530 388 12;
#X obj 105 104 unpack f f;
#X obj 95 144 bpw2~;
#X obj 7 352 s~ band\$1;
#X obj 11 35 inlet~ sig;
#X obj 84 354 outlet~ band;
#X obj 96 256 ssb~;
#X obj 105 36 inlet filt_ctl;
#X obj 301 36 inlet psr;
#X text 306 56 pitch shifting ratio;
#X text 107 57 list f_center bandwidth;
#X text 20 3 band_shift~: one band of a filterbank with frequency shifting
, f 63;
#X text 262 153 f_shift = f_center * psr - f_center;
#X obj 301 93 t f b;
#X obj 301 231 -;
#X obj 301 190 *;
#X connect 0 0 1 1;
#X connect 0 0 14 1;
#X connect 0 0 13 1;
#X connect 0 1 1 2;
#X connect 1 0 5 0;
#X connect 3 0 1 0;
#X connect 5 0 4 0;
#X connect 5 0 2 0;
#X connect 6 0 0 0;
#X connect 7 0 12 0;
#X connect 12 0 14 0;
#X connect 13 0 5 1;
#X connect 14 0 13 0;
