#N canvas 770 96 708 488 12;
#X declare -path /usr/lib/pd/extra/iemlib -lib iemlib;
#X text 233 114 number of bands;
#X text 10 5 filterbank~;
#X text 18 459 Manuel Planton 2021;
#X obj 199 30 declare -path /usr/lib/pd/extra/iemlib -lib iemlib;
#X text 200 6 maybe you have to change this to your iemlib install
path;
#N canvas 72 96 612 902 make_log_freqs 0;
#X obj 11 161 until;
#X obj 11 189 i;
#X obj 55 189 + 1;
#X obj 11 109 * 3;
#X obj 99 191 - 1;
#X obj 11 217 /;
#X msg 11 296 2 \$1;
#X obj 11 322 pow;
#X obj 11 270 + 4;
#X text 45 79 log spaced freqs: f_low \, f_center \, f_high, f 17
;
#X msg 55 161 0;
#X text 74 245 from 2^4 = 16Hz to 2^14.288 = 20004Hz;
#X obj 11 245 * 10.288;
#X text 37 327 log spaced frequencies;
#X obj 85 561 list prepend;
#X obj 166 408 i;
#X obj 210 408 + 1;
#X msg 183 190 0;
#X obj 85 586 t l l;
#X obj 166 453 % 3;
#X obj 166 478 sel 2;
#X obj 166 504 trigger b b;
#X obj 86 635 list store;
#X msg 166 528 list;
#X obj 11 368 trigger b f;
#X text 97 366 make groups of 3 frequencies;
#X obj 166 431 trigger f f;
#X text 101 653 groups of 3: f_low f_center f_high;
#X obj 86 688 unpack f f f;
#X text 105 830 groups of 2: f_center bandwidth;
#X obj 140 779 -;
#X obj 86 808 pack f f;
#X obj 86 779 f;
#X obj 86 715 t b b f;
#X obj 11 24 inlet n_bands;
#X obj 86 871 outlet;
#X text 139 871 list f_center bandwidth;
#X text 131 16 Calculate the log spaced center frequencies and bandwidths
for the filters in the filter bank.;
#X obj 11 136 trigger f b f b;
#X connect 0 0 1 0;
#X connect 1 0 2 0;
#X connect 1 0 5 0;
#X connect 2 0 1 1;
#X connect 3 0 38 0;
#X connect 4 0 5 1;
#X connect 5 0 12 0;
#X connect 6 0 7 0;
#X connect 7 0 24 0;
#X connect 8 0 6 0;
#X connect 10 0 1 1;
#X connect 12 0 8 0;
#X connect 14 0 18 0;
#X connect 15 0 16 0;
#X connect 15 0 26 0;
#X connect 16 0 15 1;
#X connect 17 0 15 1;
#X connect 18 0 22 1;
#X connect 18 1 14 1;
#X connect 19 0 20 0;
#X connect 20 0 21 0;
#X connect 21 0 23 0;
#X connect 21 1 22 0;
#X connect 22 0 28 0;
#X connect 23 0 14 1;
#X connect 24 0 15 0;
#X connect 24 1 14 0;
#X connect 26 0 19 0;
#X connect 28 0 33 0;
#X connect 28 1 32 1;
#X connect 28 2 30 0;
#X connect 30 0 31 1;
#X connect 31 0 35 0;
#X connect 32 0 31 0;
#X connect 33 0 32 0;
#X connect 33 1 30 0;
#X connect 33 2 30 1;
#X connect 34 0 3 0;
#X connect 38 0 0 0;
#X connect 38 1 10 0;
#X connect 38 2 4 0;
#X connect 38 3 17 0;
#X restore 197 192 pd make_log_freqs;
#X obj 197 314 list prepend;
#X obj 197 339 list trim;
#X obj 229 257 i;
#X obj 273 257 + 1;
#X obj 197 228 t l b;
#X obj 197 139 t f b;
#X msg 339 191 0;
#X obj 49 296 noise~;
#X obj 525 419 *~;
#X floatatom 551 384 5 0 0 0 - - -;
#X obj 516 449 dac~;
#X obj 448 353 r~ band7;
#X obj 524 352 r~;
#X obj 524 297 makefilename band%d;
#X floatatom 524 271 5 0 0 0 - - -;
#X msg 524 324 set \$1;
#X msg 197 114 60;
#X obj 46 412 clone filt~ 60;
#X msg 21 265 vis 50 1;
#X text 439 235 listen to the individual bands;
#X text 152 415 filter the signal into bands;
#X text 11 66 This is a logarithmically spaced filter bank of second
order bandpass filters.;
#X connect 5 0 10 0;
#X connect 6 0 7 0;
#X connect 7 0 23 1;
#X connect 8 0 9 0;
#X connect 8 0 6 1;
#X connect 9 0 8 1;
#X connect 10 0 6 0;
#X connect 10 1 8 0;
#X connect 11 0 5 0;
#X connect 11 1 12 0;
#X connect 12 0 8 1;
#X connect 13 0 23 0;
#X connect 14 0 16 0;
#X connect 14 0 16 1;
#X connect 15 0 14 1;
#X connect 17 0 14 0;
#X connect 18 0 14 0;
#X connect 19 0 21 0;
#X connect 20 0 19 0;
#X connect 21 0 18 0;
#X connect 22 0 11 0;
#X connect 24 0 23 0;
