#N canvas 753 202 909 868 12;
#X obj 158 614 *~;
#X obj 321 541 line~;
#X obj 321 515 pack 0 200;
#X obj 158 415 /;
#X obj 206 349 * 0.001;
#X obj 579 601 line~;
#X obj 579 576 pack 0 200;
#X floatatom 579 525 0 0 0 0 - - -;
#X obj 579 499 r delay;
#X obj 158 640 +~;
#X obj 95 666 cos~;
#X obj 95 693 *~;
#X obj 236 737 +~;
#X obj 254 544 wrap~;
#X obj 357 597 *~;
#X obj 357 649 +~;
#X obj 294 676 cos~;
#X obj 294 703 *~;
#X obj 663 457 loadbang;
#X obj 206 376 t b f;
#X floatatom 158 441 6 0 0 0 - - -;
#X obj 254 517 +~ 0.5;
#X obj 95 614 -~ 0.5;
#X obj 95 640 *~ 0.5;
#X obj 294 596 -~ 0.5;
#X obj 294 648 *~ 0.5;
#X obj 158 352 - 1;
#X obj 158 378 * -1;
#X text 86 432 tape head;
#X obj 158 472 phasor~;
#X obj 579 552 max 1.5;
#X text 582 458 delay;
#X text 579 476 (msec);
#X obj 281 305 max 1;
#X text 86 445 rotation freq, f 9;
#X text 531 807 Taken from Puckette help patch G09.pitchshift.pd;
#N canvas 72 96 450 464 info 0;
#X text 41 26 This is a classic rotating-tape-head style pitch shifter
using the vd~ variable delay object. There are two moving tape heads
\, each of which is loudest at the middle of its trajectory \, and
enveloped out at the moment it has to jump back (or forward) to start
another scratch. Most of the brain work is in computing how fast the
tape heads have to move to get the desired transposition., f 52;
#X text 40 166 The "window size" is the total trajectory of the read
points in the delay line \, in milliseconds. The delay times are controlled
by a phasor~ object. The second delay time \, 180 degrees out of phase
from the first one \, is computed using the "wrap" object., f 52;
#X text 39 261 The "window size" is the total trajectory of the read
points in the delay line \, in milliseconds. The delay times are controlled
by a phasor~ object. The second delay time \, 180 degrees out of phase
from the first one \, is computed using the "wrap" object., f 52;
#X text 38 352 The cos~ objects compute the fadein and fadeout of the
two delay line outputs. They each traverse the positive half of the
cosine waveform (phase -0.25 to +0.25) over the time the phase goes
from one end to the other., f 52;
#X restore 533 783 pd info;
#X obj 236 794 outlet~;
#X obj 17 37 inlet~ sig;
#X obj 18 64 delwrite~ \$0-shift_buf 5000;
#X obj 357 678 vd~ \$0-shift_buf;
#X obj 158 666 vd~ \$0-shift_buf;
#X text 533 826 modified by Manuel Planton 2021;
#X obj 280 40 inlet win_size;
#X floatatom 687 599 5 0 0 0 - - -;
#X obj 167 118 loadbang;
#X obj 167 143 trigger b b;
#X obj 242 201 sel 0;
#X obj 242 176 f \$1;
#X msg 663 483 \; delay 0;
#X text 578 431 Do we need this?;
#X msg 242 228 25;
#X text 12 6 pd_pitch_shift~ <win_size> <psr>;
#X obj 167 201 sel 0;
#X msg 167 228 1;
#X obj 468 41 inlet psr;
#X obj 167 176 f \$2;
#X connect 0 0 9 0;
#X connect 1 0 0 1;
#X connect 1 0 14 1;
#X connect 2 0 1 0;
#X connect 3 0 20 0;
#X connect 4 0 19 0;
#X connect 5 0 9 1;
#X connect 5 0 15 1;
#X connect 6 0 5 0;
#X connect 7 0 30 0;
#X connect 8 0 7 0;
#X connect 9 0 41 0;
#X connect 10 0 11 0;
#X connect 11 0 12 0;
#X connect 12 0 37 0;
#X connect 13 0 14 0;
#X connect 13 0 24 0;
#X connect 14 0 15 0;
#X connect 15 0 40 0;
#X connect 16 0 17 0;
#X connect 17 0 12 1;
#X connect 18 0 49 0;
#X connect 19 0 3 0;
#X connect 19 1 3 1;
#X connect 20 0 29 0;
#X connect 21 0 13 0;
#X connect 22 0 23 0;
#X connect 23 0 10 0;
#X connect 24 0 25 0;
#X connect 25 0 16 0;
#X connect 26 0 27 0;
#X connect 27 0 3 0;
#X connect 29 0 0 0;
#X connect 29 0 22 0;
#X connect 29 0 21 0;
#X connect 30 0 6 0;
#X connect 30 0 44 0;
#X connect 33 0 4 0;
#X connect 33 0 2 0;
#X connect 38 0 39 0;
#X connect 40 0 17 1;
#X connect 41 0 11 1;
#X connect 43 0 33 0;
#X connect 45 0 46 0;
#X connect 46 0 56 0;
#X connect 46 1 48 0;
#X connect 47 0 51 0;
#X connect 47 1 33 0;
#X connect 48 0 47 0;
#X connect 51 0 33 0;
#X connect 53 0 54 0;
#X connect 53 1 26 0;
#X connect 54 0 26 0;
#X connect 55 0 26 0;
#X connect 56 0 53 0;
