#N canvas 685 347 666 469 12;
#X text 8 5 quantizer;
#X text 150 7 quantize frequency input to musical scales;
#X obj 13 37 inlet freq;
#X obj 13 439 outlet quantized_freq;
#X obj 220 46 loadbang;
#X obj 220 101 select chromatic wholetone;
#X obj 399 161 print quantizer;
#X msg 399 133 Error: no such scale as \$1;
#X obj 220 74 symbol \$2;
#X msg 220 132 12;
#X msg 309 132 6;
#X obj 13 63 ftom;
#X obj 13 178 int;
#X floatatom 60 122 5 0 0 0 - - -;
#X floatatom 32 232 5 0 0 0 - - -;
#X obj 13 407 mtof;
#X obj 255 277 select c d e f g a b;
#X obj 255 220 loadbang;
#X obj 255 248 symbol \$1;
#X text 49 63 A440 = 69;
#X text 42 200 TODO: add rounding;
#X connect 2 0 11 0;
#X connect 4 0 8 0;
#X connect 5 0 9 0;
#X connect 5 1 10 0;
#X connect 5 2 7 0;
#X connect 7 0 6 0;
#X connect 8 0 5 0;
#X connect 11 0 12 0;
#X connect 11 0 13 0;
#X connect 12 0 14 0;
#X connect 12 0 15 0;
#X connect 15 0 3 0;
#X connect 17 0 18 0;
#X connect 18 0 16 0;
