#N canvas 996 351 656 515 12;
#X text 124 103 number of bands;
#X text 7 484 Manuel Planton 2021;
#N canvas 72 96 612 902 make_log_freqs 0;
#X obj 11 161 until;
#X obj 11 189 i;
#X obj 55 189 + 1;
#X obj 11 109 * 3;
#X obj 99 191 - 1;
#X obj 11 217 /;
#X msg 11 296 2 \$1;
#X obj 11 322 pow;
#X obj 11 270 + 4;
#X text 45 79 log spaced freqs: f_low \, f_center \, f_high, f 17
;
#X msg 55 161 0;
#X text 74 245 from 2^4 = 16Hz to 2^14.288 = 20004Hz;
#X obj 11 245 * 10.288;
#X text 37 327 log spaced frequencies;
#X obj 85 561 list prepend;
#X obj 166 408 i;
#X obj 210 408 + 1;
#X msg 183 190 0;
#X obj 85 586 t l l;
#X obj 166 453 % 3;
#X obj 166 478 sel 2;
#X obj 166 504 trigger b b;
#X obj 86 635 list store;
#X msg 166 528 list;
#X obj 11 368 trigger b f;
#X text 97 366 make groups of 3 frequencies;
#X obj 166 431 trigger f f;
#X text 101 653 groups of 3: f_low f_center f_high;
#X obj 86 688 unpack f f f;
#X text 105 830 groups of 2: f_center bandwidth;
#X obj 140 779 -;
#X obj 86 808 pack f f;
#X obj 86 779 f;
#X obj 86 715 t b b f;
#X obj 11 24 inlet n_bands;
#X obj 86 871 outlet;
#X text 139 871 list f_center bandwidth;
#X text 131 16 Calculate the log spaced center frequencies and bandwidths
for the filters in the filter bank.;
#X obj 11 136 trigger f b f b;
#X connect 0 0 1 0;
#X connect 1 0 2 0;
#X connect 1 0 5 0;
#X connect 2 0 1 1;
#X connect 3 0 38 0;
#X connect 4 0 5 1;
#X connect 5 0 12 0;
#X connect 6 0 7 0;
#X connect 7 0 24 0;
#X connect 8 0 6 0;
#X connect 10 0 1 1;
#X connect 12 0 8 0;
#X connect 14 0 18 0;
#X connect 15 0 16 0;
#X connect 15 0 26 0;
#X connect 16 0 15 1;
#X connect 17 0 15 1;
#X connect 18 0 22 1;
#X connect 18 1 14 1;
#X connect 19 0 20 0;
#X connect 20 0 21 0;
#X connect 21 0 23 0;
#X connect 21 1 22 0;
#X connect 22 0 28 0;
#X connect 23 0 14 1;
#X connect 24 0 15 0;
#X connect 24 1 14 0;
#X connect 26 0 19 0;
#X connect 28 0 33 0;
#X connect 28 1 32 1;
#X connect 28 2 30 0;
#X connect 30 0 31 1;
#X connect 31 0 35 0;
#X connect 32 0 31 0;
#X connect 33 0 32 0;
#X connect 33 1 30 0;
#X connect 33 2 30 1;
#X connect 34 0 3 0;
#X connect 38 0 0 0;
#X connect 38 1 10 0;
#X connect 38 2 4 0;
#X connect 38 3 17 0;
#X restore 88 181 pd make_log_freqs;
#X obj 88 303 list prepend;
#X obj 88 328 list trim;
#X obj 120 246 i;
#X obj 164 246 + 1;
#X obj 88 217 t l b;
#X obj 88 128 t f b;
#X msg 230 180 0;
#X text 33 391 This is a logarithmically spaced filter bank of second
order bandpass filters. In every band there is a frequency shifter.
;
#X text 296 68 pitch shifting ratio;
#X msg 339 220 all \$1;
#X obj 292 141 moses 0;
#X obj 292 194 print rollers_pitch_shift~;
#X msg 292 168 pitch shifting ratio is \$1 but must be positive;
#X obj 16 367 clone band_shift~ 300;
#X text 10 5 rollers_pitch_shift~;
#X text 174 5 time variant pitch shifting;
#X obj 15 42 inlet~ sin_ig;
#X obj 88 77 loadbang;
#X obj 88 103 i \$1;
#X obj 292 45 inlet psr;
#X obj 15 458 outlet~ out_sig;
#X obj 301 91 loadbang;
#X obj 301 116 f \$2;
#X connect 2 0 7 0;
#X connect 3 0 4 0;
#X connect 4 0 16 1;
#X connect 5 0 6 0;
#X connect 5 0 3 1;
#X connect 6 0 5 1;
#X connect 7 0 3 0;
#X connect 7 1 5 0;
#X connect 8 0 2 0;
#X connect 8 1 9 0;
#X connect 9 0 5 1;
#X connect 12 0 16 2;
#X connect 13 0 15 0;
#X connect 13 1 12 0;
#X connect 15 0 14 0;
#X connect 16 0 23 0;
#X connect 19 0 16 0;
#X connect 20 0 21 0;
#X connect 21 0 8 0;
#X connect 22 0 13 0;
#X connect 24 0 25 0;
#X connect 25 0 13 0;
