#N canvas 72 96 450 300 12;
#X obj 38 92 until;
#X obj 51 175 list store;
#X obj 72 59 t b b l;
#X obj 38 117 f;
#X obj 76 118 + 1;
#X msg 95 92 0, f 2;
#X msg 38 148 get \$1 1;
#X obj 11 9 inlet list;
#X obj 10 266 outlet messages;
#X text 127 12 list serializer;
#X connect 0 0 3 0;
#X connect 1 0 8 0;
#X connect 1 1 0 1;
#X connect 2 0 0 0;
#X connect 2 1 5 0;
#X connect 2 2 1 1;
#X connect 3 0 4 0;
#X connect 3 0 6 0;
#X connect 4 0 3 1;
#X connect 5 0 3 1;
#X connect 6 0 1 0;
#X connect 7 0 2 0;
