#N canvas 640 131 1205 751 12;
#X declare -path pd-aubio/build;
#X declare -path /usr/lib/pd/extra/iemlib -lib iemlib;
#X obj 328 121 tgl 15 0 empty empty empty 17 7 0 10 -262144 -1 -1 1
1;
#X obj 254 143 abs/player~;
#X obj 930 688 *~;
#X obj 921 718 dac~;
#X msg 293 14 bang;
#X obj 293 45 openpanel;
#X obj 971 647 hsl 128 15 0 127 0 0 empty empty vol -2 -8 0 10 -262144
-1 -1 9500 1;
#X obj 968 667 dbtorms;
#X floatatom 968 692 5 0 0 0 - - -;
#X obj 82 93 adc~;
#X obj 82 140 *~;
#X floatatom 100 117 5 0 0 0 - - -;
#X text 15 175 use headphones...;
#X obj 236 193 +~;
#X msg 298 71 ../../../samples/henry5.wav;
#X msg 308 95 ../../../samples/la-vaca-cega-eva.wav;
#X obj 236 221 s~ input;
#X text 54 327 all same parameters;
#X obj 929 607 catch~ output;
#X obj 1040 134 s transpose;
#X floatatom 1040 110 5 0 0 0 - - -;
#X obj 785 137 s key;
#X msg 785 100 C;
#X obj 868 135 s scale;
#X msg 870 103 chromatic;
#X msg 864 67 wholetone;
#X obj 958 134 s t_smooth;
#X floatatom 958 110 5 0 0 0 - - -;
#X msg 846 39 pentatonic;
#N canvas 809 637 450 300 include 0;
#X obj 13 80 aubio;
#X obj 13 51 declare -path pd-aubio/build;
#X obj 14 23 declare -path /usr/lib/pd/extra/iemlib -lib iemlib;
#X restore 16 16 pd include;
#N canvas 72 402 549 316 one 0;
#X obj 28 194 +~;
#X obj 47 162 disco~ C ionian 440 20 15 0;
#X obj 28 134 *~ 0.707;
#X obj 417 83 switch~;
#X obj 417 36 tgl 15 0 empty empty empty 17 7 0 10 -262144 -1 -1 0
1;
#X obj 417 9 inlet on;
#X obj 28 21 r~ input;
#X obj 28 268 throw~ output;
#X obj 93 130 r key;
#X obj 134 130 r scale;
#X obj 189 131 r t_smooth;
#X obj 266 131 r transpose;
#X obj 28 241 *~;
#X obj 417 54 t f f;
#X obj 450 116 sel 1;
#X msg 450 142 0 \, 1 20;
#X obj 450 167 vline~;
#X connect 0 0 12 0;
#X connect 1 0 0 1;
#X connect 2 0 0 0;
#X connect 2 0 1 0;
#X connect 4 0 13 0;
#X connect 5 0 4 0;
#X connect 6 0 2 0;
#X connect 8 0 1 1;
#X connect 9 0 1 2;
#X connect 10 0 1 3;
#X connect 11 0 1 4;
#X connect 12 0 7 0;
#X connect 13 0 3 0;
#X connect 13 1 14 0;
#X connect 14 0 15 0;
#X connect 15 0 16 0;
#X connect 16 0 12 1;
#X restore 53 377 pd one;
#X obj 53 357 tgl 15 0 empty empty empty 17 7 0 10 -262144 -1 -1 0
1;
#X obj 103 357 tgl 15 0 empty empty empty 17 7 0 10 -262144 -1 -1 0
1;
#N canvas 72 402 549 316 two 0;
#X obj 28 114 +~;
#X obj 47 82 disco~ C ionian 440 20 15 0;
#X obj 28 54 *~ 0.707;
#X obj 28 21 r~ input;
#X obj 28 268 throw~ output;
#X obj 93 54 r key;
#X obj 134 54 r scale;
#X obj 189 54 r t_smooth;
#X obj 266 54 r transpose;
#X obj 28 204 +~;
#X obj 47 172 disco~ C ionian 440 20 15 0;
#X obj 28 144 *~ 0.707;
#X obj 93 145 r key;
#X obj 134 145 r scale;
#X obj 189 145 r t_smooth;
#X obj 266 145 r transpose;
#X obj 417 83 switch~;
#X obj 417 36 tgl 15 0 empty empty empty 17 7 0 10 -262144 -1 -1 0
1;
#X obj 417 9 inlet on;
#X obj 28 241 *~;
#X obj 417 54 t f f;
#X obj 450 116 sel 1;
#X msg 450 142 0 \, 1 20;
#X obj 450 167 vline~;
#X connect 0 0 11 0;
#X connect 1 0 0 1;
#X connect 2 0 0 0;
#X connect 2 0 1 0;
#X connect 3 0 2 0;
#X connect 5 0 1 1;
#X connect 6 0 1 2;
#X connect 7 0 1 3;
#X connect 8 0 1 4;
#X connect 9 0 19 0;
#X connect 10 0 9 1;
#X connect 11 0 9 0;
#X connect 11 0 10 0;
#X connect 12 0 10 1;
#X connect 13 0 10 2;
#X connect 14 0 10 3;
#X connect 15 0 10 4;
#X connect 17 0 20 0;
#X connect 18 0 17 0;
#X connect 19 0 4 0;
#X connect 20 0 16 0;
#X connect 20 1 21 0;
#X connect 21 0 22 0;
#X connect 22 0 23 0;
#X connect 23 0 19 1;
#X restore 103 377 pd two;
#X obj 153 357 tgl 15 0 empty empty empty 17 7 0 10 -262144 -1 -1 0
1;
#N canvas 72 394 549 479 three 0;
#X obj 28 114 +~;
#X obj 47 82 disco~ C ionian 440 20 15 0;
#X obj 28 54 *~ 0.707;
#X obj 417 9 inlet on;
#X obj 28 21 r~ input;
#X obj 28 358 throw~ output;
#X obj 93 54 r key;
#X obj 134 54 r scale;
#X obj 189 54 r t_smooth;
#X obj 266 54 r transpose;
#X obj 28 204 +~;
#X obj 47 172 disco~ C ionian 440 20 15 0;
#X obj 28 144 *~ 0.707;
#X obj 93 145 r key;
#X obj 134 145 r scale;
#X obj 189 145 r t_smooth;
#X obj 266 145 r transpose;
#X obj 28 304 +~;
#X obj 47 272 disco~ C ionian 440 20 15 0;
#X obj 28 244 *~ 0.707;
#X obj 93 245 r key;
#X obj 134 245 r scale;
#X obj 189 245 r t_smooth;
#X obj 266 245 r transpose;
#X obj 417 203 switch~;
#X obj 417 40 tgl 15 0 empty empty empty 17 7 0 10 -262144 -1 -1 0
1;
#X obj 28 331 *~;
#X obj 417 174 t f f;
#X obj 450 236 sel 1;
#X msg 450 262 0 \, 1 20;
#X obj 450 287 vline~;
#X connect 0 0 12 0;
#X connect 1 0 0 1;
#X connect 2 0 0 0;
#X connect 2 0 1 0;
#X connect 3 0 25 0;
#X connect 4 0 2 0;
#X connect 6 0 1 1;
#X connect 7 0 1 2;
#X connect 8 0 1 3;
#X connect 9 0 1 4;
#X connect 10 0 19 0;
#X connect 11 0 10 1;
#X connect 12 0 10 0;
#X connect 12 0 11 0;
#X connect 13 0 11 1;
#X connect 14 0 11 2;
#X connect 15 0 11 3;
#X connect 16 0 11 4;
#X connect 17 0 26 0;
#X connect 18 0 17 1;
#X connect 19 0 17 0;
#X connect 19 0 18 0;
#X connect 20 0 18 1;
#X connect 21 0 18 2;
#X connect 22 0 18 3;
#X connect 23 0 18 4;
#X connect 25 0 27 0;
#X connect 26 0 5 0;
#X connect 27 0 24 0;
#X connect 27 1 28 0;
#X connect 28 0 29 0;
#X connect 29 0 30 0;
#X connect 30 0 26 1;
#X restore 153 377 pd three;
#X obj 218 357 tgl 15 0 empty empty empty 17 7 0 10 -262144 -1 -1 0
1;
#N canvas 72 378 549 540 four 0;
#X obj 28 114 +~;
#X obj 47 82 disco~ C ionian 440 20 15 0;
#X obj 28 54 *~ 0.707;
#X obj 417 9 inlet on;
#X obj 28 21 r~ input;
#X obj 28 448 throw~ output;
#X obj 93 54 r key;
#X obj 134 54 r scale;
#X obj 189 54 r t_smooth;
#X obj 266 54 r transpose;
#X obj 28 204 +~;
#X obj 47 172 disco~ C ionian 440 20 15 0;
#X obj 28 144 *~ 0.707;
#X obj 93 145 r key;
#X obj 134 145 r scale;
#X obj 189 145 r t_smooth;
#X obj 266 145 r transpose;
#X obj 28 294 +~;
#X obj 47 262 disco~ C ionian 440 20 15 0;
#X obj 28 234 *~ 0.707;
#X obj 93 235 r key;
#X obj 134 235 r scale;
#X obj 189 235 r t_smooth;
#X obj 266 235 r transpose;
#X obj 28 385 +~;
#X obj 47 353 disco~ C ionian 440 20 15 0;
#X obj 28 325 *~ 0.707;
#X obj 93 326 r key;
#X obj 134 326 r scale;
#X obj 189 326 r t_smooth;
#X obj 266 326 r transpose;
#X obj 417 277 switch~;
#X obj 417 40 tgl 15 0 empty empty empty 17 7 0 10 -262144 -1 -1 0
1;
#X obj 27 417 *~;
#X obj 417 248 t f f;
#X obj 450 310 sel 1;
#X msg 450 336 0 \, 1 20;
#X obj 450 361 vline~;
#X connect 0 0 12 0;
#X connect 1 0 0 1;
#X connect 2 0 0 0;
#X connect 2 0 1 0;
#X connect 3 0 32 0;
#X connect 4 0 2 0;
#X connect 6 0 1 1;
#X connect 7 0 1 2;
#X connect 8 0 1 3;
#X connect 9 0 1 4;
#X connect 10 0 19 0;
#X connect 11 0 10 1;
#X connect 12 0 10 0;
#X connect 12 0 11 0;
#X connect 13 0 11 1;
#X connect 14 0 11 2;
#X connect 15 0 11 3;
#X connect 16 0 11 4;
#X connect 17 0 26 0;
#X connect 18 0 17 1;
#X connect 19 0 17 0;
#X connect 19 0 18 0;
#X connect 20 0 18 1;
#X connect 21 0 18 2;
#X connect 22 0 18 3;
#X connect 23 0 18 4;
#X connect 24 0 33 0;
#X connect 25 0 24 1;
#X connect 26 0 24 0;
#X connect 26 0 25 0;
#X connect 27 0 25 1;
#X connect 28 0 25 2;
#X connect 29 0 25 3;
#X connect 30 0 25 4;
#X connect 32 0 34 0;
#X connect 33 0 5 0;
#X connect 34 0 31 0;
#X connect 34 1 35 0;
#X connect 35 0 36 0;
#X connect 36 0 37 0;
#X connect 37 0 33 1;
#X restore 218 377 pd four;
#X obj 278 357 tgl 15 0 empty empty empty 17 7 0 10 -262144 -1 -1 0
1;
#N canvas 72 370 549 660 six 0;
#X obj 28 114 +~;
#X obj 47 82 disco~ C ionian 440 20 15 0;
#X obj 28 54 *~ 0.707;
#X obj 417 36 tgl 15 0 empty empty empty 17 7 0 10 -262144 -1 -1 0
1;
#X obj 417 9 inlet on;
#X obj 28 21 r~ input;
#X obj 28 618 throw~ output;
#X obj 93 54 r key;
#X obj 134 54 r scale;
#X obj 189 54 r t_smooth;
#X obj 266 54 r transpose;
#X obj 28 204 +~;
#X obj 47 172 disco~ C ionian 440 20 15 0;
#X obj 28 144 *~ 0.707;
#X obj 93 145 r key;
#X obj 134 145 r scale;
#X obj 189 145 r t_smooth;
#X obj 266 145 r transpose;
#X obj 28 294 +~;
#X obj 47 262 disco~ C ionian 440 20 15 0;
#X obj 28 234 *~ 0.707;
#X obj 93 235 r key;
#X obj 134 235 r scale;
#X obj 189 235 r t_smooth;
#X obj 266 235 r transpose;
#X obj 28 385 +~;
#X obj 47 353 disco~ C ionian 440 20 15 0;
#X obj 28 325 *~ 0.707;
#X obj 93 326 r key;
#X obj 134 326 r scale;
#X obj 189 326 r t_smooth;
#X obj 266 326 r transpose;
#X obj 28 474 +~;
#X obj 47 442 disco~ C ionian 440 20 15 0;
#X obj 28 414 *~ 0.707;
#X obj 93 415 r key;
#X obj 134 415 r scale;
#X obj 189 415 r t_smooth;
#X obj 266 415 r transpose;
#X obj 28 565 +~;
#X obj 47 533 disco~ C ionian 440 20 15 0;
#X obj 28 505 *~ 0.707;
#X obj 93 506 r key;
#X obj 134 506 r scale;
#X obj 189 506 r t_smooth;
#X obj 266 506 r transpose;
#X obj 417 452 switch~;
#X obj 28 592 *~;
#X obj 417 423 t f f;
#X obj 450 485 sel 1;
#X msg 450 511 0 \, 1 20;
#X obj 450 536 vline~;
#X connect 0 0 13 0;
#X connect 1 0 0 1;
#X connect 2 0 0 0;
#X connect 2 0 1 0;
#X connect 3 0 48 0;
#X connect 4 0 3 0;
#X connect 5 0 2 0;
#X connect 7 0 1 1;
#X connect 8 0 1 2;
#X connect 9 0 1 3;
#X connect 10 0 1 4;
#X connect 11 0 20 0;
#X connect 12 0 11 1;
#X connect 13 0 11 0;
#X connect 13 0 12 0;
#X connect 14 0 12 1;
#X connect 15 0 12 2;
#X connect 16 0 12 3;
#X connect 17 0 12 4;
#X connect 18 0 27 0;
#X connect 19 0 18 1;
#X connect 20 0 18 0;
#X connect 20 0 19 0;
#X connect 21 0 19 1;
#X connect 22 0 19 2;
#X connect 23 0 19 3;
#X connect 24 0 19 4;
#X connect 25 0 34 0;
#X connect 26 0 25 1;
#X connect 27 0 25 0;
#X connect 27 0 26 0;
#X connect 28 0 26 1;
#X connect 29 0 26 2;
#X connect 30 0 26 3;
#X connect 31 0 26 4;
#X connect 32 0 41 0;
#X connect 33 0 32 1;
#X connect 34 0 32 0;
#X connect 34 0 33 0;
#X connect 35 0 33 1;
#X connect 36 0 33 2;
#X connect 37 0 33 3;
#X connect 38 0 33 4;
#X connect 39 0 47 0;
#X connect 40 0 39 1;
#X connect 41 0 39 0;
#X connect 41 0 40 0;
#X connect 42 0 40 1;
#X connect 43 0 40 2;
#X connect 44 0 40 3;
#X connect 45 0 40 4;
#X connect 47 0 6 0;
#X connect 48 0 46 0;
#X connect 48 1 49 0;
#X connect 49 0 50 0;
#X connect 50 0 51 0;
#X connect 51 0 47 1;
#X restore 278 377 pd six;
#X obj 328 357 tgl 15 0 empty empty empty 17 7 0 10 -262144 -1 -1 0
1;
#N canvas 72 96 549 964 eight 0;
#X obj 28 114 +~;
#X obj 47 82 disco~ C ionian 440 20 15 0;
#X obj 28 54 *~ 0.707;
#X obj 417 36 tgl 15 0 empty empty empty 17 7 0 10 -262144 -1 -1 0
1;
#X obj 417 9 inlet on;
#X obj 28 21 r~ input;
#X obj 28 928 throw~ output;
#X obj 93 54 r key;
#X obj 134 54 r scale;
#X obj 189 54 r t_smooth;
#X obj 266 54 r transpose;
#X obj 28 204 +~;
#X obj 47 172 disco~ C ionian 440 20 15 0;
#X obj 28 144 *~ 0.707;
#X obj 93 145 r key;
#X obj 134 145 r scale;
#X obj 189 145 r t_smooth;
#X obj 266 145 r transpose;
#X obj 28 294 +~;
#X obj 47 262 disco~ C ionian 440 20 15 0;
#X obj 28 234 *~ 0.707;
#X obj 93 235 r key;
#X obj 134 235 r scale;
#X obj 189 235 r t_smooth;
#X obj 266 235 r transpose;
#X obj 28 385 +~;
#X obj 47 353 disco~ C ionian 440 20 15 0;
#X obj 28 325 *~ 0.707;
#X obj 93 326 r key;
#X obj 134 326 r scale;
#X obj 189 326 r t_smooth;
#X obj 266 326 r transpose;
#X obj 28 474 +~;
#X obj 47 442 disco~ C ionian 440 20 15 0;
#X obj 28 414 *~ 0.707;
#X obj 93 415 r key;
#X obj 134 415 r scale;
#X obj 189 415 r t_smooth;
#X obj 266 415 r transpose;
#X obj 28 565 +~;
#X obj 47 533 disco~ C ionian 440 20 15 0;
#X obj 28 505 *~ 0.707;
#X obj 93 506 r key;
#X obj 134 506 r scale;
#X obj 189 506 r t_smooth;
#X obj 266 506 r transpose;
#X obj 28 654 +~;
#X obj 47 622 disco~ C ionian 440 20 15 0;
#X obj 28 594 *~ 0.707;
#X obj 93 595 r key;
#X obj 134 595 r scale;
#X obj 189 595 r t_smooth;
#X obj 266 595 r transpose;
#X obj 28 745 +~;
#X obj 47 713 disco~ C ionian 440 20 15 0;
#X obj 28 685 *~ 0.707;
#X obj 93 686 r key;
#X obj 134 686 r scale;
#X obj 189 686 r t_smooth;
#X obj 266 686 r transpose;
#X obj 417 651 switch~;
#X obj 28 791 *~;
#X obj 417 622 t f f;
#X obj 450 684 sel 1;
#X msg 450 710 0 \, 1 20;
#X obj 450 735 vline~;
#X connect 0 0 13 0;
#X connect 1 0 0 1;
#X connect 2 0 0 0;
#X connect 2 0 1 0;
#X connect 3 0 62 0;
#X connect 4 0 3 0;
#X connect 5 0 2 0;
#X connect 7 0 1 1;
#X connect 8 0 1 2;
#X connect 9 0 1 3;
#X connect 10 0 1 4;
#X connect 11 0 20 0;
#X connect 12 0 11 1;
#X connect 13 0 11 0;
#X connect 13 0 12 0;
#X connect 14 0 12 1;
#X connect 15 0 12 2;
#X connect 16 0 12 3;
#X connect 17 0 12 4;
#X connect 18 0 27 0;
#X connect 19 0 18 1;
#X connect 20 0 18 0;
#X connect 20 0 19 0;
#X connect 21 0 19 1;
#X connect 22 0 19 2;
#X connect 23 0 19 3;
#X connect 24 0 19 4;
#X connect 25 0 34 0;
#X connect 26 0 25 1;
#X connect 27 0 25 0;
#X connect 27 0 26 0;
#X connect 28 0 26 1;
#X connect 29 0 26 2;
#X connect 30 0 26 3;
#X connect 31 0 26 4;
#X connect 32 0 41 0;
#X connect 33 0 32 1;
#X connect 34 0 32 0;
#X connect 34 0 33 0;
#X connect 35 0 33 1;
#X connect 36 0 33 2;
#X connect 37 0 33 3;
#X connect 38 0 33 4;
#X connect 39 0 48 0;
#X connect 40 0 39 1;
#X connect 41 0 39 0;
#X connect 41 0 40 0;
#X connect 42 0 40 1;
#X connect 43 0 40 2;
#X connect 44 0 40 3;
#X connect 45 0 40 4;
#X connect 46 0 55 0;
#X connect 47 0 46 1;
#X connect 48 0 46 0;
#X connect 48 0 47 0;
#X connect 49 0 47 1;
#X connect 50 0 47 2;
#X connect 51 0 47 3;
#X connect 52 0 47 4;
#X connect 53 0 61 0;
#X connect 54 0 53 1;
#X connect 55 0 53 0;
#X connect 55 0 54 0;
#X connect 56 0 54 1;
#X connect 57 0 54 2;
#X connect 58 0 54 3;
#X connect 59 0 54 4;
#X connect 61 0 6 0;
#X connect 62 0 60 0;
#X connect 62 1 63 0;
#X connect 63 0 64 0;
#X connect 64 0 65 0;
#X connect 65 0 61 1;
#X restore 328 377 pd eight;
#X obj 398 357 tgl 15 0 empty empty empty 17 7 0 10 -262144 -1 -1 0
1;
#N canvas 72 96 549 982 ten 0;
#X obj 28 95 +~;
#X obj 47 63 disco~ C ionian 440 20 15 0;
#X obj 28 35 *~ 0.707;
#X obj 417 36 tgl 15 0 empty empty empty 17 7 0 10 -262144 -1 -1 0
1;
#X obj 417 9 inlet on;
#X obj 28 2 r~ input;
#X obj 28 961 throw~ output;
#X obj 93 35 r key;
#X obj 134 35 r scale;
#X obj 189 35 r t_smooth;
#X obj 266 35 r transpose;
#X obj 28 185 +~;
#X obj 47 153 disco~ C ionian 440 20 15 0;
#X obj 28 125 *~ 0.707;
#X obj 93 126 r key;
#X obj 134 126 r scale;
#X obj 189 126 r t_smooth;
#X obj 266 126 r transpose;
#X obj 28 275 +~;
#X obj 47 243 disco~ C ionian 440 20 15 0;
#X obj 28 215 *~ 0.707;
#X obj 93 216 r key;
#X obj 134 216 r scale;
#X obj 189 216 r t_smooth;
#X obj 266 216 r transpose;
#X obj 28 366 +~;
#X obj 47 334 disco~ C ionian 440 20 15 0;
#X obj 28 306 *~ 0.707;
#X obj 93 307 r key;
#X obj 134 307 r scale;
#X obj 189 307 r t_smooth;
#X obj 266 307 r transpose;
#X obj 28 455 +~;
#X obj 47 423 disco~ C ionian 440 20 15 0;
#X obj 28 395 *~ 0.707;
#X obj 93 396 r key;
#X obj 134 396 r scale;
#X obj 189 396 r t_smooth;
#X obj 266 396 r transpose;
#X obj 28 546 +~;
#X obj 47 514 disco~ C ionian 440 20 15 0;
#X obj 28 486 *~ 0.707;
#X obj 93 487 r key;
#X obj 134 487 r scale;
#X obj 189 487 r t_smooth;
#X obj 266 487 r transpose;
#X obj 28 635 +~;
#X obj 47 603 disco~ C ionian 440 20 15 0;
#X obj 28 575 *~ 0.707;
#X obj 93 576 r key;
#X obj 134 576 r scale;
#X obj 189 576 r t_smooth;
#X obj 266 576 r transpose;
#X obj 28 726 +~;
#X obj 47 694 disco~ C ionian 440 20 15 0;
#X obj 28 666 *~ 0.707;
#X obj 93 667 r key;
#X obj 134 667 r scale;
#X obj 189 667 r t_smooth;
#X obj 266 667 r transpose;
#X obj 28 815 +~;
#X obj 47 783 disco~ C ionian 440 20 15 0;
#X obj 28 755 *~ 0.707;
#X obj 93 756 r key;
#X obj 134 756 r scale;
#X obj 189 756 r t_smooth;
#X obj 266 756 r transpose;
#X obj 28 906 +~;
#X obj 47 874 disco~ C ionian 440 20 15 0;
#X obj 28 846 *~ 0.707;
#X obj 93 847 r key;
#X obj 134 847 r scale;
#X obj 189 847 r t_smooth;
#X obj 266 847 r transpose;
#X obj 417 812 switch~;
#X obj 28 933 *~;
#X obj 417 783 t f f;
#X obj 450 845 sel 1;
#X obj 450 896 vline~;
#X msg 450 871 0 \, 1 40;
#X connect 0 0 13 0;
#X connect 1 0 0 1;
#X connect 2 0 0 0;
#X connect 2 0 1 0;
#X connect 3 0 76 0;
#X connect 4 0 3 0;
#X connect 5 0 2 0;
#X connect 7 0 1 1;
#X connect 8 0 1 2;
#X connect 9 0 1 3;
#X connect 10 0 1 4;
#X connect 11 0 20 0;
#X connect 12 0 11 1;
#X connect 13 0 11 0;
#X connect 13 0 12 0;
#X connect 14 0 12 1;
#X connect 15 0 12 2;
#X connect 16 0 12 3;
#X connect 17 0 12 4;
#X connect 18 0 27 0;
#X connect 19 0 18 1;
#X connect 20 0 18 0;
#X connect 20 0 19 0;
#X connect 21 0 19 1;
#X connect 22 0 19 2;
#X connect 23 0 19 3;
#X connect 24 0 19 4;
#X connect 25 0 34 0;
#X connect 26 0 25 1;
#X connect 27 0 25 0;
#X connect 27 0 26 0;
#X connect 28 0 26 1;
#X connect 29 0 26 2;
#X connect 30 0 26 3;
#X connect 31 0 26 4;
#X connect 32 0 41 0;
#X connect 33 0 32 1;
#X connect 34 0 32 0;
#X connect 34 0 33 0;
#X connect 35 0 33 1;
#X connect 36 0 33 2;
#X connect 37 0 33 3;
#X connect 38 0 33 4;
#X connect 39 0 48 0;
#X connect 40 0 39 1;
#X connect 41 0 39 0;
#X connect 41 0 40 0;
#X connect 42 0 40 1;
#X connect 43 0 40 2;
#X connect 44 0 40 3;
#X connect 45 0 40 4;
#X connect 46 0 55 0;
#X connect 47 0 46 1;
#X connect 48 0 46 0;
#X connect 48 0 47 0;
#X connect 49 0 47 1;
#X connect 50 0 47 2;
#X connect 51 0 47 3;
#X connect 52 0 47 4;
#X connect 53 0 62 0;
#X connect 54 0 53 1;
#X connect 55 0 53 0;
#X connect 55 0 54 0;
#X connect 56 0 54 1;
#X connect 57 0 54 2;
#X connect 58 0 54 3;
#X connect 59 0 54 4;
#X connect 60 0 69 0;
#X connect 61 0 60 1;
#X connect 62 0 60 0;
#X connect 62 0 61 0;
#X connect 63 0 61 1;
#X connect 64 0 61 2;
#X connect 65 0 61 3;
#X connect 66 0 61 4;
#X connect 67 0 75 0;
#X connect 68 0 67 1;
#X connect 69 0 67 0;
#X connect 69 0 68 0;
#X connect 70 0 68 1;
#X connect 71 0 68 2;
#X connect 72 0 68 3;
#X connect 73 0 68 4;
#X connect 75 0 6 0;
#X connect 76 0 74 0;
#X connect 76 1 77 0;
#X connect 77 0 79 0;
#X connect 78 0 75 1;
#X connect 79 0 78 0;
#X restore 398 377 pd ten;
#X obj 458 357 tgl 15 0 empty empty empty 17 7 0 10 -262144 -1 -1 0
1;
#N canvas 72 96 1065 982 fifteen 0;
#X obj 28 114 +~;
#X obj 47 82 disco~ C ionian 440 20 15 0;
#X obj 28 54 *~ 0.707;
#X obj 810 49 tgl 15 0 empty empty empty 17 7 0 10 -262144 -1 -1 0
1;
#X obj 810 22 inlet on;
#X obj 28 21 r~ input;
#X obj 420 610 throw~ output;
#X obj 93 54 r key;
#X obj 134 54 r scale;
#X obj 189 54 r t_smooth;
#X obj 266 54 r transpose;
#X obj 28 204 +~;
#X obj 47 172 disco~ C ionian 440 20 15 0;
#X obj 28 144 *~ 0.707;
#X obj 93 145 r key;
#X obj 134 145 r scale;
#X obj 189 145 r t_smooth;
#X obj 266 145 r transpose;
#X obj 28 294 +~;
#X obj 47 262 disco~ C ionian 440 20 15 0;
#X obj 28 234 *~ 0.707;
#X obj 93 235 r key;
#X obj 134 235 r scale;
#X obj 189 235 r t_smooth;
#X obj 266 235 r transpose;
#X obj 28 385 +~;
#X obj 47 353 disco~ C ionian 440 20 15 0;
#X obj 28 325 *~ 0.707;
#X obj 93 326 r key;
#X obj 134 326 r scale;
#X obj 189 326 r t_smooth;
#X obj 266 326 r transpose;
#X obj 28 474 +~;
#X obj 47 442 disco~ C ionian 440 20 15 0;
#X obj 28 414 *~ 0.707;
#X obj 93 415 r key;
#X obj 134 415 r scale;
#X obj 189 415 r t_smooth;
#X obj 266 415 r transpose;
#X obj 28 565 +~;
#X obj 47 533 disco~ C ionian 440 20 15 0;
#X obj 28 505 *~ 0.707;
#X obj 93 506 r key;
#X obj 134 506 r scale;
#X obj 189 506 r t_smooth;
#X obj 266 506 r transpose;
#X obj 28 654 +~;
#X obj 47 622 disco~ C ionian 440 20 15 0;
#X obj 28 594 *~ 0.707;
#X obj 93 595 r key;
#X obj 134 595 r scale;
#X obj 189 595 r t_smooth;
#X obj 266 595 r transpose;
#X obj 28 745 +~;
#X obj 47 713 disco~ C ionian 440 20 15 0;
#X obj 28 685 *~ 0.707;
#X obj 93 686 r key;
#X obj 134 686 r scale;
#X obj 189 686 r t_smooth;
#X obj 266 686 r transpose;
#X obj 28 834 +~;
#X obj 47 802 disco~ C ionian 440 20 15 0;
#X obj 28 774 *~ 0.707;
#X obj 93 775 r key;
#X obj 134 775 r scale;
#X obj 189 775 r t_smooth;
#X obj 266 775 r transpose;
#X obj 28 925 +~;
#X obj 47 893 disco~ C ionian 440 20 15 0;
#X obj 28 865 *~ 0.707;
#X obj 93 866 r key;
#X obj 134 866 r scale;
#X obj 189 866 r t_smooth;
#X obj 266 866 r transpose;
#X obj 420 196 +~;
#X obj 439 164 disco~ C ionian 440 20 15 0;
#X obj 420 136 *~ 0.707;
#X obj 485 137 r key;
#X obj 526 137 r scale;
#X obj 581 137 r t_smooth;
#X obj 658 137 r transpose;
#X obj 420 285 +~;
#X obj 439 253 disco~ C ionian 440 20 15 0;
#X obj 420 225 *~ 0.707;
#X obj 485 226 r key;
#X obj 526 226 r scale;
#X obj 581 226 r t_smooth;
#X obj 658 226 r transpose;
#X obj 420 376 +~;
#X obj 439 344 disco~ C ionian 440 20 15 0;
#X obj 420 316 *~ 0.707;
#X obj 485 317 r key;
#X obj 526 317 r scale;
#X obj 581 317 r t_smooth;
#X obj 658 317 r transpose;
#X obj 420 465 +~;
#X obj 439 433 disco~ C ionian 440 20 15 0;
#X obj 420 405 *~ 0.707;
#X obj 485 406 r key;
#X obj 526 406 r scale;
#X obj 581 406 r t_smooth;
#X obj 658 406 r transpose;
#X obj 420 556 +~;
#X obj 439 524 disco~ C ionian 440 20 15 0;
#X obj 420 496 *~ 0.707;
#X obj 485 497 r key;
#X obj 526 497 r scale;
#X obj 581 497 r t_smooth;
#X obj 658 497 r transpose;
#X obj 810 443 switch~;
#X obj 420 583 *~;
#X obj 810 414 t f f;
#X obj 843 476 sel 1;
#X obj 843 527 vline~;
#X msg 843 502 0 \, 1 100;
#X connect 0 0 13 0;
#X connect 1 0 0 1;
#X connect 2 0 0 0;
#X connect 2 0 1 0;
#X connect 3 0 111 0;
#X connect 4 0 3 0;
#X connect 5 0 2 0;
#X connect 7 0 1 1;
#X connect 8 0 1 2;
#X connect 9 0 1 3;
#X connect 10 0 1 4;
#X connect 11 0 20 0;
#X connect 12 0 11 1;
#X connect 13 0 11 0;
#X connect 13 0 12 0;
#X connect 14 0 12 1;
#X connect 15 0 12 2;
#X connect 16 0 12 3;
#X connect 17 0 12 4;
#X connect 18 0 27 0;
#X connect 19 0 18 1;
#X connect 20 0 18 0;
#X connect 20 0 19 0;
#X connect 21 0 19 1;
#X connect 22 0 19 2;
#X connect 23 0 19 3;
#X connect 24 0 19 4;
#X connect 25 0 34 0;
#X connect 26 0 25 1;
#X connect 27 0 25 0;
#X connect 27 0 26 0;
#X connect 28 0 26 1;
#X connect 29 0 26 2;
#X connect 30 0 26 3;
#X connect 31 0 26 4;
#X connect 32 0 41 0;
#X connect 33 0 32 1;
#X connect 34 0 32 0;
#X connect 34 0 33 0;
#X connect 35 0 33 1;
#X connect 36 0 33 2;
#X connect 37 0 33 3;
#X connect 38 0 33 4;
#X connect 39 0 48 0;
#X connect 40 0 39 1;
#X connect 41 0 39 0;
#X connect 41 0 40 0;
#X connect 42 0 40 1;
#X connect 43 0 40 2;
#X connect 44 0 40 3;
#X connect 45 0 40 4;
#X connect 46 0 55 0;
#X connect 47 0 46 1;
#X connect 48 0 46 0;
#X connect 48 0 47 0;
#X connect 49 0 47 1;
#X connect 50 0 47 2;
#X connect 51 0 47 3;
#X connect 52 0 47 4;
#X connect 53 0 62 0;
#X connect 54 0 53 1;
#X connect 55 0 53 0;
#X connect 55 0 54 0;
#X connect 56 0 54 1;
#X connect 57 0 54 2;
#X connect 58 0 54 3;
#X connect 59 0 54 4;
#X connect 60 0 69 0;
#X connect 61 0 60 1;
#X connect 62 0 60 0;
#X connect 62 0 61 0;
#X connect 63 0 61 1;
#X connect 64 0 61 2;
#X connect 65 0 61 3;
#X connect 66 0 61 4;
#X connect 67 0 76 0;
#X connect 68 0 67 1;
#X connect 69 0 67 0;
#X connect 69 0 68 0;
#X connect 70 0 68 1;
#X connect 71 0 68 2;
#X connect 72 0 68 3;
#X connect 73 0 68 4;
#X connect 74 0 83 0;
#X connect 75 0 74 1;
#X connect 76 0 74 0;
#X connect 76 0 75 0;
#X connect 77 0 75 1;
#X connect 78 0 75 2;
#X connect 79 0 75 3;
#X connect 80 0 75 4;
#X connect 81 0 90 0;
#X connect 82 0 81 1;
#X connect 83 0 81 0;
#X connect 83 0 82 0;
#X connect 84 0 82 1;
#X connect 85 0 82 2;
#X connect 86 0 82 3;
#X connect 87 0 82 4;
#X connect 88 0 97 0;
#X connect 89 0 88 1;
#X connect 90 0 88 0;
#X connect 90 0 89 0;
#X connect 91 0 89 1;
#X connect 92 0 89 2;
#X connect 93 0 89 3;
#X connect 94 0 89 4;
#X connect 95 0 104 0;
#X connect 96 0 95 1;
#X connect 97 0 95 0;
#X connect 97 0 96 0;
#X connect 98 0 96 1;
#X connect 99 0 96 2;
#X connect 100 0 96 3;
#X connect 101 0 96 4;
#X connect 102 0 110 0;
#X connect 103 0 102 1;
#X connect 104 0 102 0;
#X connect 104 0 103 0;
#X connect 105 0 103 1;
#X connect 106 0 103 2;
#X connect 107 0 103 3;
#X connect 108 0 103 4;
#X connect 110 0 6 0;
#X connect 111 0 109 0;
#X connect 111 1 112 0;
#X connect 112 0 114 0;
#X connect 113 0 110 1;
#X connect 114 0 113 0;
#X restore 458 377 pd fifteen;
#X connect 0 0 1 1;
#X connect 1 0 13 1;
#X connect 2 0 3 0;
#X connect 2 0 3 1;
#X connect 4 0 5 0;
#X connect 5 0 1 0;
#X connect 6 0 7 0;
#X connect 7 0 8 0;
#X connect 8 0 2 1;
#X connect 9 0 10 0;
#X connect 10 0 13 0;
#X connect 11 0 10 1;
#X connect 13 0 16 0;
#X connect 14 0 1 0;
#X connect 15 0 1 0;
#X connect 18 0 2 0;
#X connect 20 0 19 0;
#X connect 22 0 21 0;
#X connect 24 0 23 0;
#X connect 25 0 23 0;
#X connect 27 0 26 0;
#X connect 28 0 23 0;
#X connect 31 0 30 0;
#X connect 32 0 33 0;
#X connect 34 0 35 0;
#X connect 36 0 37 0;
#X connect 38 0 39 0;
#X connect 40 0 41 0;
#X connect 42 0 43 0;
#X connect 44 0 45 0;
