#N canvas 600 100 1205 751 12;
#X obj 328 121 tgl 15 0 empty empty empty 17 7 0 10 -262144 -1 -1 1
1;
#X obj 254 143 abs/player~;
#X obj 930 688 *~;
#X obj 921 718 dac~;
#X msg 293 14 bang;
#X obj 293 45 openpanel;
#X obj 971 647 hsl 128 15 0 127 0 0 empty empty vol -2 -8 0 10 -262144
-1 -1 9400 1;
#X obj 968 667 dbtorms;
#X floatatom 968 692 5 0 0 0 - - -;
#X obj 82 93 adc~;
#X obj 82 140 *~;
#X floatatom 100 117 5 0 0 0 - - -;
#X text 15 175 use headphones...;
#X obj 236 193 +~;
#X msg 298 71 ../../../samples/henry5.wav;
#X msg 308 95 ../../../samples/la-vaca-cega-eva.wav;
#N canvas 72 402 549 316 one 0;
#X obj 28 194 +~;
#X obj 47 162 disco~ C ionian 440 20 15 0;
#X obj 28 134 *~ 0.707;
#X obj 417 55 switch~;
#X obj 417 36 tgl 15 0 empty empty empty 17 7 0 10 -262144 -1 -1 0
1;
#X obj 417 9 inlet on;
#X obj 28 21 r~ input;
#X obj 28 268 throw~ output;
#X obj 93 130 r key;
#X obj 134 130 r scale;
#X obj 189 131 r t_smooth;
#X obj 266 131 r transpose;
#X connect 0 0 7 0;
#X connect 1 0 0 1;
#X connect 2 0 0 0;
#X connect 2 0 1 0;
#X connect 4 0 3 0;
#X connect 5 0 4 0;
#X connect 6 0 2 0;
#X connect 8 0 1 1;
#X connect 9 0 1 2;
#X connect 10 0 1 3;
#X connect 11 0 1 4;
#X restore 53 377 pd one;
#X obj 236 221 s~ input;
#X obj 53 357 tgl 15 0 empty empty empty 17 7 0 10 -262144 -1 -1 0
1;
#X text 54 327 all same parameters;
#X obj 929 607 catch~ output;
#X obj 1040 134 s transpose;
#X floatatom 1040 110 5 0 0 0 - - -;
#X obj 785 137 s key;
#X msg 785 100 C;
#X obj 868 135 s scale;
#X msg 870 103 chromatic;
#X msg 864 67 wholetone;
#X obj 958 134 s t_smooth;
#X floatatom 958 110 5 0 0 0 - - -;
#X obj 103 357 tgl 15 0 empty empty empty 17 7 0 10 -262144 -1 -1 0
1;
#N canvas 72 402 549 316 two 0;
#X obj 28 114 +~;
#X obj 47 82 disco~ C ionian 440 20 15 0;
#X obj 28 54 *~ 0.707;
#X obj 417 55 switch~;
#X obj 417 36 tgl 15 0 empty empty empty 17 7 0 10 -262144 -1 -1 0
1;
#X obj 417 9 inlet on;
#X obj 28 21 r~ input;
#X obj 28 268 throw~ output;
#X obj 93 54 r key;
#X obj 134 54 r scale;
#X obj 189 54 r t_smooth;
#X obj 266 54 r transpose;
#X obj 28 204 +~;
#X obj 47 172 disco~ C ionian 440 20 15 0;
#X obj 28 144 *~ 0.707;
#X obj 93 145 r key;
#X obj 134 145 r scale;
#X obj 189 145 r t_smooth;
#X obj 266 145 r transpose;
#X connect 0 0 14 0;
#X connect 1 0 0 1;
#X connect 2 0 0 0;
#X connect 2 0 1 0;
#X connect 4 0 3 0;
#X connect 5 0 4 0;
#X connect 6 0 2 0;
#X connect 8 0 1 1;
#X connect 9 0 1 2;
#X connect 10 0 1 3;
#X connect 11 0 1 4;
#X connect 12 0 7 0;
#X connect 13 0 12 1;
#X connect 14 0 12 0;
#X connect 14 0 13 0;
#X connect 15 0 13 1;
#X connect 16 0 13 2;
#X connect 17 0 13 3;
#X connect 18 0 13 4;
#X restore 103 377 pd two;
#X obj 153 357 tgl 15 0 empty empty empty 17 7 0 10 -262144 -1 -1 0
1;
#N canvas 72 394 549 479 three 0;
#X obj 28 114 +~;
#X obj 47 82 disco~ C ionian 440 20 15 0;
#X obj 28 54 *~ 0.707;
#X obj 417 55 switch~;
#X obj 417 36 tgl 15 0 empty empty empty 17 7 0 10 -262144 -1 -1 0
1;
#X obj 417 9 inlet on;
#X obj 28 21 r~ input;
#X obj 28 358 throw~ output;
#X obj 93 54 r key;
#X obj 134 54 r scale;
#X obj 189 54 r t_smooth;
#X obj 266 54 r transpose;
#X obj 28 204 +~;
#X obj 47 172 disco~ C ionian 440 20 15 0;
#X obj 28 144 *~ 0.707;
#X obj 93 145 r key;
#X obj 134 145 r scale;
#X obj 189 145 r t_smooth;
#X obj 266 145 r transpose;
#X obj 28 304 +~;
#X obj 47 272 disco~ C ionian 440 20 15 0;
#X obj 28 244 *~ 0.707;
#X obj 93 245 r key;
#X obj 134 245 r scale;
#X obj 189 245 r t_smooth;
#X obj 266 245 r transpose;
#X connect 0 0 14 0;
#X connect 1 0 0 1;
#X connect 2 0 0 0;
#X connect 2 0 1 0;
#X connect 4 0 3 0;
#X connect 5 0 4 0;
#X connect 6 0 2 0;
#X connect 8 0 1 1;
#X connect 9 0 1 2;
#X connect 10 0 1 3;
#X connect 11 0 1 4;
#X connect 12 0 21 0;
#X connect 13 0 12 1;
#X connect 14 0 12 0;
#X connect 14 0 13 0;
#X connect 15 0 13 1;
#X connect 16 0 13 2;
#X connect 17 0 13 3;
#X connect 18 0 13 4;
#X connect 19 0 7 0;
#X connect 20 0 19 1;
#X connect 21 0 19 0;
#X connect 21 0 20 0;
#X connect 22 0 20 1;
#X connect 23 0 20 2;
#X connect 24 0 20 3;
#X connect 25 0 20 4;
#X restore 153 377 pd three;
#X obj 218 357 tgl 15 0 empty empty empty 17 7 0 10 -262144 -1 -1 0
1;
#N canvas 72 378 549 479 four 0;
#X obj 28 114 +~;
#X obj 47 82 disco~ C ionian 440 20 15 0;
#X obj 28 54 *~ 0.707;
#X obj 417 55 switch~;
#X obj 417 36 tgl 15 0 empty empty empty 17 7 0 10 -262144 -1 -1 0
1;
#X obj 417 9 inlet on;
#X obj 28 21 r~ input;
#X obj 28 448 throw~ output;
#X obj 93 54 r key;
#X obj 134 54 r scale;
#X obj 189 54 r t_smooth;
#X obj 266 54 r transpose;
#X obj 28 204 +~;
#X obj 47 172 disco~ C ionian 440 20 15 0;
#X obj 28 144 *~ 0.707;
#X obj 93 145 r key;
#X obj 134 145 r scale;
#X obj 189 145 r t_smooth;
#X obj 266 145 r transpose;
#X obj 28 294 +~;
#X obj 47 262 disco~ C ionian 440 20 15 0;
#X obj 28 234 *~ 0.707;
#X obj 93 235 r key;
#X obj 134 235 r scale;
#X obj 189 235 r t_smooth;
#X obj 266 235 r transpose;
#X obj 28 385 +~;
#X obj 47 353 disco~ C ionian 440 20 15 0;
#X obj 28 325 *~ 0.707;
#X obj 93 326 r key;
#X obj 134 326 r scale;
#X obj 189 326 r t_smooth;
#X obj 266 326 r transpose;
#X connect 0 0 14 0;
#X connect 1 0 0 1;
#X connect 2 0 0 0;
#X connect 2 0 1 0;
#X connect 4 0 3 0;
#X connect 5 0 4 0;
#X connect 6 0 2 0;
#X connect 8 0 1 1;
#X connect 9 0 1 2;
#X connect 10 0 1 3;
#X connect 11 0 1 4;
#X connect 12 0 21 0;
#X connect 13 0 12 1;
#X connect 14 0 12 0;
#X connect 14 0 13 0;
#X connect 15 0 13 1;
#X connect 16 0 13 2;
#X connect 17 0 13 3;
#X connect 18 0 13 4;
#X connect 19 0 28 0;
#X connect 20 0 19 1;
#X connect 21 0 19 0;
#X connect 21 0 20 0;
#X connect 22 0 20 1;
#X connect 23 0 20 2;
#X connect 24 0 20 3;
#X connect 25 0 20 4;
#X connect 26 0 7 0;
#X connect 27 0 26 1;
#X connect 28 0 26 0;
#X connect 28 0 27 0;
#X connect 29 0 27 1;
#X connect 30 0 27 2;
#X connect 31 0 27 3;
#X connect 32 0 27 4;
#X restore 218 377 pd four;
#X obj 278 357 tgl 15 0 empty empty empty 17 7 0 10 -262144 -1 -1 0
1;
#N canvas 72 370 549 660 six 0;
#X obj 28 114 +~;
#X obj 47 82 disco~ C ionian 440 20 15 0;
#X obj 28 54 *~ 0.707;
#X obj 417 55 switch~;
#X obj 417 36 tgl 15 0 empty empty empty 17 7 0 10 -262144 -1 -1 0
1;
#X obj 417 9 inlet on;
#X obj 28 21 r~ input;
#X obj 28 618 throw~ output;
#X obj 93 54 r key;
#X obj 134 54 r scale;
#X obj 189 54 r t_smooth;
#X obj 266 54 r transpose;
#X obj 28 204 +~;
#X obj 47 172 disco~ C ionian 440 20 15 0;
#X obj 28 144 *~ 0.707;
#X obj 93 145 r key;
#X obj 134 145 r scale;
#X obj 189 145 r t_smooth;
#X obj 266 145 r transpose;
#X obj 28 294 +~;
#X obj 47 262 disco~ C ionian 440 20 15 0;
#X obj 28 234 *~ 0.707;
#X obj 93 235 r key;
#X obj 134 235 r scale;
#X obj 189 235 r t_smooth;
#X obj 266 235 r transpose;
#X obj 28 385 +~;
#X obj 47 353 disco~ C ionian 440 20 15 0;
#X obj 28 325 *~ 0.707;
#X obj 93 326 r key;
#X obj 134 326 r scale;
#X obj 189 326 r t_smooth;
#X obj 266 326 r transpose;
#X obj 28 474 +~;
#X obj 47 442 disco~ C ionian 440 20 15 0;
#X obj 28 414 *~ 0.707;
#X obj 93 415 r key;
#X obj 134 415 r scale;
#X obj 189 415 r t_smooth;
#X obj 266 415 r transpose;
#X obj 28 565 +~;
#X obj 47 533 disco~ C ionian 440 20 15 0;
#X obj 28 505 *~ 0.707;
#X obj 93 506 r key;
#X obj 134 506 r scale;
#X obj 189 506 r t_smooth;
#X obj 266 506 r transpose;
#X connect 0 0 14 0;
#X connect 1 0 0 1;
#X connect 2 0 0 0;
#X connect 2 0 1 0;
#X connect 4 0 3 0;
#X connect 5 0 4 0;
#X connect 6 0 2 0;
#X connect 8 0 1 1;
#X connect 9 0 1 2;
#X connect 10 0 1 3;
#X connect 11 0 1 4;
#X connect 12 0 21 0;
#X connect 13 0 12 1;
#X connect 14 0 12 0;
#X connect 14 0 13 0;
#X connect 15 0 13 1;
#X connect 16 0 13 2;
#X connect 17 0 13 3;
#X connect 18 0 13 4;
#X connect 19 0 28 0;
#X connect 20 0 19 1;
#X connect 21 0 19 0;
#X connect 21 0 20 0;
#X connect 22 0 20 1;
#X connect 23 0 20 2;
#X connect 24 0 20 3;
#X connect 25 0 20 4;
#X connect 26 0 35 0;
#X connect 27 0 26 1;
#X connect 28 0 26 0;
#X connect 28 0 27 0;
#X connect 29 0 27 1;
#X connect 30 0 27 2;
#X connect 31 0 27 3;
#X connect 32 0 27 4;
#X connect 33 0 42 0;
#X connect 34 0 33 1;
#X connect 35 0 33 0;
#X connect 35 0 34 0;
#X connect 36 0 34 1;
#X connect 37 0 34 2;
#X connect 38 0 34 3;
#X connect 39 0 34 4;
#X connect 40 0 7 0;
#X connect 41 0 40 1;
#X connect 42 0 40 0;
#X connect 42 0 41 0;
#X connect 43 0 41 1;
#X connect 44 0 41 2;
#X connect 45 0 41 3;
#X connect 46 0 41 4;
#X restore 278 377 pd six;
#X obj 328 357 tgl 15 0 empty empty empty 17 7 0 10 -262144 -1 -1 0
1;
#N canvas 72 96 549 964 eight 0;
#X obj 28 114 +~;
#X obj 47 82 disco~ C ionian 440 20 15 0;
#X obj 28 54 *~ 0.707;
#X obj 417 55 switch~;
#X obj 417 36 tgl 15 0 empty empty empty 17 7 0 10 -262144 -1 -1 0
1;
#X obj 417 9 inlet on;
#X obj 28 21 r~ input;
#X obj 28 928 throw~ output;
#X obj 93 54 r key;
#X obj 134 54 r scale;
#X obj 189 54 r t_smooth;
#X obj 266 54 r transpose;
#X obj 28 204 +~;
#X obj 47 172 disco~ C ionian 440 20 15 0;
#X obj 28 144 *~ 0.707;
#X obj 93 145 r key;
#X obj 134 145 r scale;
#X obj 189 145 r t_smooth;
#X obj 266 145 r transpose;
#X obj 28 294 +~;
#X obj 47 262 disco~ C ionian 440 20 15 0;
#X obj 28 234 *~ 0.707;
#X obj 93 235 r key;
#X obj 134 235 r scale;
#X obj 189 235 r t_smooth;
#X obj 266 235 r transpose;
#X obj 28 385 +~;
#X obj 47 353 disco~ C ionian 440 20 15 0;
#X obj 28 325 *~ 0.707;
#X obj 93 326 r key;
#X obj 134 326 r scale;
#X obj 189 326 r t_smooth;
#X obj 266 326 r transpose;
#X obj 28 474 +~;
#X obj 47 442 disco~ C ionian 440 20 15 0;
#X obj 28 414 *~ 0.707;
#X obj 93 415 r key;
#X obj 134 415 r scale;
#X obj 189 415 r t_smooth;
#X obj 266 415 r transpose;
#X obj 28 565 +~;
#X obj 47 533 disco~ C ionian 440 20 15 0;
#X obj 28 505 *~ 0.707;
#X obj 93 506 r key;
#X obj 134 506 r scale;
#X obj 189 506 r t_smooth;
#X obj 266 506 r transpose;
#X obj 28 654 +~;
#X obj 47 622 disco~ C ionian 440 20 15 0;
#X obj 28 594 *~ 0.707;
#X obj 93 595 r key;
#X obj 134 595 r scale;
#X obj 189 595 r t_smooth;
#X obj 266 595 r transpose;
#X obj 28 745 +~;
#X obj 47 713 disco~ C ionian 440 20 15 0;
#X obj 28 685 *~ 0.707;
#X obj 93 686 r key;
#X obj 134 686 r scale;
#X obj 189 686 r t_smooth;
#X obj 266 686 r transpose;
#X connect 0 0 14 0;
#X connect 1 0 0 1;
#X connect 2 0 0 0;
#X connect 2 0 1 0;
#X connect 4 0 3 0;
#X connect 5 0 4 0;
#X connect 6 0 2 0;
#X connect 8 0 1 1;
#X connect 9 0 1 2;
#X connect 10 0 1 3;
#X connect 11 0 1 4;
#X connect 12 0 21 0;
#X connect 13 0 12 1;
#X connect 14 0 12 0;
#X connect 14 0 13 0;
#X connect 15 0 13 1;
#X connect 16 0 13 2;
#X connect 17 0 13 3;
#X connect 18 0 13 4;
#X connect 19 0 28 0;
#X connect 20 0 19 1;
#X connect 21 0 19 0;
#X connect 21 0 20 0;
#X connect 22 0 20 1;
#X connect 23 0 20 2;
#X connect 24 0 20 3;
#X connect 25 0 20 4;
#X connect 26 0 35 0;
#X connect 27 0 26 1;
#X connect 28 0 26 0;
#X connect 28 0 27 0;
#X connect 29 0 27 1;
#X connect 30 0 27 2;
#X connect 31 0 27 3;
#X connect 32 0 27 4;
#X connect 33 0 42 0;
#X connect 34 0 33 1;
#X connect 35 0 33 0;
#X connect 35 0 34 0;
#X connect 36 0 34 1;
#X connect 37 0 34 2;
#X connect 38 0 34 3;
#X connect 39 0 34 4;
#X connect 40 0 49 0;
#X connect 41 0 40 1;
#X connect 42 0 40 0;
#X connect 42 0 41 0;
#X connect 43 0 41 1;
#X connect 44 0 41 2;
#X connect 45 0 41 3;
#X connect 46 0 41 4;
#X connect 47 0 56 0;
#X connect 48 0 47 1;
#X connect 49 0 47 0;
#X connect 49 0 48 0;
#X connect 50 0 48 1;
#X connect 51 0 48 2;
#X connect 52 0 48 3;
#X connect 53 0 48 4;
#X connect 54 0 7 0;
#X connect 55 0 54 1;
#X connect 56 0 54 0;
#X connect 56 0 55 0;
#X connect 57 0 55 1;
#X connect 58 0 55 2;
#X connect 59 0 55 3;
#X connect 60 0 55 4;
#X restore 328 377 pd eight;
#X obj 398 357 tgl 15 0 empty empty empty 17 7 0 10 -262144 -1 -1 0
1;
#N canvas 72 96 549 982 ten 0;
#X obj 28 114 +~;
#X obj 47 82 disco~ C ionian 440 20 15 0;
#X obj 28 54 *~ 0.707;
#X obj 417 55 switch~;
#X obj 417 36 tgl 15 0 empty empty empty 17 7 0 10 -262144 -1 -1 0
1;
#X obj 417 9 inlet on;
#X obj 28 21 r~ input;
#X obj 28 958 throw~ output;
#X obj 93 54 r key;
#X obj 134 54 r scale;
#X obj 189 54 r t_smooth;
#X obj 266 54 r transpose;
#X obj 28 204 +~;
#X obj 47 172 disco~ C ionian 440 20 15 0;
#X obj 28 144 *~ 0.707;
#X obj 93 145 r key;
#X obj 134 145 r scale;
#X obj 189 145 r t_smooth;
#X obj 266 145 r transpose;
#X obj 28 294 +~;
#X obj 47 262 disco~ C ionian 440 20 15 0;
#X obj 28 234 *~ 0.707;
#X obj 93 235 r key;
#X obj 134 235 r scale;
#X obj 189 235 r t_smooth;
#X obj 266 235 r transpose;
#X obj 28 385 +~;
#X obj 47 353 disco~ C ionian 440 20 15 0;
#X obj 28 325 *~ 0.707;
#X obj 93 326 r key;
#X obj 134 326 r scale;
#X obj 189 326 r t_smooth;
#X obj 266 326 r transpose;
#X obj 28 474 +~;
#X obj 47 442 disco~ C ionian 440 20 15 0;
#X obj 28 414 *~ 0.707;
#X obj 93 415 r key;
#X obj 134 415 r scale;
#X obj 189 415 r t_smooth;
#X obj 266 415 r transpose;
#X obj 28 565 +~;
#X obj 47 533 disco~ C ionian 440 20 15 0;
#X obj 28 505 *~ 0.707;
#X obj 93 506 r key;
#X obj 134 506 r scale;
#X obj 189 506 r t_smooth;
#X obj 266 506 r transpose;
#X obj 28 654 +~;
#X obj 47 622 disco~ C ionian 440 20 15 0;
#X obj 28 594 *~ 0.707;
#X obj 93 595 r key;
#X obj 134 595 r scale;
#X obj 189 595 r t_smooth;
#X obj 266 595 r transpose;
#X obj 28 745 +~;
#X obj 47 713 disco~ C ionian 440 20 15 0;
#X obj 28 685 *~ 0.707;
#X obj 93 686 r key;
#X obj 134 686 r scale;
#X obj 189 686 r t_smooth;
#X obj 266 686 r transpose;
#X obj 28 834 +~;
#X obj 47 802 disco~ C ionian 440 20 15 0;
#X obj 28 774 *~ 0.707;
#X obj 93 775 r key;
#X obj 134 775 r scale;
#X obj 189 775 r t_smooth;
#X obj 266 775 r transpose;
#X obj 28 925 +~;
#X obj 47 893 disco~ C ionian 440 20 15 0;
#X obj 28 865 *~ 0.707;
#X obj 93 866 r key;
#X obj 134 866 r scale;
#X obj 189 866 r t_smooth;
#X obj 266 866 r transpose;
#X connect 0 0 14 0;
#X connect 1 0 0 1;
#X connect 2 0 0 0;
#X connect 2 0 1 0;
#X connect 4 0 3 0;
#X connect 5 0 4 0;
#X connect 6 0 2 0;
#X connect 8 0 1 1;
#X connect 9 0 1 2;
#X connect 10 0 1 3;
#X connect 11 0 1 4;
#X connect 12 0 21 0;
#X connect 13 0 12 1;
#X connect 14 0 12 0;
#X connect 14 0 13 0;
#X connect 15 0 13 1;
#X connect 16 0 13 2;
#X connect 17 0 13 3;
#X connect 18 0 13 4;
#X connect 19 0 28 0;
#X connect 20 0 19 1;
#X connect 21 0 19 0;
#X connect 21 0 20 0;
#X connect 22 0 20 1;
#X connect 23 0 20 2;
#X connect 24 0 20 3;
#X connect 25 0 20 4;
#X connect 26 0 35 0;
#X connect 27 0 26 1;
#X connect 28 0 26 0;
#X connect 28 0 27 0;
#X connect 29 0 27 1;
#X connect 30 0 27 2;
#X connect 31 0 27 3;
#X connect 32 0 27 4;
#X connect 33 0 42 0;
#X connect 34 0 33 1;
#X connect 35 0 33 0;
#X connect 35 0 34 0;
#X connect 36 0 34 1;
#X connect 37 0 34 2;
#X connect 38 0 34 3;
#X connect 39 0 34 4;
#X connect 40 0 49 0;
#X connect 41 0 40 1;
#X connect 42 0 40 0;
#X connect 42 0 41 0;
#X connect 43 0 41 1;
#X connect 44 0 41 2;
#X connect 45 0 41 3;
#X connect 46 0 41 4;
#X connect 47 0 56 0;
#X connect 48 0 47 1;
#X connect 49 0 47 0;
#X connect 49 0 48 0;
#X connect 50 0 48 1;
#X connect 51 0 48 2;
#X connect 52 0 48 3;
#X connect 53 0 48 4;
#X connect 54 0 63 0;
#X connect 55 0 54 1;
#X connect 56 0 54 0;
#X connect 56 0 55 0;
#X connect 57 0 55 1;
#X connect 58 0 55 2;
#X connect 59 0 55 3;
#X connect 60 0 55 4;
#X connect 61 0 70 0;
#X connect 62 0 61 1;
#X connect 63 0 61 0;
#X connect 63 0 62 0;
#X connect 64 0 62 1;
#X connect 65 0 62 2;
#X connect 66 0 62 3;
#X connect 67 0 62 4;
#X connect 68 0 7 0;
#X connect 69 0 68 1;
#X connect 70 0 68 0;
#X connect 70 0 69 0;
#X connect 71 0 69 1;
#X connect 72 0 69 2;
#X connect 73 0 69 3;
#X connect 74 0 69 4;
#X restore 398 377 pd ten;
#X obj 458 357 tgl 15 0 empty empty empty 17 7 0 10 -262144 -1 -1 0
1;
#N canvas 72 96 1065 982 fifteen 0;
#X obj 28 114 +~;
#X obj 47 82 disco~ C ionian 440 20 15 0;
#X obj 28 54 *~ 0.707;
#X obj 417 55 switch~;
#X obj 417 36 tgl 15 0 empty empty empty 17 7 0 10 -262144 -1 -1 0
1;
#X obj 417 9 inlet on;
#X obj 28 21 r~ input;
#X obj 422 610 throw~ output;
#X obj 93 54 r key;
#X obj 134 54 r scale;
#X obj 189 54 r t_smooth;
#X obj 266 54 r transpose;
#X obj 28 204 +~;
#X obj 47 172 disco~ C ionian 440 20 15 0;
#X obj 28 144 *~ 0.707;
#X obj 93 145 r key;
#X obj 134 145 r scale;
#X obj 189 145 r t_smooth;
#X obj 266 145 r transpose;
#X obj 28 294 +~;
#X obj 47 262 disco~ C ionian 440 20 15 0;
#X obj 28 234 *~ 0.707;
#X obj 93 235 r key;
#X obj 134 235 r scale;
#X obj 189 235 r t_smooth;
#X obj 266 235 r transpose;
#X obj 28 385 +~;
#X obj 47 353 disco~ C ionian 440 20 15 0;
#X obj 28 325 *~ 0.707;
#X obj 93 326 r key;
#X obj 134 326 r scale;
#X obj 189 326 r t_smooth;
#X obj 266 326 r transpose;
#X obj 28 474 +~;
#X obj 47 442 disco~ C ionian 440 20 15 0;
#X obj 28 414 *~ 0.707;
#X obj 93 415 r key;
#X obj 134 415 r scale;
#X obj 189 415 r t_smooth;
#X obj 266 415 r transpose;
#X obj 28 565 +~;
#X obj 47 533 disco~ C ionian 440 20 15 0;
#X obj 28 505 *~ 0.707;
#X obj 93 506 r key;
#X obj 134 506 r scale;
#X obj 189 506 r t_smooth;
#X obj 266 506 r transpose;
#X obj 28 654 +~;
#X obj 47 622 disco~ C ionian 440 20 15 0;
#X obj 28 594 *~ 0.707;
#X obj 93 595 r key;
#X obj 134 595 r scale;
#X obj 189 595 r t_smooth;
#X obj 266 595 r transpose;
#X obj 28 745 +~;
#X obj 47 713 disco~ C ionian 440 20 15 0;
#X obj 28 685 *~ 0.707;
#X obj 93 686 r key;
#X obj 134 686 r scale;
#X obj 189 686 r t_smooth;
#X obj 266 686 r transpose;
#X obj 28 834 +~;
#X obj 47 802 disco~ C ionian 440 20 15 0;
#X obj 28 774 *~ 0.707;
#X obj 93 775 r key;
#X obj 134 775 r scale;
#X obj 189 775 r t_smooth;
#X obj 266 775 r transpose;
#X obj 28 925 +~;
#X obj 47 893 disco~ C ionian 440 20 15 0;
#X obj 28 865 *~ 0.707;
#X obj 93 866 r key;
#X obj 134 866 r scale;
#X obj 189 866 r t_smooth;
#X obj 266 866 r transpose;
#X obj 420 196 +~;
#X obj 439 164 disco~ C ionian 440 20 15 0;
#X obj 420 136 *~ 0.707;
#X obj 485 137 r key;
#X obj 526 137 r scale;
#X obj 581 137 r t_smooth;
#X obj 658 137 r transpose;
#X obj 420 285 +~;
#X obj 439 253 disco~ C ionian 440 20 15 0;
#X obj 420 225 *~ 0.707;
#X obj 485 226 r key;
#X obj 526 226 r scale;
#X obj 581 226 r t_smooth;
#X obj 658 226 r transpose;
#X obj 420 376 +~;
#X obj 439 344 disco~ C ionian 440 20 15 0;
#X obj 420 316 *~ 0.707;
#X obj 485 317 r key;
#X obj 526 317 r scale;
#X obj 581 317 r t_smooth;
#X obj 658 317 r transpose;
#X obj 420 465 +~;
#X obj 439 433 disco~ C ionian 440 20 15 0;
#X obj 420 405 *~ 0.707;
#X obj 485 406 r key;
#X obj 526 406 r scale;
#X obj 581 406 r t_smooth;
#X obj 658 406 r transpose;
#X obj 420 556 +~;
#X obj 439 524 disco~ C ionian 440 20 15 0;
#X obj 420 496 *~ 0.707;
#X obj 485 497 r key;
#X obj 526 497 r scale;
#X obj 581 497 r t_smooth;
#X obj 658 497 r transpose;
#X connect 0 0 14 0;
#X connect 1 0 0 1;
#X connect 2 0 0 0;
#X connect 2 0 1 0;
#X connect 4 0 3 0;
#X connect 5 0 4 0;
#X connect 6 0 2 0;
#X connect 8 0 1 1;
#X connect 9 0 1 2;
#X connect 10 0 1 3;
#X connect 11 0 1 4;
#X connect 12 0 21 0;
#X connect 13 0 12 1;
#X connect 14 0 12 0;
#X connect 14 0 13 0;
#X connect 15 0 13 1;
#X connect 16 0 13 2;
#X connect 17 0 13 3;
#X connect 18 0 13 4;
#X connect 19 0 28 0;
#X connect 20 0 19 1;
#X connect 21 0 19 0;
#X connect 21 0 20 0;
#X connect 22 0 20 1;
#X connect 23 0 20 2;
#X connect 24 0 20 3;
#X connect 25 0 20 4;
#X connect 26 0 35 0;
#X connect 27 0 26 1;
#X connect 28 0 26 0;
#X connect 28 0 27 0;
#X connect 29 0 27 1;
#X connect 30 0 27 2;
#X connect 31 0 27 3;
#X connect 32 0 27 4;
#X connect 33 0 42 0;
#X connect 34 0 33 1;
#X connect 35 0 33 0;
#X connect 35 0 34 0;
#X connect 36 0 34 1;
#X connect 37 0 34 2;
#X connect 38 0 34 3;
#X connect 39 0 34 4;
#X connect 40 0 49 0;
#X connect 41 0 40 1;
#X connect 42 0 40 0;
#X connect 42 0 41 0;
#X connect 43 0 41 1;
#X connect 44 0 41 2;
#X connect 45 0 41 3;
#X connect 46 0 41 4;
#X connect 47 0 56 0;
#X connect 48 0 47 1;
#X connect 49 0 47 0;
#X connect 49 0 48 0;
#X connect 50 0 48 1;
#X connect 51 0 48 2;
#X connect 52 0 48 3;
#X connect 53 0 48 4;
#X connect 54 0 63 0;
#X connect 55 0 54 1;
#X connect 56 0 54 0;
#X connect 56 0 55 0;
#X connect 57 0 55 1;
#X connect 58 0 55 2;
#X connect 59 0 55 3;
#X connect 60 0 55 4;
#X connect 61 0 70 0;
#X connect 62 0 61 1;
#X connect 63 0 61 0;
#X connect 63 0 62 0;
#X connect 64 0 62 1;
#X connect 65 0 62 2;
#X connect 66 0 62 3;
#X connect 67 0 62 4;
#X connect 68 0 77 0;
#X connect 69 0 68 1;
#X connect 70 0 68 0;
#X connect 70 0 69 0;
#X connect 71 0 69 1;
#X connect 72 0 69 2;
#X connect 73 0 69 3;
#X connect 74 0 69 4;
#X connect 75 0 84 0;
#X connect 76 0 75 1;
#X connect 77 0 75 0;
#X connect 77 0 76 0;
#X connect 78 0 76 1;
#X connect 79 0 76 2;
#X connect 80 0 76 3;
#X connect 81 0 76 4;
#X connect 82 0 91 0;
#X connect 83 0 82 1;
#X connect 84 0 82 0;
#X connect 84 0 83 0;
#X connect 85 0 83 1;
#X connect 86 0 83 2;
#X connect 87 0 83 3;
#X connect 88 0 83 4;
#X connect 89 0 98 0;
#X connect 90 0 89 1;
#X connect 91 0 89 0;
#X connect 91 0 90 0;
#X connect 92 0 90 1;
#X connect 93 0 90 2;
#X connect 94 0 90 3;
#X connect 95 0 90 4;
#X connect 96 0 105 0;
#X connect 97 0 96 1;
#X connect 98 0 96 0;
#X connect 98 0 97 0;
#X connect 99 0 97 1;
#X connect 100 0 97 2;
#X connect 101 0 97 3;
#X connect 102 0 97 4;
#X connect 103 0 7 0;
#X connect 104 0 103 1;
#X connect 105 0 103 0;
#X connect 105 0 104 0;
#X connect 106 0 104 1;
#X connect 107 0 104 2;
#X connect 108 0 104 3;
#X connect 109 0 104 4;
#X restore 458 377 pd fifteen;
#X obj 538 357 tgl 15 0 empty empty empty 17 7 0 10 -262144 -1 -1 0
1;
#N canvas 72 96 1065 982 twenty 0;
#X obj 28 114 +~;
#X obj 47 82 disco~ C ionian 440 20 15 0;
#X obj 28 54 *~ 0.707;
#X obj 977 90 switch~;
#X obj 977 71 tgl 15 0 empty empty empty 17 7 0 10 -262144 -1 -1 0
1;
#X obj 977 44 inlet on;
#X obj 28 21 r~ input;
#X obj 420 953 throw~ output;
#X obj 93 54 r key;
#X obj 134 54 r scale;
#X obj 189 54 r t_smooth;
#X obj 266 54 r transpose;
#X obj 28 204 +~;
#X obj 47 172 disco~ C ionian 440 20 15 0;
#X obj 28 144 *~ 0.707;
#X obj 93 145 r key;
#X obj 134 145 r scale;
#X obj 189 145 r t_smooth;
#X obj 266 145 r transpose;
#X obj 28 294 +~;
#X obj 47 262 disco~ C ionian 440 20 15 0;
#X obj 28 234 *~ 0.707;
#X obj 93 235 r key;
#X obj 134 235 r scale;
#X obj 189 235 r t_smooth;
#X obj 266 235 r transpose;
#X obj 28 385 +~;
#X obj 47 353 disco~ C ionian 440 20 15 0;
#X obj 28 325 *~ 0.707;
#X obj 93 326 r key;
#X obj 134 326 r scale;
#X obj 189 326 r t_smooth;
#X obj 266 326 r transpose;
#X obj 28 474 +~;
#X obj 47 442 disco~ C ionian 440 20 15 0;
#X obj 28 414 *~ 0.707;
#X obj 93 415 r key;
#X obj 134 415 r scale;
#X obj 189 415 r t_smooth;
#X obj 266 415 r transpose;
#X obj 28 565 +~;
#X obj 47 533 disco~ C ionian 440 20 15 0;
#X obj 28 505 *~ 0.707;
#X obj 93 506 r key;
#X obj 134 506 r scale;
#X obj 189 506 r t_smooth;
#X obj 266 506 r transpose;
#X obj 28 654 +~;
#X obj 47 622 disco~ C ionian 440 20 15 0;
#X obj 28 594 *~ 0.707;
#X obj 93 595 r key;
#X obj 134 595 r scale;
#X obj 189 595 r t_smooth;
#X obj 266 595 r transpose;
#X obj 28 745 +~;
#X obj 47 713 disco~ C ionian 440 20 15 0;
#X obj 28 685 *~ 0.707;
#X obj 93 686 r key;
#X obj 134 686 r scale;
#X obj 189 686 r t_smooth;
#X obj 266 686 r transpose;
#X obj 28 834 +~;
#X obj 47 802 disco~ C ionian 440 20 15 0;
#X obj 28 774 *~ 0.707;
#X obj 93 775 r key;
#X obj 134 775 r scale;
#X obj 189 775 r t_smooth;
#X obj 266 775 r transpose;
#X obj 28 925 +~;
#X obj 47 893 disco~ C ionian 440 20 15 0;
#X obj 28 865 *~ 0.707;
#X obj 93 866 r key;
#X obj 134 866 r scale;
#X obj 189 866 r t_smooth;
#X obj 266 866 r transpose;
#X obj 420 116 +~;
#X obj 439 84 disco~ C ionian 440 20 15 0;
#X obj 420 56 *~ 0.707;
#X obj 485 57 r key;
#X obj 526 57 r scale;
#X obj 581 57 r t_smooth;
#X obj 658 57 r transpose;
#X obj 420 205 +~;
#X obj 439 173 disco~ C ionian 440 20 15 0;
#X obj 420 145 *~ 0.707;
#X obj 485 146 r key;
#X obj 526 146 r scale;
#X obj 581 146 r t_smooth;
#X obj 658 146 r transpose;
#X obj 420 296 +~;
#X obj 439 264 disco~ C ionian 440 20 15 0;
#X obj 420 236 *~ 0.707;
#X obj 485 237 r key;
#X obj 526 237 r scale;
#X obj 581 237 r t_smooth;
#X obj 658 237 r transpose;
#X obj 420 385 +~;
#X obj 439 353 disco~ C ionian 440 20 15 0;
#X obj 420 325 *~ 0.707;
#X obj 485 326 r key;
#X obj 526 326 r scale;
#X obj 581 326 r t_smooth;
#X obj 658 326 r transpose;
#X obj 420 476 +~;
#X obj 439 444 disco~ C ionian 440 20 15 0;
#X obj 420 416 *~ 0.707;
#X obj 485 417 r key;
#X obj 526 417 r scale;
#X obj 581 417 r t_smooth;
#X obj 658 417 r transpose;
#X obj 420 566 +~;
#X obj 439 534 disco~ C ionian 440 20 15 0;
#X obj 420 506 *~ 0.707;
#X obj 485 507 r key;
#X obj 526 507 r scale;
#X obj 581 507 r t_smooth;
#X obj 658 507 r transpose;
#X obj 420 655 +~;
#X obj 439 623 disco~ C ionian 440 20 15 0;
#X obj 420 595 *~ 0.707;
#X obj 485 596 r key;
#X obj 526 596 r scale;
#X obj 581 596 r t_smooth;
#X obj 658 596 r transpose;
#X obj 420 746 +~;
#X obj 439 714 disco~ C ionian 440 20 15 0;
#X obj 420 686 *~ 0.707;
#X obj 485 687 r key;
#X obj 526 687 r scale;
#X obj 581 687 r t_smooth;
#X obj 658 687 r transpose;
#X obj 420 835 +~;
#X obj 439 803 disco~ C ionian 440 20 15 0;
#X obj 420 775 *~ 0.707;
#X obj 485 776 r key;
#X obj 526 776 r scale;
#X obj 581 776 r t_smooth;
#X obj 658 776 r transpose;
#X obj 420 926 +~;
#X obj 439 894 disco~ C ionian 440 20 15 0;
#X obj 420 866 *~ 0.707;
#X obj 485 867 r key;
#X obj 526 867 r scale;
#X obj 581 867 r t_smooth;
#X obj 658 867 r transpose;
#X connect 0 0 14 0;
#X connect 1 0 0 1;
#X connect 2 0 0 0;
#X connect 2 0 1 0;
#X connect 4 0 3 0;
#X connect 5 0 4 0;
#X connect 6 0 2 0;
#X connect 8 0 1 1;
#X connect 9 0 1 2;
#X connect 10 0 1 3;
#X connect 11 0 1 4;
#X connect 12 0 21 0;
#X connect 13 0 12 1;
#X connect 14 0 12 0;
#X connect 14 0 13 0;
#X connect 15 0 13 1;
#X connect 16 0 13 2;
#X connect 17 0 13 3;
#X connect 18 0 13 4;
#X connect 19 0 28 0;
#X connect 20 0 19 1;
#X connect 21 0 19 0;
#X connect 21 0 20 0;
#X connect 22 0 20 1;
#X connect 23 0 20 2;
#X connect 24 0 20 3;
#X connect 25 0 20 4;
#X connect 26 0 35 0;
#X connect 27 0 26 1;
#X connect 28 0 26 0;
#X connect 28 0 27 0;
#X connect 29 0 27 1;
#X connect 30 0 27 2;
#X connect 31 0 27 3;
#X connect 32 0 27 4;
#X connect 33 0 42 0;
#X connect 34 0 33 1;
#X connect 35 0 33 0;
#X connect 35 0 34 0;
#X connect 36 0 34 1;
#X connect 37 0 34 2;
#X connect 38 0 34 3;
#X connect 39 0 34 4;
#X connect 40 0 49 0;
#X connect 41 0 40 1;
#X connect 42 0 40 0;
#X connect 42 0 41 0;
#X connect 43 0 41 1;
#X connect 44 0 41 2;
#X connect 45 0 41 3;
#X connect 46 0 41 4;
#X connect 47 0 56 0;
#X connect 48 0 47 1;
#X connect 49 0 47 0;
#X connect 49 0 48 0;
#X connect 50 0 48 1;
#X connect 51 0 48 2;
#X connect 52 0 48 3;
#X connect 53 0 48 4;
#X connect 54 0 63 0;
#X connect 55 0 54 1;
#X connect 56 0 54 0;
#X connect 56 0 55 0;
#X connect 57 0 55 1;
#X connect 58 0 55 2;
#X connect 59 0 55 3;
#X connect 60 0 55 4;
#X connect 61 0 70 0;
#X connect 62 0 61 1;
#X connect 63 0 61 0;
#X connect 63 0 62 0;
#X connect 64 0 62 1;
#X connect 65 0 62 2;
#X connect 66 0 62 3;
#X connect 67 0 62 4;
#X connect 68 0 77 0;
#X connect 69 0 68 1;
#X connect 70 0 68 0;
#X connect 70 0 69 0;
#X connect 71 0 69 1;
#X connect 72 0 69 2;
#X connect 73 0 69 3;
#X connect 74 0 69 4;
#X connect 75 0 84 0;
#X connect 76 0 75 1;
#X connect 77 0 75 0;
#X connect 77 0 76 0;
#X connect 78 0 76 1;
#X connect 79 0 76 2;
#X connect 80 0 76 3;
#X connect 81 0 76 4;
#X connect 82 0 91 0;
#X connect 83 0 82 1;
#X connect 84 0 82 0;
#X connect 84 0 83 0;
#X connect 85 0 83 1;
#X connect 86 0 83 2;
#X connect 87 0 83 3;
#X connect 88 0 83 4;
#X connect 89 0 98 0;
#X connect 90 0 89 1;
#X connect 91 0 89 0;
#X connect 91 0 90 0;
#X connect 92 0 90 1;
#X connect 93 0 90 2;
#X connect 94 0 90 3;
#X connect 95 0 90 4;
#X connect 96 0 105 0;
#X connect 97 0 96 1;
#X connect 98 0 96 0;
#X connect 98 0 97 0;
#X connect 99 0 97 1;
#X connect 100 0 97 2;
#X connect 101 0 97 3;
#X connect 102 0 97 4;
#X connect 103 0 112 0;
#X connect 104 0 103 1;
#X connect 105 0 103 0;
#X connect 105 0 104 0;
#X connect 106 0 104 1;
#X connect 107 0 104 2;
#X connect 108 0 104 3;
#X connect 109 0 104 4;
#X connect 110 0 119 0;
#X connect 111 0 110 1;
#X connect 112 0 110 0;
#X connect 112 0 111 0;
#X connect 113 0 111 1;
#X connect 114 0 111 2;
#X connect 115 0 111 3;
#X connect 116 0 111 4;
#X connect 117 0 126 0;
#X connect 118 0 117 1;
#X connect 119 0 117 0;
#X connect 119 0 118 0;
#X connect 120 0 118 1;
#X connect 121 0 118 2;
#X connect 122 0 118 3;
#X connect 123 0 118 4;
#X connect 124 0 133 0;
#X connect 125 0 124 1;
#X connect 126 0 124 0;
#X connect 126 0 125 0;
#X connect 127 0 125 1;
#X connect 128 0 125 2;
#X connect 129 0 125 3;
#X connect 130 0 125 4;
#X connect 131 0 140 0;
#X connect 132 0 131 1;
#X connect 133 0 131 0;
#X connect 133 0 132 0;
#X connect 134 0 132 1;
#X connect 135 0 132 2;
#X connect 136 0 132 3;
#X connect 137 0 132 4;
#X connect 138 0 7 0;
#X connect 139 0 138 1;
#X connect 140 0 138 0;
#X connect 140 0 139 0;
#X connect 141 0 139 1;
#X connect 142 0 139 2;
#X connect 143 0 139 3;
#X connect 144 0 139 4;
#X restore 538 377 pd twenty;
#X msg 846 39 pentatonic;
#X text 453 303 TODO: soft on -> auto fade in;
#X connect 0 0 1 1;
#X connect 1 0 13 1;
#X connect 2 0 3 0;
#X connect 2 0 3 1;
#X connect 4 0 5 0;
#X connect 5 0 1 0;
#X connect 6 0 7 0;
#X connect 7 0 8 0;
#X connect 8 0 2 1;
#X connect 9 0 10 0;
#X connect 10 0 13 0;
#X connect 11 0 10 1;
#X connect 13 0 17 0;
#X connect 14 0 1 0;
#X connect 15 0 1 0;
#X connect 18 0 16 0;
#X connect 20 0 2 0;
#X connect 22 0 21 0;
#X connect 24 0 23 0;
#X connect 26 0 25 0;
#X connect 27 0 25 0;
#X connect 29 0 28 0;
#X connect 30 0 31 0;
#X connect 32 0 33 0;
#X connect 34 0 35 0;
#X connect 36 0 37 0;
#X connect 38 0 39 0;
#X connect 40 0 41 0;
#X connect 42 0 43 0;
#X connect 44 0 45 0;
#X connect 46 0 25 0;
