#N canvas 793 142 1078 938 12;
#X declare -path pd-aubio/build;
#X declare -path /usr/lib/pd/extra/iemlib -lib iemlib;
#X obj 224 206 tgl 15 0 empty empty empty 17 7 0 10 -262144 -1 -1 1
1;
#X obj 150 228 abs/player~;
#X obj 63 852 *~;
#X obj 54 882 dac~;
#X msg 189 99 bang;
#X obj 189 130 openpanel;
#X obj 104 811 hsl 128 15 0 127 0 0 empty empty vol -2 -8 0 10 -262144
-1 -1 0 1;
#X obj 101 831 dbtorms;
#X floatatom 101 856 5 0 0 0 - - -;
#X obj 37 115 adc~;
#X obj 37 162 *~;
#X floatatom 55 139 5 0 0 0 - - -;
#X text 24 183 use headphones...;
#X obj 132 278 +~;
#X msg 194 156 ../../../samples/henry5.wav;
#X msg 204 180 ../../../samples/la-vaca-cega-eva.wav;
#X obj 132 306 s~ input;
#X obj 62 771 catch~ output;
#X obj 970 619 s transpose;
#X floatatom 970 595 5 0 0 0 - - -;
#X obj 715 619 s key;
#X obj 798 619 s scale;
#X obj 888 619 s t_smooth;
#X floatatom 888 595 5 0 0 0 - - -;
#N canvas 809 637 450 300 include 0;
#X obj 13 80 aubio;
#X obj 13 51 declare -path pd-aubio/build;
#X obj 14 23 declare -path /usr/lib/pd/extra/iemlib -lib iemlib;
#X restore 18 32 pd include;
#N canvas 72 402 549 316 one 0;
#X obj 28 194 +~;
#X obj 47 162 disco~ C ionian 440 20 15 0;
#X obj 28 134 *~ 0.707;
#X obj 417 83 switch~;
#X obj 417 36 tgl 15 0 empty empty empty 17 7 0 10 -262144 -1 -1 0
1;
#X obj 417 9 inlet on;
#X obj 28 21 r~ input;
#X obj 28 268 throw~ output;
#X obj 93 130 r key;
#X obj 134 130 r scale;
#X obj 189 131 r t_smooth;
#X obj 266 131 r transpose;
#X obj 28 241 *~;
#X obj 417 54 t f f;
#X obj 450 116 sel 1;
#X msg 450 142 0 \, 1 20;
#X obj 450 167 vline~;
#X connect 0 0 12 0;
#X connect 1 0 0 1;
#X connect 2 0 0 0;
#X connect 2 0 1 0;
#X connect 4 0 13 0;
#X connect 5 0 4 0;
#X connect 6 0 2 0;
#X connect 8 0 1 1;
#X connect 9 0 1 2;
#X connect 10 0 1 3;
#X connect 11 0 1 4;
#X connect 12 0 7 0;
#X connect 13 0 3 0;
#X connect 13 1 14 0;
#X connect 14 0 15 0;
#X connect 15 0 16 0;
#X connect 16 0 12 1;
#X restore 134 552 pd one;
#X obj 134 532 tgl 15 0 empty empty empty 17 7 0 10 -262144 -1 -1 0
1;
#X obj 184 532 tgl 15 0 empty empty empty 17 7 0 10 -262144 -1 -1 0
1;
#N canvas 72 402 549 316 two 0;
#X obj 28 114 +~;
#X obj 47 82 disco~ C ionian 440 20 15 0;
#X obj 28 54 *~ 0.707;
#X obj 28 21 r~ input;
#X obj 28 268 throw~ output;
#X obj 93 54 r key;
#X obj 134 54 r scale;
#X obj 189 54 r t_smooth;
#X obj 266 54 r transpose;
#X obj 28 204 +~;
#X obj 47 172 disco~ C ionian 440 20 15 0;
#X obj 28 144 *~ 0.707;
#X obj 93 145 r key;
#X obj 134 145 r scale;
#X obj 189 145 r t_smooth;
#X obj 266 145 r transpose;
#X obj 417 83 switch~;
#X obj 417 36 tgl 15 0 empty empty empty 17 7 0 10 -262144 -1 -1 0
1;
#X obj 417 9 inlet on;
#X obj 28 241 *~;
#X obj 417 54 t f f;
#X obj 450 116 sel 1;
#X msg 450 142 0 \, 1 20;
#X obj 450 167 vline~;
#X connect 0 0 11 0;
#X connect 1 0 0 1;
#X connect 2 0 0 0;
#X connect 2 0 1 0;
#X connect 3 0 2 0;
#X connect 5 0 1 1;
#X connect 6 0 1 2;
#X connect 7 0 1 3;
#X connect 8 0 1 4;
#X connect 9 0 19 0;
#X connect 10 0 9 1;
#X connect 11 0 9 0;
#X connect 11 0 10 0;
#X connect 12 0 10 1;
#X connect 13 0 10 2;
#X connect 14 0 10 3;
#X connect 15 0 10 4;
#X connect 17 0 20 0;
#X connect 18 0 17 0;
#X connect 19 0 4 0;
#X connect 20 0 16 0;
#X connect 20 1 21 0;
#X connect 21 0 22 0;
#X connect 22 0 23 0;
#X connect 23 0 19 1;
#X restore 184 552 pd two;
#X obj 234 532 tgl 15 0 empty empty empty 17 7 0 10 -262144 -1 -1 0
1;
#N canvas 72 394 549 479 three 0;
#X obj 28 114 +~;
#X obj 47 82 disco~ C ionian 440 20 15 0;
#X obj 28 54 *~ 0.707;
#X obj 417 9 inlet on;
#X obj 28 21 r~ input;
#X obj 28 358 throw~ output;
#X obj 93 54 r key;
#X obj 134 54 r scale;
#X obj 189 54 r t_smooth;
#X obj 266 54 r transpose;
#X obj 28 204 +~;
#X obj 47 172 disco~ C ionian 440 20 15 0;
#X obj 28 144 *~ 0.707;
#X obj 93 145 r key;
#X obj 134 145 r scale;
#X obj 189 145 r t_smooth;
#X obj 266 145 r transpose;
#X obj 28 304 +~;
#X obj 47 272 disco~ C ionian 440 20 15 0;
#X obj 28 244 *~ 0.707;
#X obj 93 245 r key;
#X obj 134 245 r scale;
#X obj 189 245 r t_smooth;
#X obj 266 245 r transpose;
#X obj 417 203 switch~;
#X obj 417 40 tgl 15 0 empty empty empty 17 7 0 10 -262144 -1 -1 0
1;
#X obj 28 331 *~;
#X obj 417 174 t f f;
#X obj 450 236 sel 1;
#X msg 450 262 0 \, 1 20;
#X obj 450 287 vline~;
#X connect 0 0 12 0;
#X connect 1 0 0 1;
#X connect 2 0 0 0;
#X connect 2 0 1 0;
#X connect 3 0 25 0;
#X connect 4 0 2 0;
#X connect 6 0 1 1;
#X connect 7 0 1 2;
#X connect 8 0 1 3;
#X connect 9 0 1 4;
#X connect 10 0 19 0;
#X connect 11 0 10 1;
#X connect 12 0 10 0;
#X connect 12 0 11 0;
#X connect 13 0 11 1;
#X connect 14 0 11 2;
#X connect 15 0 11 3;
#X connect 16 0 11 4;
#X connect 17 0 26 0;
#X connect 18 0 17 1;
#X connect 19 0 17 0;
#X connect 19 0 18 0;
#X connect 20 0 18 1;
#X connect 21 0 18 2;
#X connect 22 0 18 3;
#X connect 23 0 18 4;
#X connect 25 0 27 0;
#X connect 26 0 5 0;
#X connect 27 0 24 0;
#X connect 27 1 28 0;
#X connect 28 0 29 0;
#X connect 29 0 30 0;
#X connect 30 0 26 1;
#X restore 234 552 pd three;
#X obj 299 532 tgl 15 0 empty empty empty 17 7 0 10 -262144 -1 -1 0
1;
#N canvas 72 378 549 540 four 0;
#X obj 28 114 +~;
#X obj 47 82 disco~ C ionian 440 20 15 0;
#X obj 28 54 *~ 0.707;
#X obj 417 9 inlet on;
#X obj 28 21 r~ input;
#X obj 28 448 throw~ output;
#X obj 93 54 r key;
#X obj 134 54 r scale;
#X obj 189 54 r t_smooth;
#X obj 266 54 r transpose;
#X obj 28 204 +~;
#X obj 47 172 disco~ C ionian 440 20 15 0;
#X obj 28 144 *~ 0.707;
#X obj 93 145 r key;
#X obj 134 145 r scale;
#X obj 189 145 r t_smooth;
#X obj 266 145 r transpose;
#X obj 28 294 +~;
#X obj 47 262 disco~ C ionian 440 20 15 0;
#X obj 28 234 *~ 0.707;
#X obj 93 235 r key;
#X obj 134 235 r scale;
#X obj 189 235 r t_smooth;
#X obj 266 235 r transpose;
#X obj 28 385 +~;
#X obj 47 353 disco~ C ionian 440 20 15 0;
#X obj 28 325 *~ 0.707;
#X obj 93 326 r key;
#X obj 134 326 r scale;
#X obj 189 326 r t_smooth;
#X obj 266 326 r transpose;
#X obj 417 277 switch~;
#X obj 417 40 tgl 15 0 empty empty empty 17 7 0 10 -262144 -1 -1 0
1;
#X obj 27 417 *~;
#X obj 417 248 t f f;
#X obj 450 310 sel 1;
#X msg 450 336 0 \, 1 20;
#X obj 450 361 vline~;
#X connect 0 0 12 0;
#X connect 1 0 0 1;
#X connect 2 0 0 0;
#X connect 2 0 1 0;
#X connect 3 0 32 0;
#X connect 4 0 2 0;
#X connect 6 0 1 1;
#X connect 7 0 1 2;
#X connect 8 0 1 3;
#X connect 9 0 1 4;
#X connect 10 0 19 0;
#X connect 11 0 10 1;
#X connect 12 0 10 0;
#X connect 12 0 11 0;
#X connect 13 0 11 1;
#X connect 14 0 11 2;
#X connect 15 0 11 3;
#X connect 16 0 11 4;
#X connect 17 0 26 0;
#X connect 18 0 17 1;
#X connect 19 0 17 0;
#X connect 19 0 18 0;
#X connect 20 0 18 1;
#X connect 21 0 18 2;
#X connect 22 0 18 3;
#X connect 23 0 18 4;
#X connect 24 0 33 0;
#X connect 25 0 24 1;
#X connect 26 0 24 0;
#X connect 26 0 25 0;
#X connect 27 0 25 1;
#X connect 28 0 25 2;
#X connect 29 0 25 3;
#X connect 30 0 25 4;
#X connect 32 0 34 0;
#X connect 33 0 5 0;
#X connect 34 0 31 0;
#X connect 34 1 35 0;
#X connect 35 0 36 0;
#X connect 36 0 37 0;
#X connect 37 0 33 1;
#X restore 299 552 pd four;
#X obj 359 532 tgl 15 0 empty empty empty 17 7 0 10 -262144 -1 -1 0
1;
#N canvas 72 370 549 660 six 0;
#X obj 28 114 +~;
#X obj 47 82 disco~ C ionian 440 20 15 0;
#X obj 28 54 *~ 0.707;
#X obj 417 36 tgl 15 0 empty empty empty 17 7 0 10 -262144 -1 -1 0
1;
#X obj 417 9 inlet on;
#X obj 28 21 r~ input;
#X obj 28 618 throw~ output;
#X obj 93 54 r key;
#X obj 134 54 r scale;
#X obj 189 54 r t_smooth;
#X obj 266 54 r transpose;
#X obj 28 204 +~;
#X obj 47 172 disco~ C ionian 440 20 15 0;
#X obj 28 144 *~ 0.707;
#X obj 93 145 r key;
#X obj 134 145 r scale;
#X obj 189 145 r t_smooth;
#X obj 266 145 r transpose;
#X obj 28 294 +~;
#X obj 47 262 disco~ C ionian 440 20 15 0;
#X obj 28 234 *~ 0.707;
#X obj 93 235 r key;
#X obj 134 235 r scale;
#X obj 189 235 r t_smooth;
#X obj 266 235 r transpose;
#X obj 28 385 +~;
#X obj 47 353 disco~ C ionian 440 20 15 0;
#X obj 28 325 *~ 0.707;
#X obj 93 326 r key;
#X obj 134 326 r scale;
#X obj 189 326 r t_smooth;
#X obj 266 326 r transpose;
#X obj 28 474 +~;
#X obj 47 442 disco~ C ionian 440 20 15 0;
#X obj 28 414 *~ 0.707;
#X obj 93 415 r key;
#X obj 134 415 r scale;
#X obj 189 415 r t_smooth;
#X obj 266 415 r transpose;
#X obj 28 565 +~;
#X obj 47 533 disco~ C ionian 440 20 15 0;
#X obj 28 505 *~ 0.707;
#X obj 93 506 r key;
#X obj 134 506 r scale;
#X obj 189 506 r t_smooth;
#X obj 266 506 r transpose;
#X obj 417 452 switch~;
#X obj 28 592 *~;
#X obj 417 423 t f f;
#X obj 450 485 sel 1;
#X msg 450 511 0 \, 1 20;
#X obj 450 536 vline~;
#X connect 0 0 13 0;
#X connect 1 0 0 1;
#X connect 2 0 0 0;
#X connect 2 0 1 0;
#X connect 3 0 48 0;
#X connect 4 0 3 0;
#X connect 5 0 2 0;
#X connect 7 0 1 1;
#X connect 8 0 1 2;
#X connect 9 0 1 3;
#X connect 10 0 1 4;
#X connect 11 0 20 0;
#X connect 12 0 11 1;
#X connect 13 0 11 0;
#X connect 13 0 12 0;
#X connect 14 0 12 1;
#X connect 15 0 12 2;
#X connect 16 0 12 3;
#X connect 17 0 12 4;
#X connect 18 0 27 0;
#X connect 19 0 18 1;
#X connect 20 0 18 0;
#X connect 20 0 19 0;
#X connect 21 0 19 1;
#X connect 22 0 19 2;
#X connect 23 0 19 3;
#X connect 24 0 19 4;
#X connect 25 0 34 0;
#X connect 26 0 25 1;
#X connect 27 0 25 0;
#X connect 27 0 26 0;
#X connect 28 0 26 1;
#X connect 29 0 26 2;
#X connect 30 0 26 3;
#X connect 31 0 26 4;
#X connect 32 0 41 0;
#X connect 33 0 32 1;
#X connect 34 0 32 0;
#X connect 34 0 33 0;
#X connect 35 0 33 1;
#X connect 36 0 33 2;
#X connect 37 0 33 3;
#X connect 38 0 33 4;
#X connect 39 0 47 0;
#X connect 40 0 39 1;
#X connect 41 0 39 0;
#X connect 41 0 40 0;
#X connect 42 0 40 1;
#X connect 43 0 40 2;
#X connect 44 0 40 3;
#X connect 45 0 40 4;
#X connect 47 0 6 0;
#X connect 48 0 46 0;
#X connect 48 1 49 0;
#X connect 49 0 50 0;
#X connect 50 0 51 0;
#X connect 51 0 47 1;
#X restore 359 552 pd six;
#X obj 409 532 tgl 15 0 empty empty empty 17 7 0 10 -262144 -1 -1 0
1;
#N canvas 72 96 549 964 eight 0;
#X obj 28 114 +~;
#X obj 47 82 disco~ C ionian 440 20 15 0;
#X obj 28 54 *~ 0.707;
#X obj 417 36 tgl 15 0 empty empty empty 17 7 0 10 -262144 -1 -1 0
1;
#X obj 417 9 inlet on;
#X obj 28 21 r~ input;
#X obj 28 928 throw~ output;
#X obj 93 54 r key;
#X obj 134 54 r scale;
#X obj 189 54 r t_smooth;
#X obj 266 54 r transpose;
#X obj 28 204 +~;
#X obj 47 172 disco~ C ionian 440 20 15 0;
#X obj 28 144 *~ 0.707;
#X obj 93 145 r key;
#X obj 134 145 r scale;
#X obj 189 145 r t_smooth;
#X obj 266 145 r transpose;
#X obj 28 294 +~;
#X obj 47 262 disco~ C ionian 440 20 15 0;
#X obj 28 234 *~ 0.707;
#X obj 93 235 r key;
#X obj 134 235 r scale;
#X obj 189 235 r t_smooth;
#X obj 266 235 r transpose;
#X obj 28 385 +~;
#X obj 47 353 disco~ C ionian 440 20 15 0;
#X obj 28 325 *~ 0.707;
#X obj 93 326 r key;
#X obj 134 326 r scale;
#X obj 189 326 r t_smooth;
#X obj 266 326 r transpose;
#X obj 28 474 +~;
#X obj 47 442 disco~ C ionian 440 20 15 0;
#X obj 28 414 *~ 0.707;
#X obj 93 415 r key;
#X obj 134 415 r scale;
#X obj 189 415 r t_smooth;
#X obj 266 415 r transpose;
#X obj 28 565 +~;
#X obj 47 533 disco~ C ionian 440 20 15 0;
#X obj 28 505 *~ 0.707;
#X obj 93 506 r key;
#X obj 134 506 r scale;
#X obj 189 506 r t_smooth;
#X obj 266 506 r transpose;
#X obj 28 654 +~;
#X obj 47 622 disco~ C ionian 440 20 15 0;
#X obj 28 594 *~ 0.707;
#X obj 93 595 r key;
#X obj 134 595 r scale;
#X obj 189 595 r t_smooth;
#X obj 266 595 r transpose;
#X obj 28 745 +~;
#X obj 47 713 disco~ C ionian 440 20 15 0;
#X obj 28 685 *~ 0.707;
#X obj 93 686 r key;
#X obj 134 686 r scale;
#X obj 189 686 r t_smooth;
#X obj 266 686 r transpose;
#X obj 417 651 switch~;
#X obj 28 791 *~;
#X obj 417 622 t f f;
#X obj 450 684 sel 1;
#X msg 450 710 0 \, 1 20;
#X obj 450 735 vline~;
#X connect 0 0 13 0;
#X connect 1 0 0 1;
#X connect 2 0 0 0;
#X connect 2 0 1 0;
#X connect 3 0 62 0;
#X connect 4 0 3 0;
#X connect 5 0 2 0;
#X connect 7 0 1 1;
#X connect 8 0 1 2;
#X connect 9 0 1 3;
#X connect 10 0 1 4;
#X connect 11 0 20 0;
#X connect 12 0 11 1;
#X connect 13 0 11 0;
#X connect 13 0 12 0;
#X connect 14 0 12 1;
#X connect 15 0 12 2;
#X connect 16 0 12 3;
#X connect 17 0 12 4;
#X connect 18 0 27 0;
#X connect 19 0 18 1;
#X connect 20 0 18 0;
#X connect 20 0 19 0;
#X connect 21 0 19 1;
#X connect 22 0 19 2;
#X connect 23 0 19 3;
#X connect 24 0 19 4;
#X connect 25 0 34 0;
#X connect 26 0 25 1;
#X connect 27 0 25 0;
#X connect 27 0 26 0;
#X connect 28 0 26 1;
#X connect 29 0 26 2;
#X connect 30 0 26 3;
#X connect 31 0 26 4;
#X connect 32 0 41 0;
#X connect 33 0 32 1;
#X connect 34 0 32 0;
#X connect 34 0 33 0;
#X connect 35 0 33 1;
#X connect 36 0 33 2;
#X connect 37 0 33 3;
#X connect 38 0 33 4;
#X connect 39 0 48 0;
#X connect 40 0 39 1;
#X connect 41 0 39 0;
#X connect 41 0 40 0;
#X connect 42 0 40 1;
#X connect 43 0 40 2;
#X connect 44 0 40 3;
#X connect 45 0 40 4;
#X connect 46 0 55 0;
#X connect 47 0 46 1;
#X connect 48 0 46 0;
#X connect 48 0 47 0;
#X connect 49 0 47 1;
#X connect 50 0 47 2;
#X connect 51 0 47 3;
#X connect 52 0 47 4;
#X connect 53 0 61 0;
#X connect 54 0 53 1;
#X connect 55 0 53 0;
#X connect 55 0 54 0;
#X connect 56 0 54 1;
#X connect 57 0 54 2;
#X connect 58 0 54 3;
#X connect 59 0 54 4;
#X connect 61 0 6 0;
#X connect 62 0 60 0;
#X connect 62 1 63 0;
#X connect 63 0 64 0;
#X connect 64 0 65 0;
#X connect 65 0 61 1;
#X restore 409 552 pd eight;
#X obj 479 532 tgl 15 0 empty empty empty 17 7 0 10 -262144 -1 -1 0
1;
#N canvas 72 96 549 982 ten 0;
#X obj 28 95 +~;
#X obj 47 63 disco~ C ionian 440 20 15 0;
#X obj 28 35 *~ 0.707;
#X obj 417 36 tgl 15 0 empty empty empty 17 7 0 10 -262144 -1 -1 0
1;
#X obj 417 9 inlet on;
#X obj 28 2 r~ input;
#X obj 28 961 throw~ output;
#X obj 93 35 r key;
#X obj 134 35 r scale;
#X obj 189 35 r t_smooth;
#X obj 266 35 r transpose;
#X obj 28 185 +~;
#X obj 47 153 disco~ C ionian 440 20 15 0;
#X obj 28 125 *~ 0.707;
#X obj 93 126 r key;
#X obj 134 126 r scale;
#X obj 189 126 r t_smooth;
#X obj 266 126 r transpose;
#X obj 28 275 +~;
#X obj 47 243 disco~ C ionian 440 20 15 0;
#X obj 28 215 *~ 0.707;
#X obj 93 216 r key;
#X obj 134 216 r scale;
#X obj 189 216 r t_smooth;
#X obj 266 216 r transpose;
#X obj 28 366 +~;
#X obj 47 334 disco~ C ionian 440 20 15 0;
#X obj 28 306 *~ 0.707;
#X obj 93 307 r key;
#X obj 134 307 r scale;
#X obj 189 307 r t_smooth;
#X obj 266 307 r transpose;
#X obj 28 455 +~;
#X obj 47 423 disco~ C ionian 440 20 15 0;
#X obj 28 395 *~ 0.707;
#X obj 93 396 r key;
#X obj 134 396 r scale;
#X obj 189 396 r t_smooth;
#X obj 266 396 r transpose;
#X obj 28 546 +~;
#X obj 47 514 disco~ C ionian 440 20 15 0;
#X obj 28 486 *~ 0.707;
#X obj 93 487 r key;
#X obj 134 487 r scale;
#X obj 189 487 r t_smooth;
#X obj 266 487 r transpose;
#X obj 28 635 +~;
#X obj 47 603 disco~ C ionian 440 20 15 0;
#X obj 28 575 *~ 0.707;
#X obj 93 576 r key;
#X obj 134 576 r scale;
#X obj 189 576 r t_smooth;
#X obj 266 576 r transpose;
#X obj 28 726 +~;
#X obj 47 694 disco~ C ionian 440 20 15 0;
#X obj 28 666 *~ 0.707;
#X obj 93 667 r key;
#X obj 134 667 r scale;
#X obj 189 667 r t_smooth;
#X obj 266 667 r transpose;
#X obj 28 815 +~;
#X obj 47 783 disco~ C ionian 440 20 15 0;
#X obj 28 755 *~ 0.707;
#X obj 93 756 r key;
#X obj 134 756 r scale;
#X obj 189 756 r t_smooth;
#X obj 266 756 r transpose;
#X obj 28 906 +~;
#X obj 47 874 disco~ C ionian 440 20 15 0;
#X obj 28 846 *~ 0.707;
#X obj 93 847 r key;
#X obj 134 847 r scale;
#X obj 189 847 r t_smooth;
#X obj 266 847 r transpose;
#X obj 417 812 switch~;
#X obj 28 933 *~;
#X obj 417 783 t f f;
#X obj 450 845 sel 1;
#X obj 450 896 vline~;
#X msg 450 871 0 \, 1 40;
#X connect 0 0 13 0;
#X connect 1 0 0 1;
#X connect 2 0 0 0;
#X connect 2 0 1 0;
#X connect 3 0 76 0;
#X connect 4 0 3 0;
#X connect 5 0 2 0;
#X connect 7 0 1 1;
#X connect 8 0 1 2;
#X connect 9 0 1 3;
#X connect 10 0 1 4;
#X connect 11 0 20 0;
#X connect 12 0 11 1;
#X connect 13 0 11 0;
#X connect 13 0 12 0;
#X connect 14 0 12 1;
#X connect 15 0 12 2;
#X connect 16 0 12 3;
#X connect 17 0 12 4;
#X connect 18 0 27 0;
#X connect 19 0 18 1;
#X connect 20 0 18 0;
#X connect 20 0 19 0;
#X connect 21 0 19 1;
#X connect 22 0 19 2;
#X connect 23 0 19 3;
#X connect 24 0 19 4;
#X connect 25 0 34 0;
#X connect 26 0 25 1;
#X connect 27 0 25 0;
#X connect 27 0 26 0;
#X connect 28 0 26 1;
#X connect 29 0 26 2;
#X connect 30 0 26 3;
#X connect 31 0 26 4;
#X connect 32 0 41 0;
#X connect 33 0 32 1;
#X connect 34 0 32 0;
#X connect 34 0 33 0;
#X connect 35 0 33 1;
#X connect 36 0 33 2;
#X connect 37 0 33 3;
#X connect 38 0 33 4;
#X connect 39 0 48 0;
#X connect 40 0 39 1;
#X connect 41 0 39 0;
#X connect 41 0 40 0;
#X connect 42 0 40 1;
#X connect 43 0 40 2;
#X connect 44 0 40 3;
#X connect 45 0 40 4;
#X connect 46 0 55 0;
#X connect 47 0 46 1;
#X connect 48 0 46 0;
#X connect 48 0 47 0;
#X connect 49 0 47 1;
#X connect 50 0 47 2;
#X connect 51 0 47 3;
#X connect 52 0 47 4;
#X connect 53 0 62 0;
#X connect 54 0 53 1;
#X connect 55 0 53 0;
#X connect 55 0 54 0;
#X connect 56 0 54 1;
#X connect 57 0 54 2;
#X connect 58 0 54 3;
#X connect 59 0 54 4;
#X connect 60 0 69 0;
#X connect 61 0 60 1;
#X connect 62 0 60 0;
#X connect 62 0 61 0;
#X connect 63 0 61 1;
#X connect 64 0 61 2;
#X connect 65 0 61 3;
#X connect 66 0 61 4;
#X connect 67 0 75 0;
#X connect 68 0 67 1;
#X connect 69 0 67 0;
#X connect 69 0 68 0;
#X connect 70 0 68 1;
#X connect 71 0 68 2;
#X connect 72 0 68 3;
#X connect 73 0 68 4;
#X connect 75 0 6 0;
#X connect 76 0 74 0;
#X connect 76 1 77 0;
#X connect 77 0 79 0;
#X connect 78 0 75 1;
#X connect 79 0 78 0;
#X restore 479 552 pd ten;
#X obj 539 532 tgl 15 0 empty empty empty 17 7 0 10 -262144 -1 -1 0
1;
#N canvas 72 96 1065 982 fifteen 0;
#X obj 28 114 +~;
#X obj 47 82 disco~ C ionian 440 20 15 0;
#X obj 28 54 *~ 0.707;
#X obj 810 49 tgl 15 0 empty empty empty 17 7 0 10 -262144 -1 -1 0
1;
#X obj 810 22 inlet on;
#X obj 28 21 r~ input;
#X obj 420 610 throw~ output;
#X obj 93 54 r key;
#X obj 134 54 r scale;
#X obj 189 54 r t_smooth;
#X obj 266 54 r transpose;
#X obj 28 204 +~;
#X obj 47 172 disco~ C ionian 440 20 15 0;
#X obj 28 144 *~ 0.707;
#X obj 93 145 r key;
#X obj 134 145 r scale;
#X obj 189 145 r t_smooth;
#X obj 266 145 r transpose;
#X obj 28 294 +~;
#X obj 47 262 disco~ C ionian 440 20 15 0;
#X obj 28 234 *~ 0.707;
#X obj 93 235 r key;
#X obj 134 235 r scale;
#X obj 189 235 r t_smooth;
#X obj 266 235 r transpose;
#X obj 28 385 +~;
#X obj 47 353 disco~ C ionian 440 20 15 0;
#X obj 28 325 *~ 0.707;
#X obj 93 326 r key;
#X obj 134 326 r scale;
#X obj 189 326 r t_smooth;
#X obj 266 326 r transpose;
#X obj 28 474 +~;
#X obj 47 442 disco~ C ionian 440 20 15 0;
#X obj 28 414 *~ 0.707;
#X obj 93 415 r key;
#X obj 134 415 r scale;
#X obj 189 415 r t_smooth;
#X obj 266 415 r transpose;
#X obj 28 565 +~;
#X obj 47 533 disco~ C ionian 440 20 15 0;
#X obj 28 505 *~ 0.707;
#X obj 93 506 r key;
#X obj 134 506 r scale;
#X obj 189 506 r t_smooth;
#X obj 266 506 r transpose;
#X obj 28 654 +~;
#X obj 47 622 disco~ C ionian 440 20 15 0;
#X obj 28 594 *~ 0.707;
#X obj 93 595 r key;
#X obj 134 595 r scale;
#X obj 189 595 r t_smooth;
#X obj 266 595 r transpose;
#X obj 28 745 +~;
#X obj 47 713 disco~ C ionian 440 20 15 0;
#X obj 28 685 *~ 0.707;
#X obj 93 686 r key;
#X obj 134 686 r scale;
#X obj 189 686 r t_smooth;
#X obj 266 686 r transpose;
#X obj 28 834 +~;
#X obj 47 802 disco~ C ionian 440 20 15 0;
#X obj 28 774 *~ 0.707;
#X obj 93 775 r key;
#X obj 134 775 r scale;
#X obj 189 775 r t_smooth;
#X obj 266 775 r transpose;
#X obj 28 925 +~;
#X obj 47 893 disco~ C ionian 440 20 15 0;
#X obj 28 865 *~ 0.707;
#X obj 93 866 r key;
#X obj 134 866 r scale;
#X obj 189 866 r t_smooth;
#X obj 266 866 r transpose;
#X obj 420 196 +~;
#X obj 439 164 disco~ C ionian 440 20 15 0;
#X obj 420 136 *~ 0.707;
#X obj 485 137 r key;
#X obj 526 137 r scale;
#X obj 581 137 r t_smooth;
#X obj 658 137 r transpose;
#X obj 420 285 +~;
#X obj 439 253 disco~ C ionian 440 20 15 0;
#X obj 420 225 *~ 0.707;
#X obj 485 226 r key;
#X obj 526 226 r scale;
#X obj 581 226 r t_smooth;
#X obj 658 226 r transpose;
#X obj 420 376 +~;
#X obj 439 344 disco~ C ionian 440 20 15 0;
#X obj 420 316 *~ 0.707;
#X obj 485 317 r key;
#X obj 526 317 r scale;
#X obj 581 317 r t_smooth;
#X obj 658 317 r transpose;
#X obj 420 465 +~;
#X obj 439 433 disco~ C ionian 440 20 15 0;
#X obj 420 405 *~ 0.707;
#X obj 485 406 r key;
#X obj 526 406 r scale;
#X obj 581 406 r t_smooth;
#X obj 658 406 r transpose;
#X obj 420 556 +~;
#X obj 439 524 disco~ C ionian 440 20 15 0;
#X obj 420 496 *~ 0.707;
#X obj 485 497 r key;
#X obj 526 497 r scale;
#X obj 581 497 r t_smooth;
#X obj 658 497 r transpose;
#X obj 810 443 switch~;
#X obj 420 583 *~;
#X obj 810 414 t f f;
#X obj 843 476 sel 1;
#X obj 843 527 vline~;
#X msg 843 502 0 \, 1 200;
#X connect 0 0 13 0;
#X connect 1 0 0 1;
#X connect 2 0 0 0;
#X connect 2 0 1 0;
#X connect 3 0 111 0;
#X connect 4 0 3 0;
#X connect 5 0 2 0;
#X connect 7 0 1 1;
#X connect 8 0 1 2;
#X connect 9 0 1 3;
#X connect 10 0 1 4;
#X connect 11 0 20 0;
#X connect 12 0 11 1;
#X connect 13 0 11 0;
#X connect 13 0 12 0;
#X connect 14 0 12 1;
#X connect 15 0 12 2;
#X connect 16 0 12 3;
#X connect 17 0 12 4;
#X connect 18 0 27 0;
#X connect 19 0 18 1;
#X connect 20 0 18 0;
#X connect 20 0 19 0;
#X connect 21 0 19 1;
#X connect 22 0 19 2;
#X connect 23 0 19 3;
#X connect 24 0 19 4;
#X connect 25 0 34 0;
#X connect 26 0 25 1;
#X connect 27 0 25 0;
#X connect 27 0 26 0;
#X connect 28 0 26 1;
#X connect 29 0 26 2;
#X connect 30 0 26 3;
#X connect 31 0 26 4;
#X connect 32 0 41 0;
#X connect 33 0 32 1;
#X connect 34 0 32 0;
#X connect 34 0 33 0;
#X connect 35 0 33 1;
#X connect 36 0 33 2;
#X connect 37 0 33 3;
#X connect 38 0 33 4;
#X connect 39 0 48 0;
#X connect 40 0 39 1;
#X connect 41 0 39 0;
#X connect 41 0 40 0;
#X connect 42 0 40 1;
#X connect 43 0 40 2;
#X connect 44 0 40 3;
#X connect 45 0 40 4;
#X connect 46 0 55 0;
#X connect 47 0 46 1;
#X connect 48 0 46 0;
#X connect 48 0 47 0;
#X connect 49 0 47 1;
#X connect 50 0 47 2;
#X connect 51 0 47 3;
#X connect 52 0 47 4;
#X connect 53 0 62 0;
#X connect 54 0 53 1;
#X connect 55 0 53 0;
#X connect 55 0 54 0;
#X connect 56 0 54 1;
#X connect 57 0 54 2;
#X connect 58 0 54 3;
#X connect 59 0 54 4;
#X connect 60 0 69 0;
#X connect 61 0 60 1;
#X connect 62 0 60 0;
#X connect 62 0 61 0;
#X connect 63 0 61 1;
#X connect 64 0 61 2;
#X connect 65 0 61 3;
#X connect 66 0 61 4;
#X connect 67 0 76 0;
#X connect 68 0 67 1;
#X connect 69 0 67 0;
#X connect 69 0 68 0;
#X connect 70 0 68 1;
#X connect 71 0 68 2;
#X connect 72 0 68 3;
#X connect 73 0 68 4;
#X connect 74 0 83 0;
#X connect 75 0 74 1;
#X connect 76 0 74 0;
#X connect 76 0 75 0;
#X connect 77 0 75 1;
#X connect 78 0 75 2;
#X connect 79 0 75 3;
#X connect 80 0 75 4;
#X connect 81 0 90 0;
#X connect 82 0 81 1;
#X connect 83 0 81 0;
#X connect 83 0 82 0;
#X connect 84 0 82 1;
#X connect 85 0 82 2;
#X connect 86 0 82 3;
#X connect 87 0 82 4;
#X connect 88 0 97 0;
#X connect 89 0 88 1;
#X connect 90 0 88 0;
#X connect 90 0 89 0;
#X connect 91 0 89 1;
#X connect 92 0 89 2;
#X connect 93 0 89 3;
#X connect 94 0 89 4;
#X connect 95 0 104 0;
#X connect 96 0 95 1;
#X connect 97 0 95 0;
#X connect 97 0 96 0;
#X connect 98 0 96 1;
#X connect 99 0 96 2;
#X connect 100 0 96 3;
#X connect 101 0 96 4;
#X connect 102 0 110 0;
#X connect 103 0 102 1;
#X connect 104 0 102 0;
#X connect 104 0 103 0;
#X connect 105 0 103 1;
#X connect 106 0 103 2;
#X connect 107 0 103 3;
#X connect 108 0 103 4;
#X connect 110 0 6 0;
#X connect 111 0 109 0;
#X connect 111 1 112 0;
#X connect 112 0 114 0;
#X connect 113 0 110 1;
#X connect 114 0 113 0;
#X restore 539 552 pd fifteen;
#X text 21 502 using "rotating tape head" pitch shifter:;
#N canvas 72 402 549 316 one 0;
#X obj 28 194 +~;
#X obj 28 134 *~ 0.707;
#X obj 417 83 switch~;
#X obj 417 36 tgl 15 0 empty empty empty 17 7 0 10 -262144 -1 -1 0
1;
#X obj 417 9 inlet on;
#X obj 28 21 r~ input;
#X obj 28 268 throw~ output;
#X obj 93 130 r key;
#X obj 134 130 r scale;
#X obj 189 131 r t_smooth;
#X obj 266 131 r transpose;
#X obj 28 241 *~;
#X obj 417 54 t f f;
#X obj 450 116 sel 1;
#X msg 450 142 0 \, 1 20;
#X obj 450 167 vline~;
#X obj 47 162 reshift~ C ionian 440 200 15 0;
#X connect 0 0 11 0;
#X connect 1 0 0 0;
#X connect 1 0 16 0;
#X connect 3 0 12 0;
#X connect 4 0 3 0;
#X connect 5 0 1 0;
#X connect 7 0 16 1;
#X connect 8 0 16 2;
#X connect 9 0 16 3;
#X connect 10 0 16 4;
#X connect 11 0 6 0;
#X connect 12 0 2 0;
#X connect 12 1 13 0;
#X connect 13 0 14 0;
#X connect 14 0 15 0;
#X connect 15 0 11 1;
#X connect 16 0 0 1;
#X restore 134 642 pd one;
#X obj 134 622 tgl 15 0 empty empty empty 17 7 0 10 -262144 -1 -1 0
1;
#X obj 184 622 tgl 15 0 empty empty empty 17 7 0 10 -262144 -1 -1 0
1;
#N canvas 72 402 549 316 two 0;
#X obj 28 114 +~;
#X obj 28 54 *~ 0.707;
#X obj 28 21 r~ input;
#X obj 28 268 throw~ output;
#X obj 93 54 r key;
#X obj 134 54 r scale;
#X obj 189 54 r t_smooth;
#X obj 266 54 r transpose;
#X obj 28 204 +~;
#X obj 28 144 *~ 0.707;
#X obj 93 145 r key;
#X obj 134 145 r scale;
#X obj 189 145 r t_smooth;
#X obj 266 145 r transpose;
#X obj 417 83 switch~;
#X obj 417 36 tgl 15 0 empty empty empty 17 7 0 10 -262144 -1 -1 0
1;
#X obj 417 9 inlet on;
#X obj 28 241 *~;
#X obj 417 54 t f f;
#X obj 450 116 sel 1;
#X msg 450 142 0 \, 1 20;
#X obj 450 167 vline~;
#X obj 47 82 reshift~ C ionian 440 200 15 0;
#X obj 47 172 reshift~ C ionian 440 200 15 0;
#X connect 0 0 9 0;
#X connect 1 0 0 0;
#X connect 1 0 22 0;
#X connect 2 0 1 0;
#X connect 4 0 22 1;
#X connect 5 0 22 2;
#X connect 6 0 22 3;
#X connect 7 0 22 4;
#X connect 8 0 17 0;
#X connect 9 0 8 0;
#X connect 9 0 23 0;
#X connect 10 0 23 1;
#X connect 11 0 23 2;
#X connect 12 0 23 3;
#X connect 13 0 23 4;
#X connect 15 0 18 0;
#X connect 16 0 15 0;
#X connect 17 0 3 0;
#X connect 18 0 14 0;
#X connect 18 1 19 0;
#X connect 19 0 20 0;
#X connect 20 0 21 0;
#X connect 21 0 17 1;
#X connect 22 0 0 1;
#X connect 23 0 8 1;
#X restore 184 642 pd two;
#X obj 234 622 tgl 15 0 empty empty empty 17 7 0 10 -262144 -1 -1 0
1;
#N canvas 531 104 897 976 three 0;
#X obj 28 54 *~ 0.707;
#X obj 653 12 inlet on;
#X obj 28 21 r~ input;
#X obj 28 935 throw~ output;
#X obj 72 210 r key;
#X obj 113 210 r scale;
#X obj 168 210 r t_smooth;
#X obj 245 210 r transpose;
#X obj 653 706 switch~;
#X obj 653 43 tgl 15 0 empty empty empty 17 7 0 10 -262144 -1 -1 0
1;
#X obj 28 908 *~;
#X obj 686 739 sel 1;
#X msg 686 765 0 \, 1 20;
#X obj 686 790 vline~;
#X msg 73 175 pd~ stop;
#X msg 72 235 key \$1;
#X msg 132 235 scale \$1;
#X msg 212 235 smooth \$1;
#X msg 292 235 transpose \$1;
#X obj 47 269 pd~ -ninsig 1 -noutsig 1;
#X msg 64 150 pd~ start -nogui reshift~_process.pd;
#X obj 62 112 select 0 1;
#X obj 62 87 r three_on;
#X obj 653 677 t f f f;
#X obj 724 703 s three_on;
#X obj 27 307 +~;
#X obj 28 334 *~ 0.707;
#X obj 72 490 r key;
#X obj 113 490 r scale;
#X obj 168 490 r t_smooth;
#X obj 245 490 r transpose;
#X msg 73 455 pd~ stop;
#X msg 72 515 key \$1;
#X msg 132 515 scale \$1;
#X msg 212 515 smooth \$1;
#X msg 292 515 transpose \$1;
#X obj 47 549 pd~ -ninsig 1 -noutsig 1;
#X msg 64 430 pd~ start -nogui reshift~_process.pd;
#X obj 62 392 select 0 1;
#X obj 62 367 r three_on;
#X obj 27 587 +~;
#X obj 28 614 *~ 0.707;
#X obj 72 770 r key;
#X obj 113 770 r scale;
#X obj 168 770 r t_smooth;
#X obj 245 770 r transpose;
#X msg 73 735 pd~ stop;
#X msg 72 795 key \$1;
#X msg 132 795 scale \$1;
#X msg 212 795 smooth \$1;
#X msg 292 795 transpose \$1;
#X obj 47 829 pd~ -ninsig 1 -noutsig 1;
#X msg 64 710 pd~ start -nogui reshift~_process.pd;
#X obj 62 672 select 0 1;
#X obj 62 647 r three_on;
#X obj 27 867 +~;
#X text 228 270 using processes to distribute DSP load;
#X connect 0 0 25 0;
#X connect 0 0 19 0;
#X connect 1 0 9 0;
#X connect 2 0 0 0;
#X connect 4 0 15 0;
#X connect 5 0 16 0;
#X connect 6 0 17 0;
#X connect 7 0 18 0;
#X connect 9 0 23 0;
#X connect 10 0 3 0;
#X connect 11 0 12 0;
#X connect 12 0 13 0;
#X connect 13 0 10 1;
#X connect 14 0 19 0;
#X connect 15 0 19 0;
#X connect 16 0 19 0;
#X connect 17 0 19 0;
#X connect 18 0 19 0;
#X connect 19 1 25 1;
#X connect 20 0 19 0;
#X connect 21 0 14 0;
#X connect 21 1 20 0;
#X connect 22 0 21 0;
#X connect 23 0 8 0;
#X connect 23 1 11 0;
#X connect 23 2 24 0;
#X connect 25 0 26 0;
#X connect 26 0 40 0;
#X connect 26 0 36 0;
#X connect 27 0 32 0;
#X connect 28 0 33 0;
#X connect 29 0 34 0;
#X connect 30 0 35 0;
#X connect 31 0 36 0;
#X connect 32 0 36 0;
#X connect 33 0 36 0;
#X connect 34 0 36 0;
#X connect 35 0 36 0;
#X connect 36 1 40 1;
#X connect 37 0 36 0;
#X connect 38 0 31 0;
#X connect 38 1 37 0;
#X connect 39 0 38 0;
#X connect 40 0 41 0;
#X connect 41 0 55 0;
#X connect 41 0 51 0;
#X connect 42 0 47 0;
#X connect 43 0 48 0;
#X connect 44 0 49 0;
#X connect 45 0 50 0;
#X connect 46 0 51 0;
#X connect 47 0 51 0;
#X connect 48 0 51 0;
#X connect 49 0 51 0;
#X connect 50 0 51 0;
#X connect 51 1 55 1;
#X connect 52 0 51 0;
#X connect 53 0 46 0;
#X connect 53 1 52 0;
#X connect 54 0 53 0;
#X connect 55 0 10 0;
#X restore 234 642 pd three;
#X obj 299 622 tgl 15 0 empty empty empty 17 7 0 10 -262144 -1 -1 0
1;
#N canvas 72 96 1107 745 four 0;
#X obj 27 54 *~ 0.707;
#X obj 939 53 inlet on;
#X obj 27 21 r~ input;
#X obj 523 699 throw~ output;
#X obj 72 210 r key;
#X obj 113 210 r scale;
#X obj 168 210 r t_smooth;
#X obj 245 210 r transpose;
#X obj 939 559 switch~;
#X obj 939 84 tgl 15 0 empty empty empty 17 7 0 10 -262144 -1 -1 0
1;
#X obj 523 672 *~;
#X obj 972 592 sel 1;
#X msg 972 618 0 \, 1 20;
#X obj 972 643 vline~;
#X msg 73 175 pd~ stop;
#X msg 72 235 key \$1;
#X msg 132 235 scale \$1;
#X msg 212 235 smooth \$1;
#X msg 292 235 transpose \$1;
#X obj 47 269 pd~ -ninsig 1 -noutsig 1;
#X msg 64 150 pd~ start -nogui reshift~_process.pd;
#X obj 62 112 select 0 1;
#X obj 939 530 t f f f;
#X obj 27 307 +~;
#X obj 27 334 *~ 0.707;
#X obj 72 490 r key;
#X obj 113 490 r scale;
#X obj 168 490 r t_smooth;
#X obj 245 490 r transpose;
#X msg 73 455 pd~ stop;
#X msg 72 515 key \$1;
#X msg 132 515 scale \$1;
#X msg 212 515 smooth \$1;
#X msg 292 515 transpose \$1;
#X obj 47 549 pd~ -ninsig 1 -noutsig 1;
#X msg 64 430 pd~ start -nogui reshift~_process.pd;
#X obj 62 392 select 0 1;
#X obj 27 587 +~;
#X obj 523 49 *~ 0.707;
#X obj 568 205 r key;
#X obj 609 205 r scale;
#X obj 664 205 r t_smooth;
#X obj 741 205 r transpose;
#X msg 569 170 pd~ stop;
#X msg 568 230 key \$1;
#X msg 628 230 scale \$1;
#X msg 708 230 smooth \$1;
#X msg 788 230 transpose \$1;
#X obj 543 264 pd~ -ninsig 1 -noutsig 1;
#X msg 560 145 pd~ start -nogui reshift~_process.pd;
#X obj 558 107 select 0 1;
#X obj 523 302 +~;
#X obj 62 87 r four_on;
#X obj 62 367 r four_on;
#X obj 558 82 r four_on;
#X obj 523 329 *~ 0.707;
#X obj 568 485 r key;
#X obj 609 485 r scale;
#X obj 664 485 r t_smooth;
#X obj 741 485 r transpose;
#X msg 569 450 pd~ stop;
#X msg 568 510 key \$1;
#X msg 628 510 scale \$1;
#X msg 708 510 smooth \$1;
#X msg 788 510 transpose \$1;
#X obj 543 544 pd~ -ninsig 1 -noutsig 1;
#X msg 560 425 pd~ start -nogui reshift~_process.pd;
#X obj 558 387 select 0 1;
#X obj 523 582 +~;
#X obj 558 362 r four_on;
#X obj 998 559 s four_on;
#X connect 0 0 23 0;
#X connect 0 0 19 0;
#X connect 1 0 9 0;
#X connect 2 0 0 0;
#X connect 4 0 15 0;
#X connect 5 0 16 0;
#X connect 6 0 17 0;
#X connect 7 0 18 0;
#X connect 9 0 22 0;
#X connect 10 0 3 0;
#X connect 11 0 12 0;
#X connect 12 0 13 0;
#X connect 13 0 10 1;
#X connect 14 0 19 0;
#X connect 15 0 19 0;
#X connect 16 0 19 0;
#X connect 17 0 19 0;
#X connect 18 0 19 0;
#X connect 19 1 23 1;
#X connect 20 0 19 0;
#X connect 21 0 14 0;
#X connect 21 1 20 0;
#X connect 22 0 8 0;
#X connect 22 1 11 0;
#X connect 22 2 70 0;
#X connect 23 0 24 0;
#X connect 24 0 37 0;
#X connect 24 0 34 0;
#X connect 25 0 30 0;
#X connect 26 0 31 0;
#X connect 27 0 32 0;
#X connect 28 0 33 0;
#X connect 29 0 34 0;
#X connect 30 0 34 0;
#X connect 31 0 34 0;
#X connect 32 0 34 0;
#X connect 33 0 34 0;
#X connect 34 1 37 1;
#X connect 35 0 34 0;
#X connect 36 0 29 0;
#X connect 36 1 35 0;
#X connect 37 0 38 0;
#X connect 38 0 51 0;
#X connect 38 0 48 0;
#X connect 39 0 44 0;
#X connect 40 0 45 0;
#X connect 41 0 46 0;
#X connect 42 0 47 0;
#X connect 43 0 48 0;
#X connect 44 0 48 0;
#X connect 45 0 48 0;
#X connect 46 0 48 0;
#X connect 47 0 48 0;
#X connect 48 1 51 1;
#X connect 49 0 48 0;
#X connect 50 0 43 0;
#X connect 50 1 49 0;
#X connect 51 0 55 0;
#X connect 52 0 21 0;
#X connect 53 0 36 0;
#X connect 54 0 50 0;
#X connect 55 0 68 0;
#X connect 55 0 65 0;
#X connect 56 0 61 0;
#X connect 57 0 62 0;
#X connect 58 0 63 0;
#X connect 59 0 64 0;
#X connect 60 0 65 0;
#X connect 61 0 65 0;
#X connect 62 0 65 0;
#X connect 63 0 65 0;
#X connect 64 0 65 0;
#X connect 65 1 68 1;
#X connect 66 0 65 0;
#X connect 67 0 60 0;
#X connect 67 1 66 0;
#X connect 68 0 10 0;
#X connect 69 0 67 0;
#X restore 299 642 pd four;
#X obj 359 622 tgl 15 0 empty empty empty 17 7 0 10 -262144 -1 -1 0
1;
#N canvas 522 180 1369 709 six 0;
#X obj 27 54 *~ 0.707;
#X obj 1230 26 inlet on;
#X obj 27 21 r~ input;
#X obj 845 669 throw~ output;
#X obj 72 210 r key;
#X obj 113 210 r scale;
#X obj 168 210 r t_smooth;
#X obj 245 210 r transpose;
#X obj 1230 532 switch~;
#X obj 1230 57 tgl 15 0 empty empty empty 17 7 0 10 -262144 -1 -1 0
1;
#X obj 845 642 *~;
#X obj 1263 565 sel 1;
#X msg 1263 591 0 \, 1 20;
#X obj 1263 616 vline~;
#X msg 73 175 pd~ stop;
#X msg 72 235 key \$1;
#X msg 132 235 scale \$1;
#X msg 212 235 smooth \$1;
#X msg 292 235 transpose \$1;
#X obj 47 269 pd~ -ninsig 1 -noutsig 1;
#X msg 64 150 pd~ start -nogui reshift~_process.pd;
#X obj 62 112 select 0 1;
#X obj 1230 503 t f f f;
#X obj 27 307 +~;
#X obj 27 334 *~ 0.707;
#X obj 72 490 r key;
#X obj 113 490 r scale;
#X obj 168 490 r t_smooth;
#X obj 245 490 r transpose;
#X msg 73 455 pd~ stop;
#X msg 72 515 key \$1;
#X msg 132 515 scale \$1;
#X msg 212 515 smooth \$1;
#X msg 292 515 transpose \$1;
#X obj 47 549 pd~ -ninsig 1 -noutsig 1;
#X msg 64 430 pd~ start -nogui reshift~_process.pd;
#X obj 62 392 select 0 1;
#X obj 27 587 +~;
#X obj 433 49 *~ 0.707;
#X obj 478 205 r key;
#X obj 519 205 r scale;
#X obj 574 205 r t_smooth;
#X obj 651 205 r transpose;
#X msg 479 170 pd~ stop;
#X msg 478 230 key \$1;
#X msg 538 230 scale \$1;
#X msg 618 230 smooth \$1;
#X msg 698 230 transpose \$1;
#X obj 453 264 pd~ -ninsig 1 -noutsig 1;
#X msg 470 145 pd~ start -nogui reshift~_process.pd;
#X obj 468 107 select 0 1;
#X obj 433 302 +~;
#X obj 433 329 *~ 0.707;
#X obj 478 485 r key;
#X obj 519 485 r scale;
#X obj 574 485 r t_smooth;
#X obj 651 485 r transpose;
#X msg 479 450 pd~ stop;
#X msg 478 510 key \$1;
#X msg 538 510 scale \$1;
#X msg 618 510 smooth \$1;
#X msg 698 510 transpose \$1;
#X obj 453 544 pd~ -ninsig 1 -noutsig 1;
#X msg 470 425 pd~ start -nogui reshift~_process.pd;
#X obj 468 387 select 0 1;
#X obj 433 582 +~;
#X obj 1289 532 s six_on;
#X obj 62 87 r six_on;
#X obj 62 367 r six_on;
#X obj 468 82 r six_on;
#X obj 468 362 r six_on;
#X obj 813 49 *~ 0.707;
#X obj 858 205 r key;
#X obj 899 205 r scale;
#X obj 954 205 r t_smooth;
#X obj 1031 205 r transpose;
#X msg 859 170 pd~ stop;
#X msg 858 230 key \$1;
#X msg 918 230 scale \$1;
#X msg 998 230 smooth \$1;
#X msg 1078 230 transpose \$1;
#X obj 833 264 pd~ -ninsig 1 -noutsig 1;
#X msg 850 145 pd~ start -nogui reshift~_process.pd;
#X obj 848 107 select 0 1;
#X obj 813 302 +~;
#X obj 813 329 *~ 0.707;
#X obj 858 485 r key;
#X obj 899 485 r scale;
#X obj 954 485 r t_smooth;
#X obj 1031 485 r transpose;
#X msg 859 450 pd~ stop;
#X msg 858 510 key \$1;
#X msg 918 510 scale \$1;
#X msg 998 510 smooth \$1;
#X msg 1078 510 transpose \$1;
#X obj 833 544 pd~ -ninsig 1 -noutsig 1;
#X msg 850 425 pd~ start -nogui reshift~_process.pd;
#X obj 848 387 select 0 1;
#X obj 813 582 +~;
#X obj 848 82 r six_on;
#X obj 848 362 r six_on;
#X connect 0 0 23 0;
#X connect 0 0 19 0;
#X connect 1 0 9 0;
#X connect 2 0 0 0;
#X connect 4 0 15 0;
#X connect 5 0 16 0;
#X connect 6 0 17 0;
#X connect 7 0 18 0;
#X connect 9 0 22 0;
#X connect 10 0 3 0;
#X connect 11 0 12 0;
#X connect 12 0 13 0;
#X connect 13 0 10 1;
#X connect 14 0 19 0;
#X connect 15 0 19 0;
#X connect 16 0 19 0;
#X connect 17 0 19 0;
#X connect 18 0 19 0;
#X connect 19 1 23 1;
#X connect 20 0 19 0;
#X connect 21 0 14 0;
#X connect 21 1 20 0;
#X connect 22 0 8 0;
#X connect 22 1 11 0;
#X connect 22 2 66 0;
#X connect 23 0 24 0;
#X connect 24 0 37 0;
#X connect 24 0 34 0;
#X connect 25 0 30 0;
#X connect 26 0 31 0;
#X connect 27 0 32 0;
#X connect 28 0 33 0;
#X connect 29 0 34 0;
#X connect 30 0 34 0;
#X connect 31 0 34 0;
#X connect 32 0 34 0;
#X connect 33 0 34 0;
#X connect 34 1 37 1;
#X connect 35 0 34 0;
#X connect 36 0 29 0;
#X connect 36 1 35 0;
#X connect 37 0 38 0;
#X connect 38 0 51 0;
#X connect 38 0 48 0;
#X connect 39 0 44 0;
#X connect 40 0 45 0;
#X connect 41 0 46 0;
#X connect 42 0 47 0;
#X connect 43 0 48 0;
#X connect 44 0 48 0;
#X connect 45 0 48 0;
#X connect 46 0 48 0;
#X connect 47 0 48 0;
#X connect 48 1 51 1;
#X connect 49 0 48 0;
#X connect 50 0 43 0;
#X connect 50 1 49 0;
#X connect 51 0 52 0;
#X connect 52 0 65 0;
#X connect 52 0 62 0;
#X connect 53 0 58 0;
#X connect 54 0 59 0;
#X connect 55 0 60 0;
#X connect 56 0 61 0;
#X connect 57 0 62 0;
#X connect 58 0 62 0;
#X connect 59 0 62 0;
#X connect 60 0 62 0;
#X connect 61 0 62 0;
#X connect 62 1 65 1;
#X connect 63 0 62 0;
#X connect 64 0 57 0;
#X connect 64 1 63 0;
#X connect 65 0 71 0;
#X connect 67 0 21 0;
#X connect 68 0 36 0;
#X connect 69 0 50 0;
#X connect 70 0 64 0;
#X connect 71 0 84 0;
#X connect 71 0 81 0;
#X connect 72 0 77 0;
#X connect 73 0 78 0;
#X connect 74 0 79 0;
#X connect 75 0 80 0;
#X connect 76 0 81 0;
#X connect 77 0 81 0;
#X connect 78 0 81 0;
#X connect 79 0 81 0;
#X connect 80 0 81 0;
#X connect 81 1 84 1;
#X connect 82 0 81 0;
#X connect 83 0 76 0;
#X connect 83 1 82 0;
#X connect 84 0 85 0;
#X connect 85 0 98 0;
#X connect 85 0 95 0;
#X connect 86 0 91 0;
#X connect 87 0 92 0;
#X connect 88 0 93 0;
#X connect 89 0 94 0;
#X connect 90 0 95 0;
#X connect 91 0 95 0;
#X connect 92 0 95 0;
#X connect 93 0 95 0;
#X connect 94 0 95 0;
#X connect 95 1 98 1;
#X connect 96 0 95 0;
#X connect 97 0 90 0;
#X connect 97 1 96 0;
#X connect 98 0 10 0;
#X connect 99 0 83 0;
#X connect 100 0 97 0;
#X restore 359 642 pd six;
#X obj 409 622 tgl 15 0 empty empty empty 17 7 0 10 -262144 -1 -1 0
1;
#N canvas 79 173 1814 709 eight 0;
#X obj 27 54 *~ 0.707;
#X obj 1680 18 inlet on;
#X obj 27 21 r~ input;
#X obj 1654 661 throw~ output;
#X obj 72 210 r key;
#X obj 113 210 r scale;
#X obj 168 210 r t_smooth;
#X obj 245 210 r transpose;
#X obj 1680 524 switch~;
#X obj 1680 49 tgl 15 0 empty empty empty 17 7 0 10 -262144 -1 -1 0
1;
#X obj 1654 634 *~;
#X obj 1713 557 sel 1;
#X msg 1713 583 0 \, 1 20;
#X obj 1713 608 vline~;
#X msg 73 175 pd~ stop;
#X msg 72 235 key \$1;
#X msg 132 235 scale \$1;
#X msg 212 235 smooth \$1;
#X msg 292 235 transpose \$1;
#X obj 47 269 pd~ -ninsig 1 -noutsig 1;
#X msg 64 150 pd~ start -nogui reshift~_process.pd;
#X obj 62 112 select 0 1;
#X obj 1680 495 t f f f;
#X obj 27 307 +~;
#X obj 27 334 *~ 0.707;
#X obj 72 490 r key;
#X obj 113 490 r scale;
#X obj 168 490 r t_smooth;
#X obj 245 490 r transpose;
#X msg 73 455 pd~ stop;
#X msg 72 515 key \$1;
#X msg 132 515 scale \$1;
#X msg 212 515 smooth \$1;
#X msg 292 515 transpose \$1;
#X obj 47 549 pd~ -ninsig 1 -noutsig 1;
#X msg 64 430 pd~ start -nogui reshift~_process.pd;
#X obj 62 392 select 0 1;
#X obj 27 587 +~;
#X obj 433 49 *~ 0.707;
#X obj 478 205 r key;
#X obj 519 205 r scale;
#X obj 574 205 r t_smooth;
#X obj 651 205 r transpose;
#X msg 479 170 pd~ stop;
#X msg 478 230 key \$1;
#X msg 538 230 scale \$1;
#X msg 618 230 smooth \$1;
#X msg 698 230 transpose \$1;
#X obj 453 264 pd~ -ninsig 1 -noutsig 1;
#X msg 470 145 pd~ start -nogui reshift~_process.pd;
#X obj 468 107 select 0 1;
#X obj 433 302 +~;
#X obj 433 329 *~ 0.707;
#X obj 478 485 r key;
#X obj 519 485 r scale;
#X obj 574 485 r t_smooth;
#X obj 651 485 r transpose;
#X msg 479 450 pd~ stop;
#X msg 478 510 key \$1;
#X msg 538 510 scale \$1;
#X msg 618 510 smooth \$1;
#X msg 698 510 transpose \$1;
#X obj 453 544 pd~ -ninsig 1 -noutsig 1;
#X msg 470 425 pd~ start -nogui reshift~_process.pd;
#X obj 468 387 select 0 1;
#X obj 433 582 +~;
#X obj 813 49 *~ 0.707;
#X obj 858 205 r key;
#X obj 899 205 r scale;
#X obj 954 205 r t_smooth;
#X obj 1031 205 r transpose;
#X msg 859 170 pd~ stop;
#X msg 858 230 key \$1;
#X msg 918 230 scale \$1;
#X msg 998 230 smooth \$1;
#X msg 1078 230 transpose \$1;
#X obj 833 264 pd~ -ninsig 1 -noutsig 1;
#X msg 850 145 pd~ start -nogui reshift~_process.pd;
#X obj 848 107 select 0 1;
#X obj 813 302 +~;
#X obj 813 329 *~ 0.707;
#X obj 858 485 r key;
#X obj 899 485 r scale;
#X obj 954 485 r t_smooth;
#X obj 1031 485 r transpose;
#X msg 859 450 pd~ stop;
#X msg 858 510 key \$1;
#X msg 918 510 scale \$1;
#X msg 998 510 smooth \$1;
#X msg 1078 510 transpose \$1;
#X obj 833 544 pd~ -ninsig 1 -noutsig 1;
#X msg 850 425 pd~ start -nogui reshift~_process.pd;
#X obj 848 387 select 0 1;
#X obj 813 582 +~;
#X obj 1739 524 s eight_on;
#X obj 62 87 r eight_on;
#X obj 62 367 r eight_on;
#X obj 468 82 r eight_on;
#X obj 468 362 r eight_on;
#X obj 848 82 r eight_on;
#X obj 848 362 r eight_on;
#X obj 1193 49 *~ 0.707;
#X obj 1238 205 r key;
#X obj 1279 205 r scale;
#X obj 1334 205 r t_smooth;
#X obj 1411 205 r transpose;
#X msg 1239 170 pd~ stop;
#X msg 1238 230 key \$1;
#X msg 1298 230 scale \$1;
#X msg 1378 230 smooth \$1;
#X msg 1458 230 transpose \$1;
#X obj 1213 264 pd~ -ninsig 1 -noutsig 1;
#X msg 1230 145 pd~ start -nogui reshift~_process.pd;
#X obj 1228 107 select 0 1;
#X obj 1193 302 +~;
#X obj 1193 329 *~ 0.707;
#X obj 1238 485 r key;
#X obj 1279 485 r scale;
#X obj 1334 485 r t_smooth;
#X obj 1411 485 r transpose;
#X msg 1239 450 pd~ stop;
#X msg 1238 510 key \$1;
#X msg 1298 510 scale \$1;
#X msg 1378 510 smooth \$1;
#X msg 1458 510 transpose \$1;
#X obj 1213 544 pd~ -ninsig 1 -noutsig 1;
#X msg 1230 425 pd~ start -nogui reshift~_process.pd;
#X obj 1228 387 select 0 1;
#X obj 1193 582 +~;
#X obj 1228 82 r eight_on;
#X obj 1228 362 r eight_on;
#X connect 0 0 23 0;
#X connect 0 0 19 0;
#X connect 1 0 9 0;
#X connect 2 0 0 0;
#X connect 4 0 15 0;
#X connect 5 0 16 0;
#X connect 6 0 17 0;
#X connect 7 0 18 0;
#X connect 9 0 22 0;
#X connect 10 0 3 0;
#X connect 11 0 12 0;
#X connect 12 0 13 0;
#X connect 13 0 10 1;
#X connect 14 0 19 0;
#X connect 15 0 19 0;
#X connect 16 0 19 0;
#X connect 17 0 19 0;
#X connect 18 0 19 0;
#X connect 19 1 23 1;
#X connect 20 0 19 0;
#X connect 21 0 14 0;
#X connect 21 1 20 0;
#X connect 22 0 8 0;
#X connect 22 1 11 0;
#X connect 22 2 94 0;
#X connect 23 0 24 0;
#X connect 24 0 37 0;
#X connect 24 0 34 0;
#X connect 25 0 30 0;
#X connect 26 0 31 0;
#X connect 27 0 32 0;
#X connect 28 0 33 0;
#X connect 29 0 34 0;
#X connect 30 0 34 0;
#X connect 31 0 34 0;
#X connect 32 0 34 0;
#X connect 33 0 34 0;
#X connect 34 1 37 1;
#X connect 35 0 34 0;
#X connect 36 0 29 0;
#X connect 36 1 35 0;
#X connect 37 0 38 0;
#X connect 38 0 51 0;
#X connect 38 0 48 0;
#X connect 39 0 44 0;
#X connect 40 0 45 0;
#X connect 41 0 46 0;
#X connect 42 0 47 0;
#X connect 43 0 48 0;
#X connect 44 0 48 0;
#X connect 45 0 48 0;
#X connect 46 0 48 0;
#X connect 47 0 48 0;
#X connect 48 1 51 1;
#X connect 49 0 48 0;
#X connect 50 0 43 0;
#X connect 50 1 49 0;
#X connect 51 0 52 0;
#X connect 52 0 65 0;
#X connect 52 0 62 0;
#X connect 53 0 58 0;
#X connect 54 0 59 0;
#X connect 55 0 60 0;
#X connect 56 0 61 0;
#X connect 57 0 62 0;
#X connect 58 0 62 0;
#X connect 59 0 62 0;
#X connect 60 0 62 0;
#X connect 61 0 62 0;
#X connect 62 1 65 1;
#X connect 63 0 62 0;
#X connect 64 0 57 0;
#X connect 64 1 63 0;
#X connect 65 0 66 0;
#X connect 66 0 79 0;
#X connect 66 0 76 0;
#X connect 67 0 72 0;
#X connect 68 0 73 0;
#X connect 69 0 74 0;
#X connect 70 0 75 0;
#X connect 71 0 76 0;
#X connect 72 0 76 0;
#X connect 73 0 76 0;
#X connect 74 0 76 0;
#X connect 75 0 76 0;
#X connect 76 1 79 1;
#X connect 77 0 76 0;
#X connect 78 0 71 0;
#X connect 78 1 77 0;
#X connect 79 0 80 0;
#X connect 80 0 93 0;
#X connect 80 0 90 0;
#X connect 81 0 86 0;
#X connect 82 0 87 0;
#X connect 83 0 88 0;
#X connect 84 0 89 0;
#X connect 85 0 90 0;
#X connect 86 0 90 0;
#X connect 87 0 90 0;
#X connect 88 0 90 0;
#X connect 89 0 90 0;
#X connect 90 1 93 1;
#X connect 91 0 90 0;
#X connect 92 0 85 0;
#X connect 92 1 91 0;
#X connect 93 0 101 0;
#X connect 95 0 21 0;
#X connect 96 0 36 0;
#X connect 97 0 50 0;
#X connect 98 0 64 0;
#X connect 99 0 78 0;
#X connect 100 0 92 0;
#X connect 101 0 114 0;
#X connect 101 0 111 0;
#X connect 102 0 107 0;
#X connect 103 0 108 0;
#X connect 104 0 109 0;
#X connect 105 0 110 0;
#X connect 106 0 111 0;
#X connect 107 0 111 0;
#X connect 108 0 111 0;
#X connect 109 0 111 0;
#X connect 110 0 111 0;
#X connect 111 1 114 1;
#X connect 112 0 111 0;
#X connect 113 0 106 0;
#X connect 113 1 112 0;
#X connect 114 0 115 0;
#X connect 115 0 128 0;
#X connect 115 0 125 0;
#X connect 116 0 121 0;
#X connect 117 0 122 0;
#X connect 118 0 123 0;
#X connect 119 0 124 0;
#X connect 120 0 125 0;
#X connect 121 0 125 0;
#X connect 122 0 125 0;
#X connect 123 0 125 0;
#X connect 124 0 125 0;
#X connect 125 1 128 1;
#X connect 126 0 125 0;
#X connect 127 0 120 0;
#X connect 127 1 126 0;
#X connect 128 0 10 0;
#X connect 129 0 113 0;
#X connect 130 0 127 0;
#X restore 409 642 pd eight;
#X text 21 592 using "Rollers" pitch shifter (high DSP load):;
#X obj 24 532 tgl 15 0 empty empty empty 17 7 0 10 -262144 -1 -1 0
1;
#N canvas 72 402 549 316 the_effect 0;
#X obj 47 162 disco~ C ionian 440 20 15 0;
#X obj 417 83 switch~;
#X obj 417 36 tgl 15 0 empty empty empty 17 7 0 10 -262144 -1 -1 0
1;
#X obj 417 9 inlet on;
#X obj 28 21 r~ input;
#X obj 28 268 throw~ output;
#X obj 93 130 r key;
#X obj 134 130 r scale;
#X obj 189 131 r t_smooth;
#X obj 266 131 r transpose;
#X obj 28 241 *~;
#X obj 417 54 t f f;
#X obj 450 116 sel 1;
#X msg 450 142 0 \, 1 20;
#X obj 450 167 vline~;
#X connect 0 0 10 0;
#X connect 2 0 11 0;
#X connect 3 0 2 0;
#X connect 4 0 0 0;
#X connect 6 0 0 1;
#X connect 7 0 0 2;
#X connect 8 0 0 3;
#X connect 9 0 0 4;
#X connect 10 0 5 0;
#X connect 11 0 1 0;
#X connect 11 1 12 0;
#X connect 12 0 13 0;
#X connect 13 0 14 0;
#X connect 14 0 10 1;
#X restore 24 552 pd the_effect;
#X obj 24 622 tgl 15 0 empty empty empty 17 7 0 10 -262144 -1 -1 0
1;
#N canvas 72 402 549 316 the_effect 0;
#X obj 417 83 switch~;
#X obj 417 36 tgl 15 0 empty empty empty 17 7 0 10 -262144 -1 -1 0
1;
#X obj 417 9 inlet on;
#X obj 28 21 r~ input;
#X obj 28 268 throw~ output;
#X obj 93 130 r key;
#X obj 134 130 r scale;
#X obj 189 131 r t_smooth;
#X obj 266 131 r transpose;
#X obj 28 241 *~;
#X obj 417 54 t f f;
#X obj 450 116 sel 1;
#X msg 450 142 0 \, 1 20;
#X obj 450 167 vline~;
#X obj 47 162 reshift~ C ionian 440 200 15 0;
#X connect 1 0 10 0;
#X connect 2 0 1 0;
#X connect 3 0 14 0;
#X connect 5 0 14 1;
#X connect 6 0 14 2;
#X connect 7 0 14 3;
#X connect 8 0 14 4;
#X connect 9 0 4 0;
#X connect 10 0 0 0;
#X connect 10 1 11 0;
#X connect 11 0 12 0;
#X connect 12 0 13 0;
#X connect 13 0 9 1;
#X connect 14 0 9 0;
#X restore 24 642 pd the_effect;
#X text 21 411 original:;
#X obj 22 442 tgl 15 0 empty empty empty 17 7 0 10 -262144 -1 -1 0
1;
#N canvas 72 96 450 300 original 0;
#X obj 35 94 r~ input;
#X obj 35 172 *~;
#X obj 35 197 throw~ output;
#X msg 53 123 \$1 20;
#X obj 53 148 line~;
#X obj 38 22 inlet on;
#X connect 0 0 1 0;
#X connect 1 0 2 0;
#X connect 3 0 4 0;
#X connect 4 0 1 1;
#X connect 5 0 3 0;
#X restore 22 466 pd original;
#X text 17 7 Repeated pitch-shifting for frequency-discretization as
artistic effect for speech signals, f 92;
#X text 15 909 Manuel Planton 2021;
#X symbolatom 715 591 10 0 0 0 - - -;
#X symbolatom 798 592 10 0 0 0 - - -;
#X text 713 558 parameters:;
#X text 28 77 input signals:;
#X connect 0 0 1 1;
#X connect 1 0 13 1;
#X connect 2 0 3 0;
#X connect 2 0 3 1;
#X connect 4 0 5 0;
#X connect 5 0 1 0;
#X connect 6 0 7 0;
#X connect 7 0 8 0;
#X connect 8 0 2 1;
#X connect 9 0 10 0;
#X connect 10 0 13 0;
#X connect 11 0 10 1;
#X connect 13 0 16 0;
#X connect 14 0 1 0;
#X connect 15 0 1 0;
#X connect 17 0 2 0;
#X connect 19 0 18 0;
#X connect 23 0 22 0;
#X connect 26 0 25 0;
#X connect 27 0 28 0;
#X connect 29 0 30 0;
#X connect 31 0 32 0;
#X connect 33 0 34 0;
#X connect 35 0 36 0;
#X connect 37 0 38 0;
#X connect 39 0 40 0;
#X connect 43 0 42 0;
#X connect 44 0 45 0;
#X connect 46 0 47 0;
#X connect 48 0 49 0;
#X connect 50 0 51 0;
#X connect 52 0 53 0;
#X connect 55 0 56 0;
#X connect 57 0 58 0;
#X connect 60 0 61 0;
#X connect 64 0 20 0;
#X connect 65 0 21 0;
