#N canvas 812 161 897 640 12;
#X declare -path pd-aubio/build;
#X declare -path /usr/lib/pd/extra/iemlib -lib iemlib;
#N canvas 72 96 450 300 include 0;
#X obj 14 81 aubio;
#X obj 14 52 declare -path pd-aubio/build;
#X obj 15 24 declare -path /usr/lib/pd/extra/iemlib -lib iemlib;
#X restore 23 17 pd include;
#X text 110 18 Artistic effects using one instance of reshift~.;
#X obj 464 132 tgl 15 0 empty empty empty 17 7 0 10 -262144 -1 -1 0
1;
#X msg 393 45 ../../../samples/Toms_diner.wav;
#X msg 408 73 ../../../samples/ave-maria.wav;
#X obj 390 154 abs/player~;
#X msg 307 70 bang;
#X obj 307 101 openpanel;
#X text 619 45 in F#m;
#X obj 390 179 s~ \$0-sig;
#X obj 362 520 *~;
#X obj 353 550 dac~;
#X obj 403 479 hsl 128 15 0 127 0 0 empty empty vol -2 -8 0 10 -262144
-1 -1 0 1;
#X obj 400 499 dbtorms;
#X floatatom 400 524 5 0 0 0 - - -;
#X obj 264 479 catch~ \$0-fx_sig;
#N canvas 72 405 505 413 pitch_discretization 0;
#X obj 38 301 throw~ \$0-fx_sig;
#X obj 38 166 r~ \$0-sig;
#X symbolatom 88 231 3 0 0 2 key - -;
#X symbolatom 140 231 10 0 0 2 scale - -;
#X floatatom 219 232 5 0 0 2 t_smooth - -;
#X floatatom 279 231 5 0 0 2 transpose - -;
#X obj 310 55 switch~;
#X obj 310 31 tgl 15 0 empty empty empty 17 7 0 10 -262144 -1 -1 0
1;
#X obj 310 6 inlet;
#X obj 37 256 reshift~ C ionian 440 200 15 0;
#X text 18 84 Pitch discretization to a musical scale using n=200 bands
for high quality.;
#X obj 370 5 loadbang;
#X msg 370 30 0;
#X connect 1 0 9 0;
#X connect 2 0 9 1;
#X connect 3 0 9 2;
#X connect 4 0 9 3;
#X connect 5 0 9 4;
#X connect 7 0 6 0;
#X connect 8 0 7 0;
#X connect 9 0 0 0;
#X connect 11 0 12 0;
#X connect 12 0 6 0;
#X restore 34 309 pd pitch_discretization;
#X obj 34 285 tgl 15 0 empty empty empty 17 7 0 10 -262144 -1 -1 0
1;
#X obj 32 228 tgl 15 0 empty empty empty 17 7 0 10 -262144 -1 -1 0
1;
#N canvas 72 405 553 381 discrete_freq_shifter 0;
#X obj 25 313 throw~ \$0-fx_sig;
#X obj 25 178 r~ \$0-sig;
#X symbolatom 75 243 3 0 0 2 key - -;
#X symbolatom 127 243 10 0 0 2 scale - -;
#X floatatom 206 244 5 0 0 2 t_smooth - -;
#X floatatom 266 243 5 0 0 2 transpose - -;
#X obj 310 55 switch~;
#X obj 310 31 tgl 15 0 empty empty empty 17 7 0 10 -262144 -1 -1 0
1;
#X obj 310 6 inlet;
#X obj 24 269 reshift~ C wholetone 440 1 15 0;
#X text 20 91 Using reshift with only one band for discretized frequency
shifting.;
#X obj 370 5 loadbang;
#X msg 370 30 0;
#X connect 1 0 9 0;
#X connect 2 0 9 1;
#X connect 3 0 9 2;
#X connect 4 0 9 3;
#X connect 5 0 9 4;
#X connect 7 0 6 0;
#X connect 8 0 7 0;
#X connect 9 0 0 0;
#X connect 11 0 12 0;
#X connect 12 0 6 0;
#X restore 32 252 pd discrete_freq_shifter;
#X obj 34 342 tgl 15 0 empty empty empty 17 7 0 10 -262144 -1 -1 0
1;
#N canvas 72 262 1822 574 inharmonizer 0;
#X obj 24 517 throw~ \$0-fx_sig;
#X obj 25 134 r~ \$0-sig;
#X symbolatom 75 243 3 0 0 2 key - -;
#X symbolatom 127 243 10 0 0 2 scale - -;
#X floatatom 206 244 5 0 0 2 t_smooth - -;
#X floatatom 266 243 5 0 0 2 transpose - -;
#X obj 310 55 switch~;
#X obj 310 31 tgl 15 0 empty empty empty 17 7 0 10 -262144 -1 -1 0
1;
#X obj 310 6 inlet;
#X obj 24 269 reshift~ C wholetone 440 2 15 0;
#X text 20 91 Using reshift with just a few bands and the wholetone
scale for bigger pitch shifts generates inharmonic sounds.;
#X obj 24 371 *~;
#X obj 42 349 line~;
#X msg 42 326 \$1 20;
#X obj 42 306 tgl 15 0 empty empty empty 17 7 0 10 -262144 -1 -1 0
1;
#X text 75 182 2 bands;
#X symbolatom 385 243 3 0 0 2 key - -;
#X symbolatom 437 243 10 0 0 2 scale - -;
#X floatatom 516 244 5 0 0 2 t_smooth - -;
#X floatatom 576 243 5 0 0 2 transpose - -;
#X obj 334 371 *~;
#X obj 352 349 line~;
#X msg 352 326 \$1 20;
#X obj 352 306 tgl 15 0 empty empty empty 17 7 0 10 -262144 -1 -1 0
1;
#X obj 335 134 r~ \$0-sig;
#X obj 334 269 reshift~ C wholetone 440 3 15 0;
#X text 384 182 3 bands;
#X symbolatom 695 243 3 0 0 2 key - -;
#X symbolatom 747 243 10 0 0 2 scale - -;
#X floatatom 826 244 5 0 0 2 t_smooth - -;
#X floatatom 886 243 5 0 0 2 transpose - -;
#X obj 644 371 *~;
#X obj 662 349 line~;
#X msg 662 326 \$1 20;
#X obj 662 306 tgl 15 0 empty empty empty 17 7 0 10 -262144 -1 -1 0
1;
#X obj 645 134 r~ \$0-sig;
#X text 694 182 4 bands;
#X obj 644 269 reshift~ C wholetone 440 4 15 0;
#X symbolatom 1005 243 3 0 0 2 key - -;
#X symbolatom 1057 243 10 0 0 2 scale - -;
#X floatatom 1136 244 5 0 0 2 t_smooth - -;
#X floatatom 1196 243 5 0 0 2 transpose - -;
#X obj 954 371 *~;
#X obj 972 349 line~;
#X msg 972 326 \$1 20;
#X obj 972 306 tgl 15 0 empty empty empty 17 7 0 10 -262144 -1 -1 0
1;
#X obj 955 134 r~ \$0-sig;
#X text 1004 182 5 bands;
#X obj 954 269 reshift~ C wholetone 440 5 15 0;
#X symbolatom 1315 243 3 0 0 2 key - -;
#X symbolatom 1367 243 10 0 0 2 scale - -;
#X floatatom 1446 244 5 0 0 2 t_smooth - -;
#X floatatom 1506 243 5 0 0 2 transpose - -;
#X obj 1264 371 *~;
#X obj 1282 349 line~;
#X msg 1282 326 \$1 20;
#X obj 1282 306 tgl 15 0 empty empty empty 17 7 0 10 -262144 -1 -1
0 1;
#X obj 1265 134 r~ \$0-sig;
#X text 1314 182 6 bands;
#X obj 1264 269 reshift~ C wholetone 440 6 15 0;
#X symbolatom 1625 243 3 0 0 2 key - -;
#X symbolatom 1677 243 10 0 0 2 scale - -;
#X floatatom 1756 244 5 0 0 2 t_smooth - -;
#X floatatom 1816 243 5 0 0 2 transpose - -;
#X obj 1574 371 *~;
#X obj 1592 349 line~;
#X msg 1592 326 \$1 20;
#X obj 1592 306 tgl 15 0 empty empty empty 17 7 0 10 -262144 -1 -1
0 1;
#X obj 1575 134 r~ \$0-sig;
#X text 1624 182 10 bands;
#X obj 1574 269 reshift~ C wholetone 440 10 15 0;
#X obj 370 5 loadbang;
#X msg 370 30 0;
#X connect 1 0 9 0;
#X connect 2 0 9 1;
#X connect 3 0 9 2;
#X connect 4 0 9 3;
#X connect 5 0 9 4;
#X connect 7 0 6 0;
#X connect 8 0 7 0;
#X connect 9 0 11 0;
#X connect 11 0 0 0;
#X connect 12 0 11 1;
#X connect 13 0 12 0;
#X connect 14 0 13 0;
#X connect 16 0 25 1;
#X connect 17 0 25 2;
#X connect 18 0 25 3;
#X connect 19 0 25 4;
#X connect 20 0 0 0;
#X connect 21 0 20 1;
#X connect 22 0 21 0;
#X connect 23 0 22 0;
#X connect 24 0 25 0;
#X connect 25 0 20 0;
#X connect 27 0 37 1;
#X connect 28 0 37 2;
#X connect 29 0 37 3;
#X connect 30 0 37 4;
#X connect 31 0 0 0;
#X connect 32 0 31 1;
#X connect 33 0 32 0;
#X connect 34 0 33 0;
#X connect 35 0 37 0;
#X connect 37 0 31 0;
#X connect 38 0 48 1;
#X connect 39 0 48 2;
#X connect 40 0 48 3;
#X connect 41 0 48 4;
#X connect 42 0 0 0;
#X connect 43 0 42 1;
#X connect 44 0 43 0;
#X connect 45 0 44 0;
#X connect 46 0 48 0;
#X connect 48 0 42 0;
#X connect 49 0 59 1;
#X connect 50 0 59 2;
#X connect 51 0 59 3;
#X connect 52 0 59 4;
#X connect 53 0 0 0;
#X connect 54 0 53 1;
#X connect 55 0 54 0;
#X connect 56 0 55 0;
#X connect 57 0 59 0;
#X connect 59 0 53 0;
#X connect 60 0 70 1;
#X connect 61 0 70 2;
#X connect 62 0 70 3;
#X connect 63 0 70 4;
#X connect 64 0 0 0;
#X connect 65 0 64 1;
#X connect 66 0 65 0;
#X connect 67 0 66 0;
#X connect 68 0 70 0;
#X connect 70 0 64 0;
#X connect 71 0 72 0;
#X connect 72 0 6 0;
#X restore 34 366 pd inharmonizer;
#X obj 36 398 tgl 15 0 empty empty empty 17 7 0 10 -262144 -1 -1 0
1;
#N canvas 209 253 505 356 vibrato 0;
#X obj 16 277 throw~ \$0-fx_sig;
#X obj 16 142 r~ \$0-sig;
#X symbolatom 66 207 3 0 0 2 key - -;
#X symbolatom 118 207 10 0 0 2 scale - -;
#X floatatom 197 208 5 0 0 2 t_smooth - -;
#X floatatom 257 207 5 0 0 2 transpose - -;
#X obj 310 55 switch~;
#X obj 310 31 tgl 15 0 empty empty empty 17 7 0 10 -262144 -1 -1 0
1;
#X obj 310 6 inlet;
#X obj 15 232 reshift~ C ionian 440 200 15 0;
#X obj 348 269 snapshot~;
#X floatatom 388 177 5 0 0 1 range - -;
#X obj 421 216 tgl 15 0 empty empty empty 17 7 0 10 -262144 -1 -1 0
1;
#X obj 421 241 metro 10;
#X obj 349 199 *~ 0.5;
#X floatatom 350 117 5 0 0 2 freq - -;
#X text 19 24 pitch discretized vibrato;
#X obj 350 145 osc~ 3;
#X obj 370 5 loadbang;
#X msg 370 30 0;
#X connect 1 0 9 0;
#X connect 2 0 9 1;
#X connect 3 0 9 2;
#X connect 4 0 9 3;
#X connect 5 0 9 4;
#X connect 7 0 6 0;
#X connect 8 0 7 0;
#X connect 9 0 0 0;
#X connect 10 0 9 4;
#X connect 11 0 14 1;
#X connect 12 0 13 0;
#X connect 13 0 10 0;
#X connect 14 0 10 0;
#X connect 15 0 17 0;
#X connect 17 0 14 0;
#X connect 18 0 19 0;
#X connect 19 0 6 0;
#X restore 36 422 pd vibrato;
#X obj 267 226 tgl 15 0 empty empty empty 17 7 0 10 -262144 -1 -1 0
1;
#N canvas 609 245 669 456 pitch_disc_feed_forward_delay 0;
#X obj 255 390 throw~ \$0-fx_sig;
#X obj 254 161 r~ \$0-sig;
#X symbolatom 305 253 3 0 0 2 key - -;
#X symbolatom 357 253 10 0 0 2 scale - -;
#X floatatom 436 254 5 0 0 2 t_smooth - -;
#X floatatom 496 253 5 0 0 2 transpose - -;
#X obj 310 55 switch~;
#X obj 310 31 tgl 15 0 empty empty empty 17 7 0 10 -262144 -1 -1 0
1;
#X obj 310 6 inlet;
#X obj 28 306 delwrite~ \$0-pdffd 1000;
#X obj 27 204 delread~ \$0-pdffd 400;
#X obj 27 268 *~ 0.3;
#X floatatom 27 165 5 0 0 2 delay - -;
#X floatatom 76 166 5 0 0 2 feedback - -;
#X obj 254 278 reshift~ C chromatic 440 200 0 0;
#X obj 66 243 clip -0.9 0.9;
#X text 18 84 Delay with pitch discretization in feed forward path.
(interesting with transposition);
#X obj 370 5 loadbang;
#X msg 370 30 0;
#X connect 1 0 9 0;
#X connect 1 0 14 0;
#X connect 2 0 14 1;
#X connect 3 0 14 2;
#X connect 4 0 14 3;
#X connect 5 0 14 4;
#X connect 7 0 6 0;
#X connect 8 0 7 0;
#X connect 10 0 0 0;
#X connect 10 0 11 0;
#X connect 11 0 9 0;
#X connect 12 0 10 0;
#X connect 13 0 15 0;
#X connect 14 0 0 0;
#X connect 15 0 11 1;
#X connect 17 0 18 0;
#X connect 18 0 6 0;
#X restore 267 250 pd pitch_disc_feed_forward_delay;
#X obj 267 286 tgl 15 0 empty empty empty 17 7 0 10 -262144 -1 -1 0
1;
#N canvas 245 245 784 628 pitch_disc_feedback_delay 0;
#X obj 255 595 throw~ \$0-fx_sig;
#X obj 254 161 r~ \$0-sig;
#X symbolatom 442 314 3 0 0 2 key - -;
#X symbolatom 494 314 10 0 0 2 scale - -;
#X floatatom 573 315 5 0 0 2 t_smooth - -;
#X floatatom 633 314 5 0 0 2 transpose - -;
#X obj 310 55 switch~;
#X obj 310 31 tgl 15 0 empty empty empty 17 7 0 10 -262144 -1 -1 0
1;
#X obj 310 6 inlet;
#X floatatom 390 184 5 0 0 2 delay - -;
#X floatatom 429 185 5 0 0 2 feedback - -;
#X obj 429 410 clip -0.9 0.9;
#X obj 390 223 delread~ \$0-pdfbd 400;
#X obj 391 473 delwrite~ \$0-pdfbd 1000;
#X obj 390 435 *~ 0.7;
#X obj 391 339 reshift~ C ionian 440 200 0 0;
#X obj 370 5 loadbang;
#X msg 370 30 0;
#X text 18 84 Delay with pitch discretization in feedback path. Interesting
with different scales and transposition.;
#X connect 1 0 0 0;
#X connect 1 0 13 0;
#X connect 2 0 15 1;
#X connect 3 0 15 2;
#X connect 4 0 15 3;
#X connect 5 0 15 4;
#X connect 7 0 6 0;
#X connect 8 0 7 0;
#X connect 9 0 12 0;
#X connect 10 0 11 0;
#X connect 11 0 14 1;
#X connect 12 0 0 0;
#X connect 12 0 15 0;
#X connect 14 0 13 0;
#X connect 15 0 14 0;
#X connect 16 0 17 0;
#X connect 17 0 6 0;
#X restore 267 310 pd pitch_disc_feedback_delay;
#X msg 421 100 ../../../samples/saxophone-weep.wav;
#X connect 2 0 5 1;
#X connect 3 0 5 0;
#X connect 4 0 5 0;
#X connect 5 0 9 0;
#X connect 6 0 7 0;
#X connect 7 0 5 0;
#X connect 10 0 11 0;
#X connect 10 0 11 1;
#X connect 12 0 13 0;
#X connect 13 0 14 0;
#X connect 14 0 10 1;
#X connect 15 0 10 0;
#X connect 17 0 16 0;
#X connect 18 0 19 0;
#X connect 20 0 21 0;
#X connect 22 0 23 0;
#X connect 24 0 25 0;
#X connect 26 0 27 0;
#X connect 28 0 5 0;
