#N canvas 552 161 897 640 12;
#X declare -path pd-aubio/build;
#X declare -path /usr/lib/pd/extra/iemlib -lib iemlib;
#N canvas 72 96 450 300 include 0;
#X obj 14 81 aubio;
#X obj 14 52 declare -path pd-aubio/build;
#X obj 15 24 declare -path /usr/lib/pd/extra/iemlib -lib iemlib;
#X restore 23 17 pd include;
#X obj 464 132 tgl 15 0 empty empty empty 17 7 0 10 -262144 -1 -1 0
1;
#X msg 393 45 ../../../samples/Toms_diner.wav;
#X obj 390 154 abs/player~;
#X msg 307 70 bang;
#X obj 307 101 openpanel;
#X text 619 45 in F#m;
#X obj 390 179 s~ \$0-sig;
#X obj 33 376 tgl 15 0 empty empty empty 17 7 0 10 -262144 -1 -1 0
1;
#X msg 407 78 ../../../samples/saxophone-weep.wav;
#X text 110 18 Artistic effects using two instances of reshift~.;
#X obj 32 252 tgl 15 0 empty empty empty 17 7 0 10 -262144 -1 -1 0
1;
#X obj 368 347 tgl 15 0 empty empty empty 17 7 0 10 -262144 -1 -1 0
1;
#N canvas 100 382 784 628 pitch_disc_feedback_delay 0;
#X obj 351 585 throw~ \$0-fx_sig;
#X obj 353 148 r~ \$0-sig;
#X symbolatom 506 314 3 0 0 2 key - -;
#X symbolatom 558 314 10 0 0 2 scale - -;
#X floatatom 637 315 5 0 0 2 t_smooth - -;
#X floatatom 697 313 5 0 0 2 transpose - -;
#X obj 310 55 switch~;
#X obj 310 31 tgl 15 0 empty empty empty 17 7 0 10 -262144 -1 -1 0
1;
#X obj 310 6 inlet;
#X floatatom 454 184 5 0 0 2 delay - -;
#X floatatom 493 185 5 0 0 2 feedback - -;
#X obj 493 410 clip -0.9 0.9;
#X obj 454 223 delread~ \$0-pdfbd 400;
#X obj 455 473 delwrite~ \$0-pdfbd 1000;
#X obj 454 435 *~ 0.7;
#X obj 455 339 reshift~ C ionian 440 200 0 0;
#X obj 370 5 loadbang;
#X msg 370 30 0;
#X symbolatom 127 308 3 0 0 2 key - -;
#X symbolatom 179 308 10 0 0 2 scale - -;
#X floatatom 258 309 5 0 0 2 t_smooth - -;
#X floatatom 318 308 5 0 0 2 transpose - -;
#X obj 76 333 reshift~ C ionian 440 200 0 0;
#X text 18 84 Delay with pitch discretization in feed forward and feedback
path. Interesting with different scales and transposition.;
#X connect 1 0 13 0;
#X connect 1 0 22 0;
#X connect 2 0 15 1;
#X connect 3 0 15 2;
#X connect 4 0 15 3;
#X connect 5 0 15 4;
#X connect 7 0 6 0;
#X connect 8 0 7 0;
#X connect 9 0 12 0;
#X connect 10 0 11 0;
#X connect 11 0 14 1;
#X connect 12 0 0 0;
#X connect 12 0 15 0;
#X connect 14 0 13 0;
#X connect 15 0 14 0;
#X connect 16 0 17 0;
#X connect 17 0 6 0;
#X connect 18 0 22 1;
#X connect 19 0 22 2;
#X connect 20 0 22 3;
#X connect 21 0 22 4;
#X connect 22 0 0 0;
#X restore 368 371 pd pitch_disc_feedback_delay;
#X obj 368 287 tgl 15 0 empty empty empty 17 7 0 10 -262144 -1 -1 0
1;
#N canvas 72 405 604 484 two_discretized_voices 0;
#X obj 40 419 throw~ \$0-fx_sig;
#X obj 22 159 r~ \$0-sig;
#X symbolatom 217 224 3 0 0 2 key - -;
#X symbolatom 269 224 10 0 0 2 scale - -;
#X floatatom 348 225 5 0 0 2 t_smooth - -;
#X floatatom 408 224 5 0 0 2 transpose - -;
#X obj 310 55 switch~;
#X obj 310 31 tgl 15 0 empty empty empty 17 7 0 10 -262144 -1 -1 0
1;
#X obj 310 6 inlet;
#X obj 370 5 loadbang;
#X msg 370 30 0;
#X symbolatom 217 294 3 0 0 2 key - -;
#X symbolatom 269 294 10 0 0 2 scale - -;
#X floatatom 348 295 5 0 0 2 t_smooth - -;
#X floatatom 408 294 5 0 0 2 transpose - -;
#X obj 166 249 reshift~ F# aeolian 440 200 15 0;
#X obj 166 319 reshift~ F# aeolian 440 200 15 7;
#X text 18 84 Two pitch discretized voices. Sounds best if the right
key and scale is found.;
#X connect 1 0 15 0;
#X connect 1 0 16 0;
#X connect 2 0 15 1;
#X connect 3 0 15 2;
#X connect 4 0 15 3;
#X connect 5 0 15 4;
#X connect 7 0 6 0;
#X connect 8 0 7 0;
#X connect 9 0 10 0;
#X connect 10 0 6 0;
#X connect 11 0 16 1;
#X connect 12 0 16 2;
#X connect 13 0 16 3;
#X connect 14 0 16 4;
#X connect 15 0 0 0;
#X connect 16 0 0 0;
#X restore 32 276 pd two_discretized_voices;
#N canvas 621 399 601 517 vibratos 0;
#X obj 14 447 throw~ \$0-fx_sig;
#X obj 16 142 r~ \$0-sig;
#X symbolatom 66 207 3 0 0 2 key - -;
#X symbolatom 118 207 10 0 0 2 scale - -;
#X floatatom 197 208 5 0 0 2 t_smooth - -;
#X floatatom 257 207 5 0 0 2 transpose - -;
#X obj 310 55 switch~;
#X obj 310 31 tgl 15 0 empty empty empty 17 7 0 10 -262144 -1 -1 0
1;
#X obj 310 6 inlet;
#X obj 15 232 reshift~ C ionian 440 200 15 0;
#X obj 348 269 snapshot~;
#X floatatom 388 177 5 0 0 1 range - -;
#X obj 421 241 metro 10;
#X floatatom 350 117 5 0 0 2 freq - -;
#X obj 370 5 loadbang;
#X msg 370 30 0;
#X symbolatom 76 317 3 0 0 2 key - -;
#X symbolatom 128 317 10 0 0 2 scale - -;
#X floatatom 207 318 5 0 0 2 t_smooth - -;
#X floatatom 267 317 5 0 0 2 transpose - -;
#X obj 25 342 reshift~ C ionian 440 200 15 0;
#X obj 421 214 loadbang;
#X obj 348 315 * -1;
#X obj 350 145 osc~ 0.3;
#X obj 349 199 *~ 1.2;
#X text 19 24 pitch discretized vibrato up and down;
#X connect 1 0 9 0;
#X connect 1 0 20 0;
#X connect 2 0 9 1;
#X connect 3 0 9 2;
#X connect 4 0 9 3;
#X connect 5 0 9 4;
#X connect 7 0 6 0;
#X connect 8 0 7 0;
#X connect 9 0 0 0;
#X connect 10 0 9 4;
#X connect 10 0 22 0;
#X connect 11 0 24 1;
#X connect 12 0 10 0;
#X connect 13 0 23 0;
#X connect 14 0 15 0;
#X connect 15 0 6 0;
#X connect 16 0 20 1;
#X connect 17 0 20 2;
#X connect 18 0 20 3;
#X connect 19 0 20 4;
#X connect 20 0 0 0;
#X connect 21 0 12 0;
#X connect 22 0 20 4;
#X connect 23 0 24 0;
#X connect 24 0 10 0;
#X restore 33 400 pd vibratos;
#X obj 32 312 tgl 15 0 empty empty empty 17 7 0 10 -262144 -1 -1 0
1;
#N canvas 1132 533 604 484 three_voices 0;
#X obj 40 419 throw~ \$0-fx_sig;
#X obj 22 159 r~ \$0-sig;
#X symbolatom 217 224 3 0 0 2 key - -;
#X symbolatom 269 224 10 0 0 2 scale - -;
#X floatatom 348 225 5 0 0 2 t_smooth - -;
#X floatatom 408 224 5 0 0 2 transpose - -;
#X obj 310 55 switch~;
#X obj 310 31 tgl 15 0 empty empty empty 17 7 0 10 -262144 -1 -1 0
1;
#X obj 310 6 inlet;
#X obj 370 5 loadbang;
#X msg 370 30 0;
#X symbolatom 217 294 3 0 0 2 key - -;
#X symbolatom 269 294 10 0 0 2 scale - -;
#X floatatom 348 295 5 0 0 2 t_smooth - -;
#X floatatom 408 294 5 0 0 2 transpose - -;
#X obj 166 319 reshift~ F# aeolian 440 200 15 7;
#X obj 166 249 reshift~ F# aeolian 440 200 15 4;
#X text 18 84 Three voices with two pitch discretized voices and the
original signal;
#X connect 1 0 15 0;
#X connect 1 0 0 0;
#X connect 1 0 16 0;
#X connect 2 0 16 1;
#X connect 3 0 16 2;
#X connect 4 0 16 3;
#X connect 5 0 16 4;
#X connect 7 0 6 0;
#X connect 8 0 7 0;
#X connect 9 0 10 0;
#X connect 10 0 6 0;
#X connect 11 0 15 1;
#X connect 12 0 15 2;
#X connect 13 0 15 3;
#X connect 14 0 15 4;
#X connect 15 0 0 0;
#X connect 16 0 0 0;
#X restore 32 336 pd three_voices;
#N canvas 238 437 669 513 pitch_disc_dual_feed_forward_delay 0;
#X obj 256 459 throw~ \$0-fx_sig;
#X obj 255 230 r~ \$0-sig;
#X symbolatom 359 376 3 0 0 2 key - -;
#X symbolatom 411 376 10 0 0 2 scale - -;
#X floatatom 490 377 5 0 0 2 t_smooth - -;
#X floatatom 550 376 5 0 0 2 transpose - -;
#X obj 310 55 switch~;
#X obj 310 31 tgl 15 0 empty empty empty 17 7 0 10 -262144 -1 -1 0
1;
#X obj 310 6 inlet;
#X floatatom 28 234 5 0 0 2 delay - -;
#X floatatom 77 235 5 0 0 2 feedback - -;
#X obj 67 312 clip -0.9 0.9;
#X obj 370 5 loadbang;
#X msg 370 30 0;
#X obj 28 273 delread~ \$0-pdffdw 400;
#X obj 29 375 delwrite~ \$0-pdffdw 1000;
#X obj 28 337 *~ 0.5;
#X symbolatom 307 269 3 0 0 2 key - -;
#X symbolatom 359 269 10 0 0 2 scale - -;
#X floatatom 438 270 5 0 0 2 t_smooth - -;
#X floatatom 498 269 5 0 0 2 transpose - -;
#X obj 256 294 reshift~ C aeolian 440 200 0 -6;
#X obj 308 401 reshift~ C aeolian 440 200 0 0;
#X text 18 84 Delay with pitch discretization in both feed forward
paths. Interesting with different scales and transposition.;
#X connect 1 0 15 0;
#X connect 1 0 21 0;
#X connect 2 0 22 1;
#X connect 3 0 22 2;
#X connect 4 0 22 3;
#X connect 5 0 22 4;
#X connect 7 0 6 0;
#X connect 8 0 7 0;
#X connect 9 0 14 0;
#X connect 10 0 11 0;
#X connect 11 0 16 1;
#X connect 12 0 13 0;
#X connect 13 0 6 0;
#X connect 14 0 16 0;
#X connect 14 0 22 0;
#X connect 16 0 15 0;
#X connect 17 0 21 1;
#X connect 18 0 21 2;
#X connect 19 0 21 3;
#X connect 20 0 21 4;
#X connect 21 0 0 0;
#X connect 22 0 0 0;
#X restore 368 310 pd pitch_disc_dual_feed_forward_delay;
#X obj 31 443 tgl 15 0 empty empty empty 17 7 0 10 -262144 -1 -1 0
1;
#N canvas 72 405 604 484 pitch_cancellation 0;
#X obj 21 392 throw~ \$0-fx_sig;
#X obj 22 159 r~ \$0-sig;
#X symbolatom 73 222 3 0 0 2 key - -;
#X symbolatom 125 222 10 0 0 2 scale - -;
#X floatatom 204 223 5 0 0 2 t_smooth - -;
#X floatatom 264 222 5 0 0 2 transpose - -;
#X obj 310 55 switch~;
#X obj 310 31 tgl 15 0 empty empty empty 17 7 0 10 -262144 -1 -1 0
1;
#X obj 310 6 inlet;
#X obj 370 5 loadbang;
#X msg 370 30 0;
#X symbolatom 73 292 3 0 0 2 key - -;
#X symbolatom 125 292 10 0 0 2 scale - -;
#X floatatom 204 293 5 0 0 2 t_smooth - -;
#X floatatom 264 292 5 0 0 2 transpose - -;
#X obj 22 247 reshift~ F# aeolian 440 200 15 7;
#X obj 22 316 reshift~ F# aeolian 440 200 15 -7;
#X text 24 83 pitch shifting up and down again \, so we hear the artifacts
of reshift.;
#X connect 1 0 15 0;
#X connect 2 0 15 1;
#X connect 3 0 15 2;
#X connect 4 0 15 3;
#X connect 5 0 15 4;
#X connect 7 0 6 0;
#X connect 8 0 7 0;
#X connect 9 0 10 0;
#X connect 10 0 6 0;
#X connect 11 0 16 1;
#X connect 12 0 16 2;
#X connect 13 0 16 3;
#X connect 14 0 16 4;
#X connect 15 0 16 0;
#X connect 16 0 0 0;
#X restore 31 467 pd pitch_cancellation;
#X obj 440 567 *~;
#X obj 431 597 dac~;
#X obj 541 526 hsl 128 15 0 127 0 0 empty empty vol -2 -8 0 10 -262144
-1 -1 0 1;
#X obj 538 546 dbtorms;
#X floatatom 538 571 5 0 0 0 - - -;
#X obj 440 481 catch~ \$0-fx_sig;
#X obj 358 481 r~ \$0-sig;
#X obj 357 526 *~ 0;
#X obj 382 506 tgl 15 0 empty empty empty 17 7 0 10 -262144 -1 -1 0
1;
#X text 355 460 original;
#X text 439 459 FX;
#X obj 464 506 tgl 15 0 empty empty empty 17 7 0 10 -262144 -1 -1 0
1;
#X obj 439 526 *~ 1;
#X text 10 608 comment;
#X connect 1 0 3 1;
#X connect 2 0 3 0;
#X connect 3 0 7 0;
#X connect 4 0 5 0;
#X connect 5 0 3 0;
#X connect 8 0 16 0;
#X connect 9 0 3 0;
#X connect 11 0 15 0;
#X connect 12 0 13 0;
#X connect 14 0 19 0;
#X connect 17 0 18 0;
#X connect 20 0 21 0;
#X connect 22 0 23 0;
#X connect 22 0 23 1;
#X connect 24 0 25 0;
#X connect 25 0 26 0;
#X connect 26 0 22 1;
#X connect 27 0 34 0;
#X connect 28 0 29 0;
#X connect 29 0 22 0;
#X connect 30 0 29 1;
#X connect 33 0 34 1;
#X connect 34 0 22 0;
