#N canvas 500 161 897 640 12;
#X declare -path pd-aubio/build;
#X declare -path /usr/lib/pd/extra/iemlib -lib iemlib;
#N canvas 72 96 450 300 include 0;
#X obj 14 81 aubio;
#X obj 14 52 declare -path pd-aubio/build;
#X obj 15 24 declare -path /usr/lib/pd/extra/iemlib -lib iemlib;
#X restore 23 17 pd include;
#X obj 464 132 tgl 15 0 empty empty empty 17 7 0 10 -262144 -1 -1 1
1;
#X msg 393 45 ../../../samples/Toms_diner.wav;
#X obj 390 154 abs/player~;
#X msg 307 70 bang;
#X obj 307 101 openpanel;
#X text 619 45 in F#m;
#X obj 390 179 s~ \$0-sig;
#X obj 24 314 tgl 15 0 empty empty empty 17 7 0 10 -262144 -1 -1 0
1;
#X msg 407 78 ../../../samples/saxophone-weep.wav;
#X obj 25 431 tgl 15 0 empty empty empty 17 7 0 10 -262144 -1 -1 0
1;
#X obj 23 253 tgl 15 0 empty empty empty 17 7 0 10 -262144 -1 -1 0
1;
#N canvas 488 163 917 900 pitch_cancellation 0;
#X obj 310 55 switch~;
#X obj 310 31 tgl 15 0 empty empty empty 17 7 0 10 -262144 -1 -1 0
1;
#X obj 310 6 inlet;
#X obj 370 5 loadbang;
#X msg 370 30 0;
#X text 24 83 pitch shifting up and down again \, so we hear the artifacts
of reshift.;
#X obj 25 128 r~ \$0-sig;
#X msg 146 254 pd~ stop;
#X msg 181 317 key \$1;
#X msg 241 317 scale \$1;
#X msg 321 317 smooth \$1;
#X msg 401 317 transpose \$1;
#X symbolatom 181 288 5 0 0 0 - - -;
#X symbolatom 241 287 8 0 0 0 - - -;
#X floatatom 322 286 5 0 0 0 - - -;
#X floatatom 401 283 5 0 0 0 - - -;
#X obj 147 366 pd~ -ninsig 1 -noutsig 1;
#X msg 137 229 pd~ start -nogui reshift~_process.pd;
#X obj 135 191 select 0 1;
#X msg 152 541 pd~ stop;
#X msg 187 604 key \$1;
#X msg 247 604 scale \$1;
#X msg 327 604 smooth \$1;
#X msg 407 604 transpose \$1;
#X symbolatom 187 575 5 0 0 0 - - -;
#X symbolatom 247 574 8 0 0 0 - - -;
#X floatatom 328 573 5 0 0 0 - - -;
#X floatatom 407 570 5 0 0 0 - - -;
#X obj 153 653 pd~ -ninsig 1 -noutsig 1;
#X msg 143 516 pd~ start -nogui reshift~_process.pd;
#X obj 145 478 select 0 1;
#X msg 160 790 pd~ stop;
#X msg 195 853 key \$1;
#X msg 255 853 scale \$1;
#X msg 335 853 smooth \$1;
#X msg 415 853 transpose \$1;
#X symbolatom 195 824 5 0 0 0 - - -;
#X symbolatom 255 823 8 0 0 0 - - -;
#X floatatom 336 822 5 0 0 0 - - -;
#X floatatom 415 819 5 0 0 0 - - -;
#X obj 161 902 pd~ -ninsig 1 -noutsig 1;
#X msg 151 765 pd~ start -nogui reshift~_process.pd;
#X obj 149 727 select 0 1;
#X obj 214 1209 throw~ \$0-fx_sig;
#X msg 159 1065 pd~ stop;
#X msg 194 1128 key \$1;
#X msg 254 1128 scale \$1;
#X msg 334 1128 smooth \$1;
#X msg 414 1128 transpose \$1;
#X symbolatom 194 1099 5 0 0 0 - - -;
#X symbolatom 254 1098 8 0 0 0 - - -;
#X floatatom 335 1097 5 0 0 0 - - -;
#X floatatom 414 1094 5 0 0 0 - - -;
#X obj 160 1177 pd~ -ninsig 1 -noutsig 1;
#X msg 150 1040 pd~ start -nogui reshift~_process.pd;
#X obj 152 1002 select 0 1;
#X obj 208 55 s cancel_on;
#X obj 135 166 r cancel_on;
#X obj 145 450 r cancel_on;
#X obj 149 699 r cancel_on;
#X obj 152 975 r cancel_on;
#X obj 652 105 r cancel_on;
#X msg 652 156 12 -12 12 -12;
#X obj 652 130 del 200;
#X obj 652 182 unpack f f f f;
#X connect 1 0 0 0;
#X connect 1 0 56 0;
#X connect 2 0 1 0;
#X connect 3 0 4 0;
#X connect 4 0 0 0;
#X connect 6 0 16 0;
#X connect 7 0 16 0;
#X connect 8 0 16 0;
#X connect 9 0 16 0;
#X connect 10 0 16 0;
#X connect 11 0 16 0;
#X connect 12 0 8 0;
#X connect 13 0 9 0;
#X connect 14 0 10 0;
#X connect 15 0 11 0;
#X connect 16 1 28 0;
#X connect 17 0 16 0;
#X connect 18 0 7 0;
#X connect 18 1 17 0;
#X connect 19 0 28 0;
#X connect 20 0 28 0;
#X connect 21 0 28 0;
#X connect 22 0 28 0;
#X connect 23 0 28 0;
#X connect 24 0 20 0;
#X connect 25 0 21 0;
#X connect 26 0 22 0;
#X connect 27 0 23 0;
#X connect 28 1 40 0;
#X connect 29 0 28 0;
#X connect 30 0 19 0;
#X connect 30 1 29 0;
#X connect 31 0 40 0;
#X connect 32 0 40 0;
#X connect 33 0 40 0;
#X connect 34 0 40 0;
#X connect 35 0 40 0;
#X connect 36 0 32 0;
#X connect 37 0 33 0;
#X connect 38 0 34 0;
#X connect 39 0 35 0;
#X connect 40 1 53 0;
#X connect 41 0 40 0;
#X connect 42 0 31 0;
#X connect 42 1 41 0;
#X connect 44 0 53 0;
#X connect 45 0 53 0;
#X connect 46 0 53 0;
#X connect 47 0 53 0;
#X connect 48 0 53 0;
#X connect 49 0 45 0;
#X connect 50 0 46 0;
#X connect 51 0 47 0;
#X connect 52 0 48 0;
#X connect 53 1 43 0;
#X connect 54 0 53 0;
#X connect 55 0 44 0;
#X connect 55 1 54 0;
#X connect 57 0 18 0;
#X connect 58 0 30 0;
#X connect 59 0 42 0;
#X connect 60 0 55 0;
#X connect 61 0 63 0;
#X connect 62 0 64 0;
#X connect 63 0 62 0;
#X connect 64 0 15 0;
#X connect 64 1 27 0;
#X connect 64 2 39 0;
#X connect 64 3 52 0;
#X restore 23 277 pd pitch_cancellation;
#X obj 440 567 *~;
#X obj 431 597 dac~;
#X obj 541 526 hsl 128 15 0 127 0 0 empty empty vol -2 -8 0 10 -262144
-1 -1 9500 1;
#X obj 538 546 dbtorms;
#X floatatom 538 571 5 0 0 0 - - -;
#X obj 440 481 catch~ \$0-fx_sig;
#X obj 358 481 r~ \$0-sig;
#X obj 357 526 *~ 0;
#X obj 382 506 tgl 15 0 empty empty empty 17 7 0 10 -262144 -1 -1 0
1;
#X text 355 460 original;
#X text 439 459 FX;
#X obj 464 506 tgl 15 0 empty empty empty 17 7 0 10 -262144 -1 -1 0
1;
#X obj 439 526 *~ 1;
#X text 110 18 Artistic effects using many instances of reshift~.;
#X text 13 610 Manuel Planton 2021;
#X obj 24 375 tgl 15 0 empty empty empty 17 7 0 10 -262144 -1 -1 0
1;
#N canvas 72 266 1839 574 inharmonizer 0;
#X obj 24 517 throw~ \$0-fx_sig;
#X obj 25 134 r~ \$0-sig;
#X symbolatom 75 243 3 0 0 2 key - -;
#X symbolatom 127 243 10 0 0 2 scale - -;
#X floatatom 206 244 5 0 0 2 t_smooth - -;
#X floatatom 266 243 5 0 0 2 transpose - -;
#X obj 310 55 switch~;
#X obj 310 31 tgl 15 0 empty empty empty 17 7 0 10 -262144 -1 -1 0
1;
#X obj 310 6 inlet;
#X obj 24 269 reshift~ C wholetone 440 2 15 0;
#X text 20 91 Using reshift with just a few bands and the wholetone
scale for bigger pitch shifts generates inharmonic sounds.;
#X obj 24 371 *~;
#X obj 42 349 line~;
#X msg 42 326 \$1 20;
#X obj 42 306 tgl 15 0 empty empty empty 17 7 0 10 -262144 -1 -1 0
1;
#X text 75 182 2 bands;
#X symbolatom 385 243 3 0 0 2 key - -;
#X symbolatom 437 243 10 0 0 2 scale - -;
#X floatatom 516 244 5 0 0 2 t_smooth - -;
#X floatatom 576 243 5 0 0 2 transpose - -;
#X obj 334 371 *~;
#X obj 352 349 line~;
#X msg 352 326 \$1 20;
#X obj 352 306 tgl 15 0 empty empty empty 17 7 0 10 -262144 -1 -1 0
1;
#X obj 335 134 r~ \$0-sig;
#X obj 334 269 reshift~ C wholetone 440 3 15 0;
#X text 384 182 3 bands;
#X symbolatom 695 243 3 0 0 2 key - -;
#X symbolatom 747 243 10 0 0 2 scale - -;
#X floatatom 826 244 5 0 0 2 t_smooth - -;
#X floatatom 886 243 5 0 0 2 transpose - -;
#X obj 644 371 *~;
#X obj 662 349 line~;
#X msg 662 326 \$1 20;
#X obj 662 306 tgl 15 0 empty empty empty 17 7 0 10 -262144 -1 -1 0
1;
#X obj 645 134 r~ \$0-sig;
#X text 694 182 4 bands;
#X obj 644 269 reshift~ C wholetone 440 4 15 0;
#X symbolatom 1005 243 3 0 0 2 key - -;
#X symbolatom 1057 243 10 0 0 2 scale - -;
#X floatatom 1136 244 5 0 0 2 t_smooth - -;
#X floatatom 1196 243 5 0 0 2 transpose - -;
#X obj 954 371 *~;
#X obj 972 349 line~;
#X msg 972 326 \$1 20;
#X obj 972 306 tgl 15 0 empty empty empty 17 7 0 10 -262144 -1 -1 0
1;
#X obj 955 134 r~ \$0-sig;
#X text 1004 182 5 bands;
#X obj 954 269 reshift~ C wholetone 440 5 15 0;
#X symbolatom 1315 243 3 0 0 2 key - -;
#X symbolatom 1367 243 10 0 0 2 scale - -;
#X floatatom 1446 244 5 0 0 2 t_smooth - -;
#X floatatom 1506 243 5 0 0 2 transpose - -;
#X obj 1264 371 *~;
#X obj 1282 349 line~;
#X msg 1282 326 \$1 20;
#X obj 1282 306 tgl 15 0 empty empty empty 17 7 0 10 -262144 -1 -1
0 1;
#X obj 1265 134 r~ \$0-sig;
#X text 1314 182 6 bands;
#X obj 1264 269 reshift~ C wholetone 440 6 15 0;
#X symbolatom 1625 243 3 0 0 2 key - -;
#X symbolatom 1677 243 10 0 0 2 scale - -;
#X floatatom 1756 244 5 0 0 2 t_smooth - -;
#X floatatom 1816 243 5 0 0 2 transpose - -;
#X obj 1574 371 *~;
#X obj 1592 349 line~;
#X msg 1592 326 \$1 20;
#X obj 1592 306 tgl 15 0 empty empty empty 17 7 0 10 -262144 -1 -1
0 1;
#X obj 1575 134 r~ \$0-sig;
#X text 1624 182 10 bands;
#X obj 1574 269 reshift~ C wholetone 440 10 15 0;
#X obj 370 5 loadbang;
#X msg 370 30 0;
#X connect 1 0 9 0;
#X connect 2 0 9 1;
#X connect 3 0 9 2;
#X connect 4 0 9 3;
#X connect 5 0 9 4;
#X connect 7 0 6 0;
#X connect 8 0 7 0;
#X connect 9 0 11 0;
#X connect 11 0 0 0;
#X connect 12 0 11 1;
#X connect 13 0 12 0;
#X connect 14 0 13 0;
#X connect 16 0 25 1;
#X connect 17 0 25 2;
#X connect 18 0 25 3;
#X connect 19 0 25 4;
#X connect 20 0 0 0;
#X connect 21 0 20 1;
#X connect 22 0 21 0;
#X connect 23 0 22 0;
#X connect 24 0 25 0;
#X connect 25 0 20 0;
#X connect 27 0 37 1;
#X connect 28 0 37 2;
#X connect 29 0 37 3;
#X connect 30 0 37 4;
#X connect 31 0 0 0;
#X connect 32 0 31 1;
#X connect 33 0 32 0;
#X connect 34 0 33 0;
#X connect 35 0 37 0;
#X connect 37 0 31 0;
#X connect 38 0 48 1;
#X connect 39 0 48 2;
#X connect 40 0 48 3;
#X connect 41 0 48 4;
#X connect 42 0 0 0;
#X connect 43 0 42 1;
#X connect 44 0 43 0;
#X connect 45 0 44 0;
#X connect 46 0 48 0;
#X connect 48 0 42 0;
#X connect 49 0 59 1;
#X connect 50 0 59 2;
#X connect 51 0 59 3;
#X connect 52 0 59 4;
#X connect 53 0 0 0;
#X connect 54 0 53 1;
#X connect 55 0 54 0;
#X connect 56 0 55 0;
#X connect 57 0 59 0;
#X connect 59 0 53 0;
#X connect 60 0 70 1;
#X connect 61 0 70 2;
#X connect 62 0 70 3;
#X connect 63 0 70 4;
#X connect 64 0 0 0;
#X connect 65 0 64 1;
#X connect 66 0 65 0;
#X connect 67 0 66 0;
#X connect 68 0 70 0;
#X connect 70 0 64 0;
#X connect 71 0 72 0;
#X connect 72 0 6 0;
#X restore 24 399 pd inharmonizer;
#N canvas 279 306 1366 629 four_discretized_voices 0;
#X obj 201 398 throw~ \$0-fx_sig;
#X obj 24 321 r~ \$0-sig;
#X obj 310 55 switch~;
#X obj 310 31 tgl 15 0 empty empty empty 17 7 0 10 -262144 -1 -1 0
1;
#X obj 310 6 inlet;
#X obj 370 5 loadbang;
#X msg 370 30 0;
#X text 18 84 Four pitch discretized voices;
#X msg 146 254 pd~ stop;
#X msg 181 317 key \$1;
#X msg 241 317 scale \$1;
#X msg 321 317 smooth \$1;
#X msg 401 317 transpose \$1;
#X symbolatom 181 288 5 0 0 0 - - -;
#X symbolatom 241 287 8 0 0 0 - - -;
#X floatatom 322 286 5 0 0 0 - - -;
#X floatatom 401 283 5 0 0 0 - - -;
#X obj 147 366 pd~ -ninsig 1 -noutsig 1;
#X msg 137 229 pd~ start -nogui reshift~_process.pd;
#X obj 135 191 select 0 1;
#X obj 559 398 throw~ \$0-fx_sig;
#X msg 504 254 pd~ stop;
#X msg 539 317 key \$1;
#X msg 599 317 scale \$1;
#X msg 679 317 smooth \$1;
#X msg 759 317 transpose \$1;
#X symbolatom 539 288 5 0 0 0 - - -;
#X symbolatom 599 287 8 0 0 0 - - -;
#X floatatom 680 286 5 0 0 0 - - -;
#X floatatom 759 283 5 0 0 0 - - -;
#X obj 505 366 pd~ -ninsig 1 -noutsig 1;
#X msg 495 229 pd~ start -nogui reshift~_process.pd;
#X obj 497 191 select 0 1;
#X obj 913 404 throw~ \$0-fx_sig;
#X msg 858 260 pd~ stop;
#X msg 893 323 key \$1;
#X msg 953 323 scale \$1;
#X msg 1033 323 smooth \$1;
#X msg 1113 323 transpose \$1;
#X symbolatom 893 294 5 0 0 0 - - -;
#X symbolatom 953 293 8 0 0 0 - - -;
#X floatatom 1034 292 5 0 0 0 - - -;
#X floatatom 1113 289 5 0 0 0 - - -;
#X obj 859 372 pd~ -ninsig 1 -noutsig 1;
#X msg 849 235 pd~ start -nogui reshift~_process.pd;
#X obj 847 197 select 0 1;
#X obj 1271 404 throw~ \$0-fx_sig;
#X msg 1216 260 pd~ stop;
#X msg 1251 323 key \$1;
#X msg 1311 323 scale \$1;
#X msg 1391 323 smooth \$1;
#X msg 1471 323 transpose \$1;
#X symbolatom 1251 294 5 0 0 0 - - -;
#X symbolatom 1311 293 8 0 0 0 - - -;
#X floatatom 1392 292 5 0 0 0 - - -;
#X floatatom 1471 289 5 0 0 0 - - -;
#X obj 1217 372 pd~ -ninsig 1 -noutsig 1;
#X msg 1207 235 pd~ start -nogui reshift~_process.pd;
#X obj 1209 197 select 0 1;
#X msg 820 68 0 4 7 11;
#X obj 820 93 unpack f f f f;
#X obj 820 43 del 200;
#X text 822 16 preset;
#X connect 1 0 17 0;
#X connect 1 0 30 0;
#X connect 1 0 43 0;
#X connect 1 0 56 0;
#X connect 3 0 2 0;
#X connect 3 0 19 0;
#X connect 3 0 32 0;
#X connect 3 0 45 0;
#X connect 3 0 58 0;
#X connect 3 0 61 0;
#X connect 4 0 3 0;
#X connect 5 0 6 0;
#X connect 6 0 2 0;
#X connect 8 0 17 0;
#X connect 9 0 17 0;
#X connect 10 0 17 0;
#X connect 11 0 17 0;
#X connect 12 0 17 0;
#X connect 13 0 9 0;
#X connect 14 0 10 0;
#X connect 15 0 11 0;
#X connect 16 0 12 0;
#X connect 17 1 0 0;
#X connect 18 0 17 0;
#X connect 19 0 8 0;
#X connect 19 1 18 0;
#X connect 21 0 30 0;
#X connect 22 0 30 0;
#X connect 23 0 30 0;
#X connect 24 0 30 0;
#X connect 25 0 30 0;
#X connect 26 0 22 0;
#X connect 27 0 23 0;
#X connect 28 0 24 0;
#X connect 29 0 25 0;
#X connect 30 1 20 0;
#X connect 31 0 30 0;
#X connect 32 0 21 0;
#X connect 32 1 31 0;
#X connect 34 0 43 0;
#X connect 35 0 43 0;
#X connect 36 0 43 0;
#X connect 37 0 43 0;
#X connect 38 0 43 0;
#X connect 39 0 35 0;
#X connect 40 0 36 0;
#X connect 41 0 37 0;
#X connect 42 0 38 0;
#X connect 43 1 33 0;
#X connect 44 0 43 0;
#X connect 45 0 34 0;
#X connect 45 1 44 0;
#X connect 47 0 56 0;
#X connect 48 0 56 0;
#X connect 49 0 56 0;
#X connect 50 0 56 0;
#X connect 51 0 56 0;
#X connect 52 0 48 0;
#X connect 53 0 49 0;
#X connect 54 0 50 0;
#X connect 55 0 51 0;
#X connect 56 1 46 0;
#X connect 57 0 56 0;
#X connect 58 0 47 0;
#X connect 58 1 57 0;
#X connect 59 0 60 0;
#X connect 60 0 16 0;
#X connect 60 1 29 0;
#X connect 60 2 42 0;
#X connect 60 3 55 0;
#X connect 61 0 59 0;
#X restore 25 455 pd four_discretized_voices;
#X text 8 204 Parallelism via [pd~] subprocesses to distribute DSP
load;
#N canvas 448 207 1248 598 pitch_discretized_chorus 0;
#X obj 348 58 switch~;
#X obj 348 34 tgl 15 0 empty empty empty 17 7 0 10 -262144 -1 -1 0
1;
#X obj 348 9 inlet;
#X obj 408 8 loadbang;
#X msg 408 33 0;
#X text 6 15 pitch discretized chorus with four voices;
#X obj 173 454 throw~ \$0-fx_sig;
#X obj 16 377 r~ \$0-sig;
#X msg 118 310 pd~ stop;
#X msg 153 373 key \$1;
#X msg 213 373 scale \$1;
#X msg 293 373 smooth \$1;
#X msg 373 373 transpose \$1;
#X symbolatom 153 344 5 0 0 0 - - -;
#X symbolatom 213 343 8 0 0 0 - - -;
#X floatatom 294 342 5 0 0 0 - - -;
#X floatatom 373 339 5 0 0 0 - - -;
#X obj 119 422 pd~ -ninsig 1 -noutsig 1;
#X msg 109 285 pd~ start -nogui reshift~_process.pd;
#X obj 107 247 select 0 1;
#X obj 531 454 throw~ \$0-fx_sig;
#X msg 476 310 pd~ stop;
#X msg 511 373 key \$1;
#X msg 571 373 scale \$1;
#X msg 651 373 smooth \$1;
#X msg 731 373 transpose \$1;
#X symbolatom 511 344 5 0 0 0 - - -;
#X symbolatom 571 343 8 0 0 0 - - -;
#X floatatom 652 342 5 0 0 0 - - -;
#X floatatom 731 339 5 0 0 0 - - -;
#X obj 477 422 pd~ -ninsig 1 -noutsig 1;
#X msg 467 285 pd~ start -nogui reshift~_process.pd;
#X obj 469 247 select 0 1;
#X obj 885 460 throw~ \$0-fx_sig;
#X msg 830 316 pd~ stop;
#X msg 865 379 key \$1;
#X msg 925 379 scale \$1;
#X msg 1005 379 smooth \$1;
#X msg 1085 379 transpose \$1;
#X symbolatom 865 350 5 0 0 0 - - -;
#X symbolatom 925 349 8 0 0 0 - - -;
#X floatatom 1006 348 5 0 0 0 - - -;
#X floatatom 1085 345 5 0 0 0 - - -;
#X obj 831 428 pd~ -ninsig 1 -noutsig 1;
#X msg 821 291 pd~ start -nogui reshift~_process.pd;
#X obj 819 253 select 0 1;
#X obj 1243 460 throw~ \$0-fx_sig;
#X msg 1188 316 pd~ stop;
#X msg 1223 379 key \$1;
#X msg 1283 379 scale \$1;
#X msg 1363 379 smooth \$1;
#X msg 1443 379 transpose \$1;
#X symbolatom 1223 350 5 0 0 0 - - -;
#X symbolatom 1283 349 8 0 0 0 - - -;
#X floatatom 1364 348 5 0 0 0 - - -;
#X floatatom 1443 345 5 0 0 0 - - -;
#X obj 1189 428 pd~ -ninsig 1 -noutsig 1;
#X msg 1179 291 pd~ start -nogui reshift~_process.pd;
#X obj 1181 253 select 0 1;
#X obj 319 98 s chorus_on;
#X obj 107 221 r chorus_on;
#X obj 469 221 r chorus_on;
#X obj 819 228 r chorus_on;
#X obj 1181 228 r chorus_on;
#N canvas 144 434 772 542 four_phase_LFO 0;
#X obj 84 8 inlet freq;
#X obj 589 369 inlet amplitude;
#X floatatom 110 352 5 0 0 0 - - -;
#X obj 74 320 snapshot~;
#X obj 345 73 loadbang;
#X obj 74 291 osc~ 1;
#X floatatom 219 354 5 0 0 0 - - -;
#X obj 183 322 snapshot~;
#X obj 184 295 osc~ 1;
#X msg 113 267 0;
#X msg 223 271 0.25;
#X obj 345 100 metro 10;
#X obj 466 114 loadbang;
#X obj 466 140 t b b b b;
#X floatatom 353 356 5 0 0 0 - - -;
#X obj 317 324 snapshot~;
#X obj 318 297 osc~ 1;
#X msg 357 273 0.5;
#X floatatom 466 360 5 0 0 0 - - -;
#X obj 430 328 snapshot~;
#X obj 430 301 osc~ 1;
#X msg 469 277 0.75;
#X obj 345 125 t b b b b;
#X obj 20 510 outlet sig1;
#X obj 181 507 outlet sig2;
#X obj 325 508 outlet sig3;
#X obj 440 511 outlet sig4;
#X obj 74 429 * 1;
#X obj 184 430 * 1;
#X obj 324 425 * 1;
#X obj 436 435 * 1;
#X connect 0 0 5 0;
#X connect 0 0 8 0;
#X connect 0 0 16 0;
#X connect 0 0 20 0;
#X connect 1 0 27 1;
#X connect 1 0 28 1;
#X connect 1 0 29 1;
#X connect 1 0 30 1;
#X connect 3 0 2 0;
#X connect 3 0 27 0;
#X connect 4 0 11 0;
#X connect 5 0 3 0;
#X connect 7 0 6 0;
#X connect 7 0 28 0;
#X connect 8 0 7 0;
#X connect 9 0 5 1;
#X connect 10 0 8 1;
#X connect 11 0 22 0;
#X connect 12 0 13 0;
#X connect 13 0 9 0;
#X connect 13 1 10 0;
#X connect 13 2 17 0;
#X connect 13 3 21 0;
#X connect 15 0 14 0;
#X connect 15 0 29 0;
#X connect 16 0 15 0;
#X connect 17 0 16 1;
#X connect 19 0 18 0;
#X connect 19 0 30 0;
#X connect 20 0 19 0;
#X connect 21 0 20 1;
#X connect 22 0 3 0;
#X connect 22 1 7 0;
#X connect 22 2 15 0;
#X connect 22 3 19 0;
#X connect 27 0 23 0;
#X connect 28 0 24 0;
#X connect 29 0 25 0;
#X connect 30 0 26 0;
#X restore 485 168 pd four_phase_LFO;
#X floatatom 485 139 5 0 0 2 freq - -;
#X floatatom 601 141 5 0 0 2 range - -;
#X obj 551 8 loadbang;
#X msg 551 33 0.6 0.3;
#X obj 551 58 unpack f f;
#X text 617 31 preset;
#X connect 1 0 0 0;
#X connect 1 0 59 0;
#X connect 2 0 1 0;
#X connect 3 0 4 0;
#X connect 4 0 0 0;
#X connect 7 0 17 0;
#X connect 7 0 30 0;
#X connect 7 0 43 0;
#X connect 7 0 56 0;
#X connect 8 0 17 0;
#X connect 9 0 17 0;
#X connect 10 0 17 0;
#X connect 11 0 17 0;
#X connect 12 0 17 0;
#X connect 13 0 9 0;
#X connect 14 0 10 0;
#X connect 15 0 11 0;
#X connect 16 0 12 0;
#X connect 17 1 6 0;
#X connect 18 0 17 0;
#X connect 19 0 8 0;
#X connect 19 1 18 0;
#X connect 21 0 30 0;
#X connect 22 0 30 0;
#X connect 23 0 30 0;
#X connect 24 0 30 0;
#X connect 25 0 30 0;
#X connect 26 0 22 0;
#X connect 27 0 23 0;
#X connect 28 0 24 0;
#X connect 29 0 25 0;
#X connect 30 1 20 0;
#X connect 31 0 30 0;
#X connect 32 0 21 0;
#X connect 32 1 31 0;
#X connect 34 0 43 0;
#X connect 35 0 43 0;
#X connect 36 0 43 0;
#X connect 37 0 43 0;
#X connect 38 0 43 0;
#X connect 39 0 35 0;
#X connect 40 0 36 0;
#X connect 41 0 37 0;
#X connect 42 0 38 0;
#X connect 43 1 33 0;
#X connect 44 0 43 0;
#X connect 45 0 34 0;
#X connect 45 1 44 0;
#X connect 47 0 56 0;
#X connect 48 0 56 0;
#X connect 49 0 56 0;
#X connect 50 0 56 0;
#X connect 51 0 56 0;
#X connect 52 0 48 0;
#X connect 53 0 49 0;
#X connect 54 0 50 0;
#X connect 55 0 51 0;
#X connect 56 1 46 0;
#X connect 57 0 56 0;
#X connect 58 0 47 0;
#X connect 58 1 57 0;
#X connect 60 0 19 0;
#X connect 61 0 32 0;
#X connect 62 0 45 0;
#X connect 63 0 58 0;
#X connect 64 0 16 0;
#X connect 64 1 29 0;
#X connect 64 2 42 0;
#X connect 64 3 55 0;
#X connect 65 0 64 0;
#X connect 66 0 64 1;
#X connect 67 0 68 0;
#X connect 68 0 69 0;
#X connect 69 0 65 0;
#X connect 69 1 66 0;
#X restore 24 338 pd pitch_discretized_chorus;
#X text 138 399 <-- look inside;
#X connect 1 0 3 1;
#X connect 2 0 3 0;
#X connect 3 0 7 0;
#X connect 4 0 5 0;
#X connect 5 0 3 0;
#X connect 8 0 32 0;
#X connect 9 0 3 0;
#X connect 10 0 30 0;
#X connect 11 0 12 0;
#X connect 13 0 14 0;
#X connect 13 0 14 1;
#X connect 15 0 16 0;
#X connect 16 0 17 0;
#X connect 17 0 13 1;
#X connect 18 0 25 0;
#X connect 19 0 20 0;
#X connect 20 0 13 0;
#X connect 21 0 20 1;
#X connect 24 0 25 1;
#X connect 25 0 13 0;
#X connect 28 0 29 0;
