#N canvas 209 195 1711 861 12;
#X declare -path pd-aubio/build;
#X declare -path /usr/lib/pd/extra/iemlib -lib iemlib;
#N canvas 72 96 450 300 include 0;
#X obj 14 91 aubio;
#X obj 14 62 declare -path pd-aubio/build;
#X obj 15 34 declare -path /usr/lib/pd/extra/iemlib -lib iemlib;
#X text 15 6 include these paths and libraries;
#X restore 10 8 pd include;
#X obj 119 158 tgl 15 0 empty empty empty 17 7 0 10 -262144 -1 -1 1
1;
#X msg 45 102 ../../../samples/Toms_diner.wav;
#X msg 60 130 ../../../samples/ave-maria.wav;
#X obj 45 180 abs/player~;
#X text 271 102 in F#m;
#X obj 892 779 *~;
#X obj 883 809 dac~;
#X obj 933 738 hsl 128 15 0 127 0 0 empty empty vol -2 -8 0 10 -262144
-1 -1 9000 1;
#X obj 930 758 dbtorms;
#X floatatom 930 783 5 0 0 0 - - -;
#X msg 107 301 pd~ stop;
#X msg 141 437 key \$1;
#X msg 201 437 scale \$1;
#X msg 281 437 smooth \$1;
#X msg 361 437 transpose \$1;
#X symbolatom 141 408 5 0 0 0 - - -;
#X symbolatom 201 407 8 0 0 0 - - -;
#X floatatom 282 406 5 0 0 0 - - -;
#X floatatom 361 403 5 0 0 0 - - -;
#X floatatom 903 194 0 0 0 3 cpu_load - -;
#X obj 903 106 cputime;
#X obj 903 16 loadbang;
#X obj 903 50 metro 1000;
#X obj 903 78 t b b;
#X obj 903 166 * 0.1;
#X obj 903 135 int;
#X obj 107 486 pd~ -ninsig 1 -noutsig 1;
#X msg 98 276 pd~ start -nogui reshift~_process.pd;
#X msg 514 301 pd~ stop;
#X msg 548 437 key \$1;
#X msg 608 437 scale \$1;
#X msg 688 437 smooth \$1;
#X msg 768 437 transpose \$1;
#X symbolatom 548 408 5 0 0 0 - - -;
#X symbolatom 608 407 8 0 0 0 - - -;
#X floatatom 689 406 5 0 0 0 - - -;
#X floatatom 768 403 5 0 0 0 - - -;
#X obj 514 486 pd~ -ninsig 1 -noutsig 1;
#X msg 505 276 pd~ start -nogui reshift~_process.pd;
#X msg 916 313 pd~ stop;
#X msg 950 449 key \$1;
#X msg 1010 449 scale \$1;
#X msg 1090 449 smooth \$1;
#X msg 1170 449 transpose \$1;
#X symbolatom 950 420 5 0 0 0 - - -;
#X symbolatom 1010 419 8 0 0 0 - - -;
#X floatatom 1091 418 5 0 0 0 - - -;
#X floatatom 1170 415 5 0 0 0 - - -;
#X obj 916 498 pd~ -ninsig 1 -noutsig 1;
#X msg 907 288 pd~ start -nogui reshift~_process.pd;
#X msg 1323 313 pd~ stop;
#X msg 1357 449 key \$1;
#X msg 1417 449 scale \$1;
#X msg 1497 449 smooth \$1;
#X msg 1577 449 transpose \$1;
#X symbolatom 1357 420 5 0 0 0 - - -;
#X symbolatom 1417 419 8 0 0 0 - - -;
#X floatatom 1498 418 5 0 0 0 - - -;
#X floatatom 1577 415 5 0 0 0 - - -;
#X obj 1323 498 pd~ -ninsig 1 -noutsig 1;
#X msg 1314 288 pd~ start -nogui reshift~_process.pd;
#X text 133 8 Here we use 4 pd~ subprocesses to distribute the DSP
load to multiple processors.;
#X connect 1 0 4 1;
#X connect 2 0 4 0;
#X connect 3 0 4 0;
#X connect 4 0 27 0;
#X connect 4 0 38 0;
#X connect 4 0 49 0;
#X connect 4 0 60 0;
#X connect 6 0 7 0;
#X connect 6 0 7 1;
#X connect 8 0 9 0;
#X connect 9 0 10 0;
#X connect 10 0 6 1;
#X connect 11 0 27 0;
#X connect 12 0 27 0;
#X connect 13 0 27 0;
#X connect 14 0 27 0;
#X connect 15 0 27 0;
#X connect 16 0 12 0;
#X connect 17 0 13 0;
#X connect 18 0 14 0;
#X connect 19 0 15 0;
#X connect 21 0 26 0;
#X connect 22 0 23 0;
#X connect 23 0 24 0;
#X connect 24 0 21 0;
#X connect 24 1 21 1;
#X connect 25 0 20 0;
#X connect 26 0 25 0;
#X connect 27 1 6 0;
#X connect 28 0 27 0;
#X connect 29 0 38 0;
#X connect 30 0 38 0;
#X connect 31 0 38 0;
#X connect 32 0 38 0;
#X connect 33 0 38 0;
#X connect 34 0 30 0;
#X connect 35 0 31 0;
#X connect 36 0 32 0;
#X connect 37 0 33 0;
#X connect 38 1 6 0;
#X connect 39 0 38 0;
#X connect 40 0 49 0;
#X connect 41 0 49 0;
#X connect 42 0 49 0;
#X connect 43 0 49 0;
#X connect 44 0 49 0;
#X connect 45 0 41 0;
#X connect 46 0 42 0;
#X connect 47 0 43 0;
#X connect 48 0 44 0;
#X connect 49 1 6 0;
#X connect 50 0 49 0;
#X connect 51 0 60 0;
#X connect 52 0 60 0;
#X connect 53 0 60 0;
#X connect 54 0 60 0;
#X connect 55 0 60 0;
#X connect 56 0 52 0;
#X connect 57 0 53 0;
#X connect 58 0 54 0;
#X connect 59 0 55 0;
#X connect 60 1 6 0;
#X connect 61 0 60 0;
