#N canvas 72 309 1172 769 12;
#X declare -path pd-aubio/build;
#X declare -path /usr/lib/pd/extra/iemlib -lib iemlib;
#X obj 14 591 aubio;
#X obj 14 562 declare -path pd-aubio/build;
#X obj 15 534 declare -path /usr/lib/pd/extra/iemlib -lib iemlib;
#X text 16 510 maybe you have to change this to your iemlib install
path;
#X obj 796 185 tgl 15 0 empty empty empty 17 7 0 10 -262144 -1 -1 0
1;
#X msg 722 129 ../../../samples/Toms_diner.wav;
#X msg 737 157 ../../../samples/ave-maria.wav;
#X obj 722 207 abs/player~;
#X obj 722 700 *~;
#X obj 713 730 dac~;
#X text 11 54 arguments:;
#X text 21 74 - key: key note of the used scale;
#X text 21 114 - tuning: tuning frequency of A (e.g. 440Hz);
#X text 21 134 - n_bands: number of bands used in the filter bank for
pitch shifting, f 74;
#X text 11 244 inlets:;
#X text 11 374 outlets:;
#X text 20 733 Manuel Planton 2021;
#X msg 639 123 bang;
#X obj 639 154 openpanel;
#X text 948 129 in F#m;
#X symbolatom 815 379 3 0 0 2 key - -;
#X symbolatom 884 377 10 0 0 2 scale - -;
#X floatatom 970 378 5 0 0 2 t_smooth - -;
#N canvas 239 628 450 300 AB 0;
#X obj 9 36 inlet~ A;
#X obj 98 36 inlet~ B;
#X obj 10 268 outlet~ sig;
#X obj 247 10 inlet ctl;
#X obj 8 228 *~;
#X obj 247 63 sel 0 1;
#X obj 26 205 line~;
#X msg 26 181 \$1 20;
#X text 99 10 1: B is on;
#X text 8 12 0: A is on;
#X msg 156 107 1;
#X msg 194 108 0;
#X obj 78 233 *~;
#X obj 96 210 line~;
#X msg 96 186 \$1 20;
#X msg 304 96 1;
#X msg 269 96 0;
#X obj 327 9 loadbang;
#X msg 327 36 0;
#X connect 0 0 4 0;
#X connect 1 0 12 0;
#X connect 3 0 5 0;
#X connect 4 0 2 0;
#X connect 5 0 10 0;
#X connect 5 0 11 0;
#X connect 5 1 16 0;
#X connect 5 1 15 0;
#X connect 6 0 4 1;
#X connect 7 0 6 0;
#X connect 10 0 7 0;
#X connect 11 0 14 0;
#X connect 12 0 2 0;
#X connect 13 0 12 1;
#X connect 14 0 13 0;
#X connect 15 0 14 0;
#X connect 16 0 7 0;
#X connect 17 0 18 0;
#X connect 18 0 5 0;
#X restore 721 602 pd AB;
#X obj 753 579 tgl 15 0 empty empty FX_on/off 17 7 0 10 -262144 -1
-1 1 1;
#X text 21 154 - smoothing_time: time of frequency control signal smoothing
in milliseconds. This smoothes but also delays the frequency steps
of the effect., f 74;
#X text 21 324 4) float smoothing_time;
#X obj 570 330 osc~;
#X floatatom 570 305 5 0 0 0 - - -;
#X floatatom 849 471 5 0 0 1 f_error - -;
#X obj 588 357 *~;
#X floatatom 607 331 5 0 0 0 - - -;
#X text 18 487 required libraries:;
#X obj 763 659 hsl 128 15 0 127 0 0 empty empty vol -2 -8 0 10 -262144
-1 -1 0 1;
#X obj 760 679 dbtorms;
#X floatatom 760 704 5 0 0 0 - - -;
#X obj 570 134 vsl 15 160 200 1200 1 0 empty empty freq 0 -9 0 10 -262144
-1 -1 0 1;
#X text 21 414 2) frequency error in Hertz between the input and output
signal, f 64;
#X obj 852 497 hsl 128 15 -50 50 0 0 empty empty empty -2 -8 0 10 -262144
-1 -1 7895 1;
#X floatatom 967 444 5 0 0 1 f_0 - -;
#X text 21 434 3) tracked fundamental frequency of the input signal
, f 64;
#X text 11 4 reshift~ <key> <scale> <tuning> <n_bands> <smoothing_time>
<transpose>, f 71;
#X floatatom 1049 377 5 0 0 2 transpose - -;
#X text 21 204 - transpose: transposition in semitones, f 74;
#X text 21 344 5) float transpose;
#X obj 518 418 adc~;
#X obj 518 465 *~;
#X floatatom 536 442 5 0 0 0 - - -;
#X text 508 487 use headphones...;
#X obj 746 417 reshift~ F# aeolian 440 200 15 0;
#X text 11 28 A low latency pitch discretization effect. By now \,
the minimum frequency fmin=100Hz., f 86;
#X text 21 94 - scale: the musical scale the input signal should be
quantized to, f 74;
#X text 21 304 3) symbol scale;
#X text 21 284 2) symbol key;
#X text 21 264 1) sig input signal;
#X text 21 394 1) sig output signal;
#X connect 4 0 7 1;
#X connect 5 0 7 0;
#X connect 6 0 7 0;
#X connect 7 0 23 0;
#X connect 7 0 49 0;
#X connect 8 0 9 0;
#X connect 8 0 9 1;
#X connect 17 0 18 0;
#X connect 18 0 7 0;
#X connect 20 0 49 1;
#X connect 21 0 49 2;
#X connect 22 0 49 3;
#X connect 23 0 8 0;
#X connect 24 0 23 2;
#X connect 27 0 30 0;
#X connect 28 0 27 0;
#X connect 29 0 38 0;
#X connect 30 0 23 0;
#X connect 30 0 49 0;
#X connect 31 0 30 1;
#X connect 33 0 34 0;
#X connect 34 0 35 0;
#X connect 35 0 8 1;
#X connect 36 0 28 0;
#X connect 42 0 49 4;
#X connect 45 0 46 0;
#X connect 46 0 23 0;
#X connect 46 0 49 0;
#X connect 47 0 46 1;
#X connect 49 0 23 1;
#X connect 49 1 29 0;
#X connect 49 2 39 0;
