#N canvas 229 279 538 536 12;
#X obj 192 98 aubiopitch~;
#X text 277 97 YIN pitch-tracking;
#X floatatom 230 384 5 0 0 1 psr - -;
#X floatatom 230 130 8 0 0 0 - - -;
#X obj 193 243 t f f;
#X obj 193 346 /;
#X text 161 106 f_0;
#X text 151 275 f_out;
#X text 226 345 psr = f_out / f_0;
#X obj 192 165 moses 20;
#X text 257 164 unvoiced is 0;
#X obj 26 29 inlet~ in_sig;
#X obj 26 474 outlet~ out_sig;
#X obj 25 433 abs/rollers_pitch_shift~ \$4 1;
#X text 23 3 reshift~ <key> <scale> <tuning> <n_bands>;
#X text 171 33 pitch discretization effect;
#X text 244 244 quantize to a musical scale;
#X text 248 434 pitch shifting;
#X text 11 507 Manuel Planton 2021;
#X obj 193 270 abs/quantizer C ionian;
#X connect 0 0 3 0;
#X connect 0 0 9 0;
#X connect 4 0 19 0;
#X connect 4 1 5 1;
#X connect 5 0 2 0;
#X connect 5 0 13 1;
#X connect 9 1 4 0;
#X connect 11 0 0 0;
#X connect 11 0 13 0;
#X connect 13 0 12 0;
#X connect 19 0 5 0;
