#N canvas 72 597 585 398 12;
#X declare -path pd-aubio/build;
#X declare -path /usr/lib/pd/extra/iemlib -lib iemlib;
#N canvas 72 268 450 300 include 0;
#X obj 14 91 aubio;
#X obj 14 62 declare -path pd-aubio/build;
#X obj 15 34 declare -path /usr/lib/pd/extra/iemlib -lib iemlib;
#X text 15 6 include these paths and libraries;
#X restore 10 8 pd include;
#X obj 91 190 adc~ 1;
#X obj 91 318 dac~ 1;
#X obj 143 114 r reshift~;
#X obj 270 143 r key;
#X obj 328 145 r scale;
#X obj 395 147 r smooth;
#X obj 473 148 r transpose;
#X obj 143 142 unpack s s f f;
#X text 99 4 pitch discretization process patch for use with pd~ to
distribute DSP load;
#X obj 10 36 loadbang;
#X msg 10 61 \; pd dsp 1;
#X text 9 368 Manuel Planton 2021;
#X obj 92 261 reshift~ C ionian 440 200 15 0;
#X connect 1 0 13 0;
#X connect 3 0 8 0;
#X connect 4 0 13 1;
#X connect 5 0 13 2;
#X connect 6 0 13 3;
#X connect 7 0 13 4;
#X connect 8 0 13 1;
#X connect 8 1 13 2;
#X connect 8 2 13 3;
#X connect 8 3 13 4;
#X connect 10 0 11 0;
#X connect 13 0 2 0;
