#N canvas 72 393 911 536 12;
#X obj 74 79 aubiopitch~;
#X text 159 78 YIN pitch-tracking;
#X obj 127 349 /;
#X text 43 87 f_0;
#X text 86 277 f_out;
#X text 156 348 psr = f_out / f_0;
#X obj 74 146 moses 20;
#X text 139 145 unvoiced is 0;
#X obj 26 29 inlet~ in_sig;
#X obj 26 474 outlet~ out_sig;
#X obj 25 433 abs/rollers_pitch_shift~ \$4 1;
#X text 270 261 quantize to a musical scale;
#X text 248 434 pitch shifting;
#X text 11 507 Manuel Planton 2021;
#X obj 127 262 abs/quantizer \$1 \$2;
#X obj 225 408 line;
#X text 617 6 low latency pitch discretization effect;
#X obj 336 43 inlet key;
#X obj 416 42 inlet scale;
#X obj 526 40 inlet smoothing_time;
#X obj 225 381 pack f \$5;
#X obj 499 482 outlet pitch_error;
#X obj 499 456 -;
#X obj 127 235 t f f f;
#X obj 499 397 pack f f;
#X msg 499 428 \$2 \$1;
#X obj 693 409 outlet f_0;
#X obj 712 41 inlet transpose;
#X text 23 3 reshift~ <key> <scale> <tuning> <n_bands> <smoothing_time>
<transpose>, f 72;
#X obj 625 189 f \$6;
#X obj 625 163 loadbang;
#X connect 0 0 6 0;
#X connect 0 0 26 0;
#X connect 2 0 20 0;
#X connect 6 1 23 0;
#X connect 8 0 0 0;
#X connect 8 0 10 0;
#X connect 10 0 9 0;
#X connect 14 0 2 0;
#X connect 14 0 24 0;
#X connect 15 0 10 1;
#X connect 17 0 14 1;
#X connect 18 0 14 2;
#X connect 19 0 20 1;
#X connect 20 0 15 0;
#X connect 22 0 21 0;
#X connect 23 0 14 0;
#X connect 23 1 2 1;
#X connect 23 2 24 1;
#X connect 24 0 25 0;
#X connect 25 0 22 0;
#X connect 27 0 14 3;
#X connect 29 0 14 3;
#X connect 30 0 29 0;
