#N canvas 522 315 481 300 12;
#X declare -path pd-aubio/build;
#X obj 25 43 aubio;
#X obj 25 14 declare -path pd-aubio/build;
#X obj 156 146 aubiopitch~;
#X floatatom 155 83 5 0 0 0 - - -;
#X obj 155 107 osc~;
#X floatatom 156 178 5 0 0 0 - - -;
#X text 244 145 YIN pitch-tracking;
#X connect 2 0 5 0;
#X connect 3 0 4 0;
#X connect 4 0 2 0;
