#N canvas 72 386 877 667 12;
#X obj 43 292 rfft~;
#X obj 42 327 *~;
#X obj 74 327 *~;
#X obj 42 352 +~;
#X obj 43 228 /~ 4096;
#X obj 42 380 log~ 10;
#X text 8 1 mag_spec~;
#X text 187 30 show the magnitude spectrum of the input signal;
#X text 12 623 Manuel Planton 2021;
#X obj 221 138 loadbang;
#X msg 221 163 hann;
#X obj 221 191 window~ 4096;
#X obj 43 264 *~;
#X obj 219 489 metro 100;
#X obj 219 440 loadbang;
#X msg 219 465 1;
#X obj 420 118 inlet scale;
#X obj 11 106 inlet~ signal;
#X obj 11 33 block~ 4096;
#X obj 535 117 inlet move;
#X obj 50 435 *~ 0.2;
#X obj 51 477 +~ 1.25;
#X obj 50 540 tabwrite~ \$0-mag_spec;
#N canvas 0 50 450 250 (subpatch) 0;
#X array \$0-mag_spec 2048 float 0;
#X coords 0 1 2048 -1 500 300 1 0 0;
#X restore 350 300 graph;
#X connect 0 0 1 0;
#X connect 0 0 1 1;
#X connect 0 1 2 0;
#X connect 0 1 2 1;
#X connect 1 0 3 0;
#X connect 2 0 3 1;
#X connect 3 0 5 0;
#X connect 4 0 12 0;
#X connect 5 0 20 0;
#X connect 9 0 10 0;
#X connect 10 0 11 0;
#X connect 11 0 12 1;
#X connect 12 0 0 0;
#X connect 13 0 22 0;
#X connect 14 0 15 0;
#X connect 15 0 13 0;
#X connect 16 0 20 1;
#X connect 17 0 4 0;
#X connect 19 0 21 1;
#X connect 20 0 21 0;
#X connect 21 0 22 0;
#X coords 0 -1 1 1 500 300 1 350 300;
