#N canvas 225 316 781 404 12;
#X obj 69 213 metro 100;
#X obj 69 164 loadbang;
#X msg 69 189 1;
#X obj 12 252 tabwrite~ \$0-graph;
#X obj 12 39 inlet~ signal;
#N canvas 0 50 450 250 (subpatch) 0;
#X array \$0-graph 4096 float 0;
#X coords 0 1 4095 -1 500 300 1 0 0;
#X restore 250 50 graph;
#X obj 116 39 inlet scale;
#X text 11 7 oszi~;
#X text 119 6 show the waveform of the input signal;
#X text 12 372 Manuel Planton 2021;
#X obj 11 108 *~ 1;
#X obj 11 147 +~ 0;
#X obj 144 69 inlet offset;
#X connect 0 0 3 0;
#X connect 1 0 2 0;
#X connect 2 0 0 0;
#X connect 4 0 10 0;
#X connect 6 0 10 1;
#X connect 10 0 11 0;
#X connect 11 0 3 0;
#X connect 12 0 11 1;
#X coords 0 -1 1 1 500 300 1 250 50;
