#N canvas 668 579 450 300 12;
#X obj 13 37 inlet~ a;
#X obj 94 37 inlet~ b;
#X obj 241 39 inlet~ c;
#X obj 320 39 inlet~ d;
#X obj 68 265 outlet~ Re;
#X obj 258 265 outlet~ Im;
#X obj 14 106 *~;
#X obj 67 146 -~;
#X obj 95 105 *~;
#X obj 208 107 *~;
#X obj 259 142 +~;
#X obj 309 107 *~;
#X text 17 3 (a + jb) * (c + jd) = ac - bd + j(ad + bc);
#X connect 0 0 6 0;
#X connect 0 0 9 0;
#X connect 1 0 8 0;
#X connect 1 0 11 0;
#X connect 2 0 6 1;
#X connect 2 0 11 1;
#X connect 3 0 8 1;
#X connect 3 0 9 1;
#X connect 6 0 7 0;
#X connect 7 0 4 0;
#X connect 8 0 7 1;
#X connect 9 0 10 0;
#X connect 10 0 5 0;
#X connect 11 0 10 1;
