#N canvas 917 331 729 575 12;
#X obj 125 229 mag_spec~;
#X floatatom 13 71 5 0 0 0 - - -;
#X obj 371 60 vsl 15 128 0.01 1 1 0 empty empty scale 0 -9 0 10 -262144
-1 -1 9200 1;
#X floatatom 371 196 5 0 0 0 - - -;
#X obj 618 59 vsl 15 128 0 10 0 0 empty empty move 0 -9 0 10 -262144
-1 -1 1600 1;
#X floatatom 618 195 5 0 0 0 - - -;
#X text 8 6 mag_spec~;
#X text 127 5 show the magnitude spectrum of the input signal;
#X obj 13 96 osc~ 1000;
#X text 533 538 Manuel Planton 2021;
#X obj 89 65 vsl 15 80 1 5 1 0 empty empty dist 0 -9 0 10 -262144 -1
-1 0 1;
#X obj 13 128 *~;
#X obj 14 154 clip~ -1 1;
#X connect 1 0 8 0;
#X connect 2 0 3 0;
#X connect 3 0 0 1;
#X connect 4 0 5 0;
#X connect 5 0 0 2;
#X connect 8 0 11 0;
#X connect 10 0 11 1;
#X connect 11 0 12 0;
#X connect 12 0 0 0;
