#N canvas 771 408 907 605 12;
#X msg 53 308 const 1;
#X obj 113 64 table \$0-window \$1;
#X obj 23 64 inlet;
#X obj 23 89 symbol;
#X obj 23 114 select rect rectangle;
#X obj 203 116 select cos cosine;
#X obj 203 157 i \$1;
#X obj 203 182 t f f;
#X obj 236 206 * 2;
#X msg 151 208 resize \$1;
#X msg 141 305 sinesum \$1 1;
#X obj 61 365 s \$0-window;
#X obj 39 434 tabreceive~ \$0-window;
#X obj 39 460 outlet~;
#X obj 341 117 select tri triangle;
#X obj 345 154 i \$1;
#X obj 345 213 until;
#X obj 345 238 i;
#X obj 345 263 t f f;
#X obj 400 245 + 1;
#X msg 382 82 bang;
#X msg 396 213 0;
#X obj 344 181 t f b f;
#X obj 459 233 - 1;
#X obj 345 312 /;
#X obj 345 369 + 1;
#X obj 345 394 abs;
#X obj 345 340 * -2;
#X msg 345 422 1 \$1;
#X obj 345 447 -;
#X obj 345 472 tabwrite \$0-window;
#X obj 345 287 t f f;
#X obj 582 115 select hann;
#X msg 607 85 bang;
#X text 261 3 output a window function for every dsp block;
#X text 7 506 Manuel Planton 2021;
#X text 16 20 inlet: rect \, cos \, tri \, hann;
#X text 12 1 window~ <win-size>;
#X obj 584 230 until;
#X obj 617 256 + 1;
#X obj 584 255 i 0;
#X obj 654 431 cos;
#X msg 650 231 3.14159;
#X obj 650 256 * 2;
#X text 565 257 n;
#X obj 631 339 *;
#X obj 654 393 /;
#X obj 672 368 - 1;
#X obj 583 291 t f f;
#X obj 582 166 trigger f b f b;
#X msg 684 190 0;
#X msg 654 456 1 \$1;
#X obj 654 481 -;
#X obj 654 506 * 0.5;
#X obj 643 548 tabwrite \$0-window;
#X obj 582 141 i \$1;
#X connect 0 0 11 0;
#X connect 2 0 3 0;
#X connect 3 0 4 0;
#X connect 4 0 0 0;
#X connect 4 1 0 0;
#X connect 4 2 5 0;
#X connect 5 0 6 0;
#X connect 5 1 6 0;
#X connect 5 2 14 0;
#X connect 6 0 7 0;
#X connect 7 0 9 0;
#X connect 7 1 8 0;
#X connect 8 0 10 0;
#X connect 9 0 11 0;
#X connect 10 0 11 0;
#X connect 12 0 13 0;
#X connect 14 0 15 0;
#X connect 14 1 15 0;
#X connect 14 2 32 0;
#X connect 15 0 22 0;
#X connect 16 0 17 0;
#X connect 17 0 18 0;
#X connect 18 0 31 0;
#X connect 18 1 19 0;
#X connect 19 0 17 1;
#X connect 20 0 15 0;
#X connect 21 0 17 1;
#X connect 22 0 16 0;
#X connect 22 1 21 0;
#X connect 22 2 23 0;
#X connect 23 0 24 1;
#X connect 24 0 27 0;
#X connect 25 0 26 0;
#X connect 26 0 28 0;
#X connect 27 0 25 0;
#X connect 28 0 29 0;
#X connect 29 0 30 0;
#X connect 31 0 24 0;
#X connect 31 1 30 1;
#X connect 32 0 55 0;
#X connect 33 0 55 0;
#X connect 38 0 40 0;
#X connect 39 0 40 1;
#X connect 40 0 39 0;
#X connect 40 0 48 0;
#X connect 41 0 51 0;
#X connect 42 0 43 0;
#X connect 43 0 45 1;
#X connect 45 0 46 0;
#X connect 46 0 41 0;
#X connect 47 0 46 1;
#X connect 48 0 45 0;
#X connect 48 1 54 1;
#X connect 49 0 38 0;
#X connect 49 1 42 0;
#X connect 49 2 47 0;
#X connect 49 3 50 0;
#X connect 50 0 40 1;
#X connect 51 0 52 0;
#X connect 52 0 53 0;
#X connect 53 0 54 0;
#X connect 55 0 49 0;
